<?xml version="1.0" encoding="UTF-8" standalone="no"?>
<!-- Created with Inkscape (http://www.inkscape.org/) -->

<svg
   xmlns:dc="http://purl.org/dc/elements/1.1/"
   xmlns:cc="http://creativecommons.org/ns#"
   xmlns:rdf="http://www.w3.org/1999/02/22-rdf-syntax-ns#"
   xmlns:svg="http://www.w3.org/2000/svg"
   xmlns="http://www.w3.org/2000/svg"
   xmlns:sodipodi="http://sodipodi.sourceforge.net/DTD/sodipodi-0.dtd"
   xmlns:inkscape="http://www.inkscape.org/namespaces/inkscape"
   width="210mm"
   height="297mm"
   viewBox="0 0 210 297"
   version="1.1"
   id="svg4681"
   sodipodi:docname="boss level.svg"
   inkscape:version="0.92.1 r15371">
  <defs
     id="defs4675" />
  <sodipodi:namedview
     id="base"
     pagecolor="#ffffff"
     bordercolor="#666666"
     borderopacity="1.0"
     inkscape:pageopacity="0.0"
     inkscape:pageshadow="2"
     inkscape:zoom="0.1471435549204146"
     inkscape:cx="88.3534738231574"
     inkscape:cy="233.3755151131872"
     inkscape:document-units="mm"
     inkscape:current-layer="layer1"
     showgrid="false"
     inkscape:window-width="1920"
     inkscape:window-height="1013"
     inkscape:window-x="-9"
     inkscape:window-y="-9"
     inkscape:window-maximized="1" />
  <metadata
     id="metadata4678">
    <rdf:RDF>
      <cc:Work
         rdf:about="">
        <dc:format>image/svg+xml</dc:format>
        <dc:type
           rdf:resource="http://purl.org/dc/dcmitype/StillImage" />
      </cc:Work>
    </rdf:RDF>
  </metadata>
  <g
     inkscape:label="Layer 1"
     inkscape:groupmode="layer"
     id="layer1">
    <path
       transform="scale(0.2645833333333333)"
       inkscape:connector-curvature="0"
       style="opacity:1;vector-effect:none;fill:#cccccc;fill-opacity:1;stroke:#666666;stroke-width:37.7952766418;stroke-linecap:square;stroke-linejoin:round;stroke-miterlimit:4;stroke-dasharray:none;stroke-dashoffset:0;stroke-opacity:1;paint-order:stroke markers fill"
       d="m -755.90625,782.361328125 c -8.6781755403152,-5e-13 -127.4886032271159,49.2151657271158 -133.625,55.3515625 -6.136396772884,6.1363967728842 -55.3515625000001,124.9468244596845 -55.3515625,133.625 5e-13,8.6781755403152 49.2151657271158,127.4905563521161 55.3515625,133.626953125 1.5465235678982,1.546523567898 10.267193113878,5.837534616096 22.560546875,11.37890625 -39.6779391257215,27.946188813972 -82.7477521307746,59.720090331122 -116.724609375,86.232421875 0.6440941465094,-2.163173995187 1.017578125,-3.735278413225 1.017578125,-4.466796875 -1e-13,-8.678175540316 -49.2132126021161,-127.488603227116 -55.349609375,-133.625 -6.136396772884,-6.136396772884 -124.948777584685,-55.349609375 -133.626953125,-55.349609375 -8.678175540315,0 -127.488603227116,49.213212602116 -133.625,55.349609375 -6.136396772884,6.136396772884 -55.3515625,124.946824459685 -55.3515625,133.625 0,8.678175540316 49.215165727116,127.490556352116 55.3515625,133.626953125 6.136396772884,6.136396772884 124.946824459685,55.349609375 133.625,55.349609375 8.678175540315,0 127.490556352116,-49.213212602116 133.626953125,-55.349609375 0.930667145948,-0.930667145948 2.934979999442,-4.676802123366 5.525390625,-10.013671875 22.232035557311,80.495881229547 66.2089978131495,212.398168121628 87.681640625,259.474609375 5.2950495910168,336.914444139848 530.2170492439436,522.855216381062 755.84375,297.228515625 226.7716541383196,-226.771654138326 340.1580333616587,188.9765625 566.9296875,188.9765625 52.3709763111253,-2.12411389e-4 93.1312308388722,-23.221349309867 119.8671875,-56.7421875 4.7685635094339,-5.978699315873 7.9119841646794,-12.288985224149 9.896484375,-18.849609375 h 21.41796875 v -151.1796875 H 516.66015625 c -0.473663938791,-3.778641661966 -1.6977380599491,-7.470628472167 -4.00390625,-11.056640625 -23.7207532206882,-36.884954744717 -67.6445688514235,-62.816982561981 -134.703125,-62.095703125 -226.7716541383411,0 -340.15803336167988,-415.746263513326 -566.9296875,-188.974609375 -164.3808335895952,164.380833589599 -308.8978701022309,148.737211559168 -375.978515625,-1.8671875 22.1143683452404,-50.558888317915 64.0964622710317,-176.887558120614 85.646484375,-254.9140625 2.5904106255585,5.336869751634 4.5947234790524,9.083004729052 5.525390625,10.013671875 6.1363967728842,6.136396772884 124.9468244596849,55.349609375 133.625,55.349609375 8.6781755403153,0 127.4905563521159,-49.213212602116 133.626953125,-55.349609375 6.1363967728841,-6.136396772885 55.349609375,-124.948777584685 55.349609375,-133.626953125 0,-8.678175540316 -49.2132126021159,-127.488603227116 -55.349609375,-133.625 -6.1363967728841,-6.136396772884 -124.9487775846848,-55.349609375 -133.626953125,-55.349609375 -8.6781755403152,0 -127.488603227116,49.213212602116 -133.625,55.349609375 -6.1363967728842,6.136396772884 -55.3515625000001,124.946824459685 -55.3515625,133.625 0,0.731580199399 0.3772861712868,2.303330743209 1.021484375,4.466796875 -33.977781626055,-26.51312568645 -77.0492005547836,-58.287268992655 -116.728515625,-86.234375 12.2930196812506,-5.541233379227 21.0160029637264,-9.830456088726 22.5625,-11.376953125 6.1363967728842,-6.136396772884 55.349609375,-124.9487775846848 55.349609375,-133.626953125 5e-13,-8.6781755403154 -49.2132126021158,-127.488603227116 -55.349609375,-133.625 -6.136396772884,-6.1363967728842 -124.9487775846847,-55.3515625 -133.626953125,-55.3515625 z"
       id="path4552" />
    <path
       style="opacity:1;vector-effect:none;fill:#666666;fill-opacity:1;stroke:none;stroke-width:18.8976383209;stroke-linecap:square;stroke-linejoin:round;stroke-miterlimit:4;stroke-dasharray:none;stroke-dashoffset:0;stroke-opacity:1;paint-order:stroke markers fill"
       d="M 868.5,662.3960784090071 C 840.5365589461141,658.2527877645012 816.6840923591404,645.9233839527762 785.2749397588767,619.3768220471386 780.9987228914942,615.762625343502 768.4167182990488,604.2796444066538 757.3149295534423,593.8590866319201 722.4796362217155,561.1613660139978 708.0734570032808,549.7532544229178 691.8811353460547,542.0427087549569 680.9522443891702,536.8385314536975 673.4734443750318,535 663.2327212924318,535 c -10.3311653579874,0 -15.4230921864191,1.1927464575919 -26.0762417639445,6.1081680941674 C 626.2999399295738,546.1174350019953 619.0585263835278,551.3771096334545 605,564.4644670456864 582.4674016994747,585.4405038891161 565.3648869139407,596.1691891201495 539.6210585384483,605.4777386303079 479.8657962520079,627.0842693052635 401.8212630826242,619.9404364937928 335.6279261630691,586.8051580766507 262.05003552197,549.9732954572773 215.6611090861526,488.7234458525575 210.4304135656186,421.5 c -0.5228594849831,-6.7196448616198 -1.5288449102257,-11.0269823452269 -3.9703766640555,-17 -7.8268787194711,-19.1478504016327 -25.3306698913136,-70.5527863853462 -33.5400365243669,-98.5 -1.211699950781,-4.125 -2.3285477239497,-7.6516522538791 -2.4818839403747,-7.8370050086202 -0.153336216425,-0.185352754741 -8.7521408668837,3.2693573039888 -19.1084547787971,7.6771334638441 C 122.7952275361046,317.9847389341392 111.0521973326968,322.268187974822 106,322.3748126364156 c -3.0692643006426,0.064775630453 -8.15632456502436,-1.294161937094 -16,-4.2741780027629 -16.52075129817304,-6.2766626046185 -43.3877081587664,-17.7126260926761 -51.18532926069804,-21.7871178930616 -6.31197272079279,-3.2981957906054 -6.90686719829185,-3.9210813880877 -10.65219175874472,-11.15340128225 C 23.30817738161058,275.7863318356793 11.76002130621516,248.5651029852378 6.034412774104567,233 2.557254012707229,223.547321928553 1.910625835054561,220.7183163326966 2.402241429043329,217.1092092559458 3.611952220738389,208.2283360035239 27.64396790801222,151.1781998883542 32.29313819522315,146.150545142803 34.71368322777389,143.5329458792955 41.77297850492366,140.1042626469517 64.5,130.5077475686751 93.32743083337885,118.335326527034 100.8809224717799,115.8043586656445 107,116.2671633119585 c 9.5576346817033,0.7228732955361 66.4519598078191,24.3693711689871 71.8035234455273,29.8430794406519 2.945010300682,3.0122275159723 11.0102883710216,20.4197112311986 20.8208228348464,44.9380828874437 3.8953782655821,9.7352832722189 5.9413393713411,13.7141596117601 6.7849387835136,13.1949880742927 4.6344095796327,-2.8521280503445 33.5910184280297,-24.6875570642911 33.3612956708408,-25.156889304538 -0.1578695461627,-0.3225334253948 -1.9620738528292,-3.8202967947795 -4.0093429037034,-7.7728074875215 -8.6346970043481,-16.670369839128 -25.7612378310244,-60.122390472436 -25.7612378310246,-65.3592484963275 -3e-13,-7.71063319664208 24.6818997550518,-67.48242202716421 30.105487022547,-72.90600929466064 1.4879549480699,-1.48795494807026 5.7854292103891,-4.17962018396503 9.5499428051537,-5.98147830198838 11.015336892263,-5.2724140058066 43.194328855472,-18.581769477305815 53.3924040166378,-22.083304702266723 8.6196858014821,-2.959591195887418 9.7940325669497,-3.132746546627986 14.2580593933007,-2.10232560579658 9.5532306074871,2.205150025631148 58.2628484982786,22.442831101996642 66.9119702035548,27.800323053382275 4.218196776175,2.61286128786136 7.2765775131194,8.42621676223075 18.0695374610822,34.34649036655087 9.3494118968066,22.45346184671554 13.9114166363568,34.92205894355563 14.4480699118951,39.4885960982482 C 417.252090398028,108.9127247464932 414.6917487460531,116.5186724841435 403.7810696525085,143 c -4.6397638240374,11.2611785542525 -13.8143641219636,31.3174013684199 -16.5075210426677,36.0864244098061 -0.262481571159,0.4648004916362 28.5013578700774,22.1883352710988 33.2891031999538,25.1411843894727 0.8022543032571,0.4947915456786 2.5428644250369,-2.7049670860353 5.4398169428407,-10 11.2682318300044,-28.3753777726335 19.1843018348537,-45.1636201151995 22.8627630110131,-48.4868887989138 C 455.6100080172124,139.6472198575873 513.1832142017234,116 521.2741075202394,116 527.1969045690209,116 546.6709350226401,123.2317556382543 577,136.6940231554569 c 15.4472097092838,6.8566066793006 18.2844781017776,8.9446923727292 21.9048739062169,16.1208766646597 3.7830904976239,7.4986703306617 15.0945592718131,34.2552689911313 20.7008942569843,48.9667195838296 6.4296647757379,16.8719307579863 6.4498756288492,17.4746673076624 1.0683552410801,31.8609386894992 -6.4058123385826,17.1244830612204 -17.1579454738733,42.4943954197701 -21.8338805339065,51.5175573648883 -3.7473352477015,7.2312408894781 -4.3438825850616,7.8556911082121 -10.6549136096703,11.1532861140453 -12.9644341619494,6.7740838508308 -57.7438278792032,24.9503427593811 -64.6686710995489,26.2494511783524 -4.48179865576,0.840790495982 -21.6138804155809,-5.2852313411985 -53.8182773174,-19.2441261200988 -7.0408905359346,-3.0518519083123 -12.9517028547351,-5.3845502717869 -13.1351384862236,-5.1837741410547 C 456.3798067260436,298.33572862031 454.3470465891191,304.8 452.0459976088109,312.5 c -5.7730861302853,19.3184776089575 -20.8557371219894,64.0257773861408 -27.4597282669394,81.3948624883846 l -5.4731463313392,14.3948624883846 2.5818733687177,5.1051375116154 c 16.6926771904508,33.0064260806791 46.2744657444951,49.7453456680727 78.1192145456427,44.2039279714576 C 529.0781357144503,452.5064711040235 554.2126001062464,437.2230137442504 592,401.5435845662838 c 26.5181883907107,-25.038870821349 46.7751079491316,-34.8998931332796 71.5,-34.8060371800185 13.40755719922,0.050895229765 23.0295551960457,2.3624820101877 36.1840619562028,8.6928514542991 C 719.0977092359411,384.7728669223505 731.3353220417975,394.3850546837789 770.5,431.0536730671275 c 29.9637761142311,28.0541122495488 42.8422745307658,38.5353314327992 59.1666618763747,48.1530323963345 18.0202233530664,10.6168222939484 30.7758818135469,14.2766933845148 54.8869278491112,15.7482329201058 32.8165988000991,2.0028547283572 52.557000482312,11.0475664641429 68.0490163554595,31.178886161849 2.4625506714005,3.1999963880553 5.4210172569504,5.9062724984568 6.848257390749,6.2644869693612 C 964.8061080181737,533.7423923364641 965,535.3716511944719 965,579.0272631500388 v 40.1265830038075 l -2.9230769230772,2.9230769230765 C 959.83433830643,624.319507847416 958.235674591162,625 955.2098093326775,625 c -3.4898413175588,0 -4.2471728106915,0.4580694062151 -6.5763383190879,3.9776761117294 -9.1338290526049,13.8021475351109 -27.911996701269,26.3620556236898 -46.5344170211731,31.1248686068218 C 894.7142342909769,661.9912635074039 874.8975301338058,663.3439884569968 868.5,662.3960784090071 Z m 27,-9.7974333939502 C 911.3335104995093,649.6144617843538 923.3901334745859,643.2816394748471 934.7163374568663,632 l 6.5256761704679,-6.5 -30.871006813667,-0.2354988384953 c -16.979053747517,-0.1295243611728 -31.8778143582198,-0.474169058499 -33.108356912673,-0.7658771051698 -4.7168671121303,-1.1181637617544 -5.736931932428,-4.673175258859 -6.0830427055158,-21.1999142850387 L 870.8592143909569,588 H 875.4296071954784 880 v 14 14 h 38 38 v -38 -38 h -38 -38 v 4.5 4.5 h -4.620190904887 -4.6201909048865 l 0.4372041785266,-6.0442860009128 c 0.3543481161895,-4.8988126448171 0.9497012570099,-6.5570551343884 3.1414826329326,-8.75 L 877.042583456091,531.5 911.2712917280457,531 945.5,530.5 l -6.7643910461996,-6.7136226922238 c -5.101259422129,-5.0629732641742 -9.0351103487511,-7.8275150105191 -16,-11.2441139144792 C 910.7495457002911,506.6625477588372 904.4240856436216,505.0938627327108 888,503.9279919962696 858.816435207652,501.8563841810945 849.3510442846584,499.5503010193987 831.5356177294388,490.1713957553914 812.5326041266429,480.1672870264289 796.8744080915738,467.8573360677023 764.5,437.4702311455502 c -25.9749456758821,-24.3804735322918 -33.5586751039745,-31.0347481632286 -45.4866229576807,-39.911824922585 -35.6261931260234,-26.5139028860788 -65.7267741265436,-29.2913128026476 -97.2809551987524,-8.9762084545021 -8.9128336135027,5.7382298872412 -15.0337531124835,10.8497771161621 -29.4258912245616,24.5734048246317 C 554.0481234098936,449.636918514895 519.5366302573352,467.343307635358 487,467.1839345410519 455.6764628020351,467.030503500149 431.8540816788361,450.5615585393308 413.227876519285,416.183615346955 l -3.9640673326853,-7.3163846530449 5.4402240789314,-13.6836153469551 C 421.1587797453804,378.9482054243327 439.925292782252,323.1276045291475 446.5360320848064,300.5 c 2.5709529167146,-8.8 4.8538735376639,-16.1892743741019 5.0731569354429,-16.4206097202266 0.2192833977789,-0.2313353461246 1.4280598162844,0.5464263531513 2.6861698189009,1.7283593317242 4.9221563328392,4.6241257786479 60.8940166756853,27.6026188615931 67.2046411608498,27.5899598940838 2.5873912793622,-0.00519024737 9.8270109726305,-2.3455685978887 20.5,-6.6271100165989 21.656821617012,-8.6877798256025 44.0772915646456,-18.6255958201692 46.1659380356969,-20.4629340280063 2.9371090682694,-2.5837128429877 26.3343453299218,-58.4534210350706 27.507972684842,-65.685638665657 C 616.2481234670741,217.0835684151625 611.2786957459258,203.1443430944299 600.478871066997,178 c -11.9170394885091,-27.745462401215 -10.4731137876803,-25.666527790941 -21.3603162631682,-30.7541452724419 -9.8016309179799,-4.5803271242367 -47.8479952456146,-20.1278690074323 -54.2138297794096,-22.1543320640386 -3.1675963504165,-1.0083543560994 -4.6202672563421,-0.7827217695371 -12.2118596734232,1.8967774969613 -10.9948782778973,3.8807099567911 -37.447329335616,14.8610168978315 -49.4924668037692,20.5441255930826 l -9.2996014527733,4.3877162895285 -4.5810816946449,9.789928978454 c -5.938538421209,12.6908606426764 -21.2052672088263,50.6031674652402 -22.1155022271098,54.9200629442866 L 426.5,219.9699468717774 407.4509977627417,205.7349734358887 C 396.9740465322497,197.9057380461499 384.5097589920375,188.8 379.7525810067147,185.5 c -4.7571779853228,-3.3 -8.6726269785566,-6.308938917416 -8.7009977627417,-6.6865309275912 -0.028370784185,-0.3775920101752 2.2772158120597,-1.9525920101752 5.1235257694331,-3.5 C 381.2079109968399,172.5773657958849 381.4987154376408,172.1700196352882 386.7504451933576,160.5 c 8.439546221558,-18.7537582281903 20.4059784701722,-49.247335793388 20.9668570293815,-53.4289977029616 0.4179778983341,-3.1162579275115 -1.0446577980714,-7.67161291132744 -8.245229813325,-25.67963356504052 C 388.049146526256,52.82359872789513 381.8057055839192,39.57336548531863 378.8596437639326,37.64634258839027 373.2827704452838,33.99850244281102 325.7679989490735,14.25040336445845 317,11.93622475484096 312.7808182570042,10.8226365579855 311.8759594288795,10.98234356681529 302.5,14.49546555136521 287.3312625892451,20.17911054575876 262.4120702061209,30.59922888056618 254,34.77604814281426 L 246.5,38.5 242.27086818696,47 c -4.3830779831028,8.80941160109957 -13.5254438425655,30.49562402786739 -19.8140268544251,47 -2.6195909178469,6.875112138902 -3.487982559797,10.5166974187387 -3.1428849669315,13.1796335649848 0.5192238026601,4.0065762864774 12.3378794236999,34.1553174380129 20.9022010343869,53.3203664350152 5.2406610336035,11.7274350557272 5.4811547413097,12.0640851790284 10.5880251775348,14.8214272029465 2.8740593931173,1.5517849616205 5.0162479512903,3.1601053103975 4.7604190181624,3.5740452195043 -0.255828933128,0.4139399091069 -8.2500215829827,6.4088613175306 -17.7648725552328,13.3220475742749 C 228.2848780682046,199.13070625347 216,208.2479523375968 210.5,212.4780668503408 c -9.3134457038339,7.1630803337166 -10.0241457306079,7.5308348741387 -10.3516944070222,5.3565252227787 -0.6843857031991,-4.5430390866125 -18.8502101060329,-49.3126496970495 -24.7826181522881,-61.0766756289905 -1.9494155251817,-3.865710957769 -3.4516272932649,-5.2770160420396 -8.1285217478168,-7.6366224217081 -8.2491074605154,-4.1618742478696 -36.7957248070562,-16.1431656187959 -50.1926701830152,-21.0663490825257 l -11.4555044901423,-4.2097320465125 -10.04449550985767,3.7051562938804 c -13.10709858680984,4.8348718734323 -36.68439777066559,14.5950317128497 -48.07725875482981,19.9022681278724 l -9.03276324497223,4.2078113731598 -3.82996890146132,7.9197756558524 c -4.92619111905707,10.1865914592406 -19.87814654530902,46.4397185537701 -22.2288196879423,53.8969119646684 l -1.80695610253008,5.7323244551453 2.80302995568883,8.1452696180193 C 17.00862735650873,237.9230352662213 30.06759441810867,269.3824497970036 34.805959273958,278.9903149951653 39.0299277263124,287.5551513313566 38.3514566027241,287.1163438277835 65,298.5185913994849 c 24.44532085419314,10.4595435553029 39.158267826352,15.6847578262929 42.3751896114466,15.0492927020417 8.1897586333557,-1.6177906505675 61.7101109116779,-24.3599405073725 65.3294515493836,-27.7601344900104 1.2581100026108,-1.1819329785674 2.4460500482469,-1.9596946778453 2.6398667680803,-1.7283593317285 C 175.5383246487439,284.3107256259045 177.8374885788899,291.7 180.4537611070128,300.5 c 10.1520589793452,34.1470997604121 26.6038145315153,82.3530240113536 35.8344821683224,105 1.722304488462,4.2255869163577 2.6220830591081,8.8094873824338 3.0425110554272,15.5 2.0212776198621,32.1657537977761 16.115981264442,66.1689927045195 39.3785089093246,95 8.4510096879375,10.4739745261819 26.9111518580535,28.094143670492 38.8306097000628,37.0637400615154 C 334.118590651739,580.5898522994209 378.9666455985057,599.0990125197414 427,606.4929966198659 c 14.6158067128999,2.2498749835869 45.8504875997563,3.0769188965645 60.0508958963976,1.5900507547966 24.7572782168678,-2.5922359053752 46.0804907806499,-8.3167683490252 65.8185186789932,-17.6699568343111 18.1079355265435,-8.5807424597562 26.8689631469958,-14.8327218657662 48.6846233288647,-34.7419590061409 5.9235212831386,-5.4058776561834 14.1201277077834,-12.0894851686752 18.214680943654,-14.8524611388693 31.4145421167781,-21.19831395106 61.3173845522797,-19.6384320069224 95.5578520971884,4.9847758930766 11.4156314524155,8.2092765291225 21.7048051961797,17.0923637702997 44.173429054902,38.1368255419425 30.2836012788526,28.3640908952718 40.707575101161,37.2299106356663 55.7741757479899,47.4371671283886 C 843.2880450778266,650.3561559438179 869.9618922810807,657.4118791238829 895.5,652.5986450150569 Z"
       id="path4629"
       inkscape:connector-curvature="0"
       transform="matrix(0.5291666663874643,0,0,0.5291666663874643,-365.8826466790363,201.0361307529323)" />
  </g>
</svg>
