<?xml version="1.0" encoding="UTF-8" standalone="no"?>
<!-- Created with Inkscape (http://www.inkscape.org/) -->

<svg
   xmlns:dc="http://purl.org/dc/elements/1.1/"
   xmlns:cc="http://creativecommons.org/ns#"
   xmlns:rdf="http://www.w3.org/1999/02/22-rdf-syntax-ns#"
   xmlns:svg="http://www.w3.org/2000/svg"
   xmlns="http://www.w3.org/2000/svg"
   xmlns:sodipodi="http://sodipodi.sourceforge.net/DTD/sodipodi-0.dtd"
   xmlns:inkscape="http://www.inkscape.org/namespaces/inkscape"
   width="126.2579650878906mm"
   height="47.06864929199219mm"
   viewBox="0 0 126.2579650878906 47.06864929199217"
   version="1.1"
   id="svg8"
   inkscape:version="0.92.1 r15371"
   sodipodi:docname="buttons.svg"
   inkscape:export-filename="../Assets/Sprites/buttons.png"
   inkscape:export-xdpi="96"
   inkscape:export-ydpi="96">
  <defs
     id="defs2" />
  <sodipodi:namedview
     id="base"
     pagecolor="#ffffff"
     bordercolor="#666666"
     borderopacity="1.0"
     inkscape:pageopacity="0.0"
     inkscape:pageshadow="2"
     inkscape:zoom="0.9999999999999994"
     inkscape:cx="207.444971932623"
     inkscape:cy="139.7006024757471"
     inkscape:document-units="mm"
     inkscape:current-layer="layer1"
     showgrid="false"
     inkscape:window-width="1920"
     inkscape:window-height="1013"
     inkscape:window-x="-9"
     inkscape:window-y="-9"
     inkscape:window-maximized="1"
     inkscape:snap-global="false" />
  <metadata
     id="metadata5">
    <rdf:RDF>
      <cc:Work
         rdf:about="">
        <dc:format>image/svg+xml</dc:format>
        <dc:type
           rdf:resource="http://purl.org/dc/dcmitype/StillImage" />
        <dc:title></dc:title>
      </cc:Work>
    </rdf:RDF>
  </metadata>
  <g
     inkscape:label="Layer 1"
     inkscape:groupmode="layer"
     id="layer1"
     transform="translate(160.950044854899,90.23343219480776)">
    <circle
       style="opacity:1;vector-effect:none;fill:#808080;fill-opacity:1;stroke:none;stroke-width:32.8862113953;stroke-linecap:square;stroke-linejoin:round;stroke-miterlimit:4;stroke-dasharray:none;stroke-dashoffset:0;stroke-opacity:1;paint-order:stroke markers fill"
       id="path4485"
       cx="61.27085494995117"
       cy="100.1373748779297"
       r="41.44793319702148"
       transform="matrix(0.6081576403854827,0,0,0.6081576403854827,-4.347172770834705,-43.40025821091948)" />
    <text
       xml:space="preserve"
       style="font-style:normal;font-weight:normal;font-size:40px;line-height:1.25;font-family:sans-serif;text-align:center;letter-spacing:0px;word-spacing:0px;text-anchor:middle;fill:#ffffff;fill-opacity:1;stroke:none;stroke-width:0.20805116"
       x="68.779541015625"
       y="126.5679397583008"
       id="text4491"
       transform="matrix(1.271722441876563,0,0,1.271722441876564,-54.70235002526847,-129.5880312888627)"><tspan
         sodipodi:role="line"
         id="tspan4489"
         x="68.779541015625"
         y="126.5679397583008"
         style="font-style:normal;font-variant:normal;font-weight:bold;font-stretch:normal;font-family:sans-serif;-inkscape-font-specification:'sans-serif Bold';fill:#ffffff;stroke-width:0.20805116">z</tspan></text>
    <circle
       transform="matrix(0.6081576403854827,0,0,0.6081576403854827,62.32318843366609,-43.40025821091936)"
       r="41.44793319702148"
       cy="100.1373748779297"
       cx="61.27085494995117"
       id="circle4493"
       style="opacity:1;vector-effect:none;fill:#808080;fill-opacity:1;stroke:none;stroke-width:32.8862113953;stroke-linecap:square;stroke-linejoin:round;stroke-miterlimit:4;stroke-dasharray:none;stroke-dashoffset:0;stroke-opacity:1;paint-order:stroke markers fill" />
    <text
       transform="matrix(1.271722441876563,0,0,1.271722441876564,11.96801117923233,-129.5880312888627)"
       id="text4497"
       y="126.5679397583008"
       x="68.779541015625"
       style="font-style:normal;font-weight:normal;font-size:40px;line-height:1.25;font-family:sans-serif;text-align:center;letter-spacing:0px;word-spacing:0px;text-anchor:middle;fill:#ffffff;fill-opacity:1;stroke:none;stroke-width:0.20805116"
       xml:space="preserve"><tspan
         style="font-style:normal;font-variant:normal;font-weight:bold;font-stretch:normal;font-family:sans-serif;-inkscape-font-specification:'sans-serif Bold';fill:#ffffff;stroke-width:0.20805116"
         y="126.5679397583008"
         x="68.779541015625"
         id="tspan4495"
         sodipodi:role="line">x</tspan></text>
    <path
       style="opacity:1;vector-effect:none;fill:#d35f5f;fill-opacity:1;stroke:#ffffff;stroke-width:18.8976383209;stroke-linecap:square;stroke-linejoin:round;stroke-miterlimit:4;stroke-dasharray:none;stroke-dashoffset:0;stroke-opacity:1;paint-order:stroke markers fill"
       d="m -580,-302.458984375 c -26.5096679816781,0 -48,21.4903320183216 -48,48 0,26.5096679816783 85.5,111.0000000332402 85.5,111.0000000332402 0,0 85.5,-84.4903320515619 85.5,-111.0000000332402 0,-26.5096679816784 -21.4903320183216,-48 -48,-48 -14.5898377253073,0.017575602998 -28.3797112644081,6.6699480154597 -37.474609375,18.078125 -9.106005843485,-11.4220885340697 -22.9177404257063,-18.0759903345717 -37.525390625,-18.078125 z"
       transform="matrix(0.2645833333333333,0,0,0.2645833333333333,7.708288547973071,-7.707825842716945)"
       id="path4499"
       inkscape:connector-curvature="0"
       sodipodi:nodetypes="cscsccc" />
    <path
       style="opacity:1;vector-effect:none;fill:#4d4d4d;fill-opacity:1;stroke:#ffffff;stroke-width:23.9060668945;stroke-linecap:square;stroke-linejoin:round;stroke-miterlimit:4;stroke-dasharray:none;stroke-dashoffset:0;stroke-opacity:1;paint-order:stroke markers fill"
       d="m -237.689453125,-206.767578125 c -4.9751945654168,-0.3898237430757 -10.6528979066167,11.8181389021079 -6.935546875,15.173828125 -0.3047466085392,0.3854606909921 -0.621292280685,0.7623548969775 -0.953125,1.130859375 -6.1377544663426,7.642126052676 -6.042009624736,8.025128648482 -11.4765625,20.892578125 -0.2049821236521,0.4853383857369 -0.047170055112,1.0688808224445 0.087890625,1.578125 0.1635491945142,0.616659674606 0.5285364936967,1.1615903288582 0.79296875,1.7421875 2.5076443767887,3.1833595005095 4.8992624590331,4.2143087688846 8.892578125,4.70703125 3.2920959997256,0.3447218948808 6.5207613899674,0.9583884232681 9.8046875,1.34765625 1.0371751651691,0.044290493747 2.0777414465106,0.090696386818 3.1171875,0.146484375 -2.3774756954152,3.9720360539947 -4.9389418011323,7.8598878605872 -6.51953125,12.19140625 -0.3712265573762,1.0173259482816 1.0551645057077,1.9011366367693 1.72265625,2.75390625 0.4806592365327,0.6140773945725 1.0508782224603,1.0966799477917 1.669921875,1.498046875 -3.9611846466155,1.8166458674363 -7.8997228194173,3.7114201320533 -11.455078125,6.251953125 -0.5748231423885,0.4370113342192 -1.1162723837478,0.9234927297134 -1.724609375,1.3125 -0.615124393811,0.3933475438186 -1.6816494389341,0.3427735183592 -1.935546875,1.02734375 -3.5827322726594,9.6599315842046 -9.0987975828806,15.6745391348169 -0.693359375,17.92578125 2.7560545152704,0.2856171957767 5.4721761058976,0.7526376888182 8.1328125,1.548828125 3.971714381462,0.9418521906551 8.0203577746739,1.702143810774 12.08984375,2.03125 1.7078524156892,0.1132617349074 3.4165240149606,0.2162569670157 5.125,0.3203125 -5.9530600722711,2.1948416094813 -11.9101615250967,4.3755865527877 -18.029296875,6.08984375 -1.6734206690327,0.5064101445876 -3.3256975164802,1.0843169413275 -5.01953125,1.517578125 -6.8264513845399,1.7461196743335 -14.4200102417282,2.4320715874587 -21.443359375,2.912109375 -6.2814205738632,0.094812554178 -12.6016060207439,0.3222668392293 -18.806640625,1.3671875 -6.8562380298495,1.37186787786709 -5.2824674878655,0.5576937501848 -10.4375,14.373046875 -0.3874992124933,1.0384878162417 1.5793545123096,1.55459581007709 2.404296875,2.294921875 1.3423836112459,1.20469213544781 2.9631773530267,1.61472234978955 4.720703125,1.8671875 4.8185834507858,0.62484479054058 9.6755323951117,0.89968607679926 14.4921875,1.552734375 1.3231102890291,0.18218572009707 2.6541004161889,0.3126772456306 3.970703125,0.537109375 2.3791898447583,0.40556398635655 4.609869087749,1.40891232690763 7.009765625,1.734375 4.0755387880148,0.3920310528918 8.1088650056747,1.1063498167934 12.123046875,1.904296875 5.797442736157,1.02291089536445 11.5893598061615,2.07756099627341 17.408203125,2.97265625 6.5992175043604,0.85263046286993 13.1671851216807,2.00954336179566 19.8203125,2.388671875 8.2541411242084,0.64514904208922 16.5648001704429,0.59372761873794 24.7734375,1.84765625 10.7319921820039,1.20967955712898 21.4884999616477,2.25822132313836 32.150390625,3.994140625 -5.1811473203373,0.4401711772632 -10.3631373758058,0.87355032326609 -15.544921875,1.30859375 -35.769057004832,3.11407614844669 -71.6141337608749,5.86431328865075 -107.08984375,11.580078125 -17.7205114109541,3.39171795631654 -35.6308951352715,6.93030913857421 -52.359375,13.900390625 -5.8715244655677,-1.4126465070792 -9.8676182155672,15.19477536792064 -3.99609375,16.607421875 0.8658691984915,0.0394257134555 1.7308899286801,0.11718557171105 2.59765625,0.1171875 6.9393224417223,1.543786183e-5 13.9091215769962,-0.651371301574 20.8203125,-1.15625 11.186317452644,-0.81718671334519 13.8249866449469,-1.04350101084089 25.48046875,-1.962890625 22.6694559884928,-1.96323178694152 45.4014347490726,-3.06861863138235 68.095703125,-4.693359375 18.402808516425,-1.31750415119551 19.1676996387584,-1.48239180141319 37.521484375,-3.173828125 21.5557739506574,-2.08460770847086 43.0064199020124,-5.16740674480184 64.20703125,-9.599609375 8.8703862171342,-1.85444412319685 12.2895656664926,-2.7679500431878 20.75,-4.8515625 5.5314487302648,-1.49707803040001 11.21706224610577,-2.86638011287113 16.27734375,-5.6640625 0.74324023233201,-0.41091589584502 1.73417840725567,-0.65997010139287 2.1171875,-1.41796875 2.55630073498027,-5.05907702781864 5.58934307077816,-10.11206979871734 6.533203125,-15.701171875 0.23471125226638,-1.38985132541741 -2.31821885337035,-1.60507419698301 -3.4765625,-2.408203125 -8.94712145245362,-3.89381417882248 -18.71977142799096,-5.11242342147828 -28.271484375,-6.646484375 -13.4865798353644,-2.06732366980646 -26.9473761904729,-4.31861661353337 -40.455078125,-6.24609375 -12.8156492989309,-1.80968079810978 -25.6675962302079,-3.33793117600381 -38.60546875,-3.8359375 -8.5033061667697,-0.19350478826851 -17.0096527506883,-0.0702353887769 -25.513671875,-0.18359375 -6.5410053107396,-0.0700609607992 -13.0022866507417,-1.05670915055424 -19.470703125,-1.921875 -0.5321753735909,-0.0780200961278 -1.0653781189578,-0.14748201108522 -1.59765625,-0.224609375 4.4422195611129,-1.65045424134756 8.8297121166475,-3.45386716452104 13.177734375,-5.33984375 5.6407366820698,-2.50745346549925 11.1414587952753,-5.33420496959739 16.9140625,-7.53515625 4.3744748665967,-1.3836481188115 8.7494630807139,-2.7734417400564 13.1875,-3.94140625 9.1937266845194,-2.3011640536828 10.1670990551576,-4.4876072960539 13.484375,-17.078125 0.2551127391541,-0.968264778761 -1.5637703219128,-1.2514930679828 -2.345703125,-1.876953125 -4.068695367279,-2.2350515752884 -8.8433554551318,-2.3064356074939 -13.3671875,-2.59765625 -6.4760208105155,-0.449217701504 -12.961512102869,-0.2160417609522 -19.439453125,0.0234375 -4.7402210321071,0.3357210324303 -9.4892177927477,-0.018937598914 -14.228515625,-0.1953125 -0.7134326467469,-0.041619674222 -1.4249555614923,-0.1031212342857 -2.13671875,-0.1640625 1.3626130505948,-0.5403791639596 2.7276724479653,-1.0717882627022 4.09375,-1.6015625 9.7333565971683,-4.0970107866691 10.8290133582967,-6.1233993270354 13.771484375,-19.8515625 0.2124540192644,-0.9912088943811 -1.4569442382562,-1.4104152632188 -2.185546875,-2.115234375 -1.4196200031424,-1.1286618401332 -2.9827270196966,-1.9124106555595 -4.619140625,-2.509765625 1.56479796617,-1.9741492423757 1.9285734144581,-4.3390061891741 4.458984375,-13.271484375 0.2451839649491,-0.8655117498993 -4.3063449188797,-3.8896468887474 -5.076171875,-4.279296875 -0.5487480833456,-0.2777503196423 -1.131867116704,-0.4845000579452 -1.697265625,-0.7265625 -3.5842715856702,-1.3100390086087 -7.3942928036019,-1.6590299195358 -11.177734375,-1.8203125 -3.1879854978623,0.04703892526 -6.2942290227266,-0.6800540637256 -9.427734375,-1.130859375 -0.038327636302,-0.034132217531 -0.2691527304347,-0.072406032058 -0.564453125,-0.11328125 1.0238040885237,-1.4977519103753 1.9978464616027,-3.0295806008286 2.88671875,-4.62109375 -2.7375254676942,-2.7068298696904 11.1531016516722,-13.8978998690369 6.837890625,-20.26953125 -0.8492771868646,-1.2540015173107 -1.6537945589165,-1.7255667359169 -2.818359375,-2.615234375 l -1.58984375,-0.8515625 c -0.3400333407713,-0.1602048888093 -0.6864792815487,-0.2498706665523 -1.037109375,-0.27734375 z m -6.291015625,15.62109375 c 0.027289208503,0.013845159981 0.050167528518,0.031749861926 0.078125,0.044921875 l 0.482421875,0.1484375 c 0.026595006121,0.066904206457 0.11746006828,0.138917675419 0.078125,0.19921875 -0.072758716563,0.1115398799544 -0.227250181968,0.137151467702 -0.341796875,0.205078125 l -0.384765625,0.671875 c -2.2282341684569,3.7242893869332 -4.7175676001094,8.2082961720628 0.087890625,-1.26953125 z m 0.77734375,10.05078125 c -0.3746687728304,0.6186812204274 -0.8515201936213,1.471550860642 -1.44140625,2.609375 -1.3006139993537,-0.2107274374146 -2.2606238517787,-0.4988427551564 -1.130859375,-0.921875 1.0951035330733,-0.4003707168184 1.9549222937273,-1.0673090650512 2.572265625,-1.6875 z m 23.173828125,9.123046875 c 0.037175093177,-0.014802375688 -0.2027294884561,0.7289429277695 -0.271484375,1.005859375 -0.1218326632367,0.1102259714097 -0.2560584542249,0.204235823265 -0.380859375,0.310546875 0.2063536973955,-0.4196645867731 0.4124635341558,-0.8394692195358 0.6171875,-1.259765625 0.017849378258,-0.036644608219 0.029845522403,-0.054525999902 0.03515625,-0.056640625 z m -10.404296875,12.630859375 c 0.0938738152,0.00465930793 0.6225679883337,0.096311500219 1.1875,0.212890625 -0.148302526916,-0.024867164931 -0.2968826666309,-0.050124216039 -0.4453125,-0.07421875 -0.6287039977763,-0.102057177336 -0.8143344696879,-0.1422527984719 -0.7421875,-0.138671875 z m 4.138671875,0.666015625 c 0.037005503008,0.014514411617 0.075697804773,0.029532005622 0.11328125,0.044921875 -0.041650858161,-0.00664761025 -0.083347017392,-0.012896795852 -0.125,-0.01953125 0.00352831683,-0.00862558808 0.00818750053,-0.016766305178 0.01171875,-0.025390625 z m 8.947265625,4.896484375 c 0.098640610054,-0.00894754738 0.1480428184041,0.6784582910957 0.06640625,0.921875 -0.1209273238535,0.3605704130435 -0.3901854959102,0.6832308344395 -0.705078125,0.896484375 -0.1331534641395,0.090175015362 -0.2737153827292,0.1685793370679 -0.416015625,0.2421875 0.3294534995715,-0.6345576623702 0.6638777596337,-1.2896869768413 1.009765625,-2.01171875 0.015845836489,-0.033077764684 0.030830359278,-0.047549903945 0.044921875,-0.048828125 z m 34.28125,25.75 c 0.062187496534,0.066646724667 0.1288470077812,0.3056233448037 0.05859375,0.37109375 -0.1265308249718,0.1179165869645 -0.2814625992619,0.1932187356087 -0.4453125,0.255859375 0.11217950491,-0.2157934220508 0.2159664639455,-0.3982977799028 0.330078125,-0.623046875 0.014491622606,-0.028542035381 0.035911459489,-0.026121824889 0.056640625,-0.00390625 z m -68.75,8.720703125 c -0.086955516634,0.3181471477195 -0.1735325012716,0.6368092788899 -0.259765625,0.955078125 -0.056688067481,0.2092240782291 -0.194826096612,-0.4752579972336 -0.064453125,-0.6484375 0.090359984953,-0.1200286920717 0.2040929386386,-0.2170466487847 0.32421875,-0.306640625 z"
       transform="matrix(0.2080508845920881,0.0214325811021626,-0.0214325811021626,0.2080508845920881,-22.58253317588748,-38.32338222742832)"
       id="path4518"
       inkscape:connector-curvature="0" />
  </g>
</svg>
