<?xml version="1.0" encoding="UTF-8" standalone="no"?>
<!-- Created with Inkscape (http://www.inkscape.org/) -->

<svg
   xmlns:dc="http://purl.org/dc/elements/1.1/"
   xmlns:cc="http://creativecommons.org/ns#"
   xmlns:rdf="http://www.w3.org/1999/02/22-rdf-syntax-ns#"
   xmlns:svg="http://www.w3.org/2000/svg"
   xmlns="http://www.w3.org/2000/svg"
   xmlns:sodipodi="http://sodipodi.sourceforge.net/DTD/sodipodi-0.dtd"
   xmlns:inkscape="http://www.inkscape.org/namespaces/inkscape"
   width="210mm"
   height="297mm"
   viewBox="0 0 210 297"
   version="1.1"
   id="svg5299"
   inkscape:version="0.92.1 r15371"
   sodipodi:docname="intro level bin.svg">
  <defs
     id="defs5293" />
  <sodipodi:namedview
     id="base"
     pagecolor="#ffffff"
     bordercolor="#666666"
     borderopacity="1.0"
     inkscape:pageopacity="0.0"
     inkscape:pageshadow="2"
     inkscape:zoom="0.2080924109293422"
     inkscape:cx="513.6017140177971"
     inkscape:cy="1169.669968893915"
     inkscape:document-units="mm"
     inkscape:current-layer="layer1"
     showgrid="false"
     inkscape:window-width="1920"
     inkscape:window-height="1013"
     inkscape:window-x="-9"
     inkscape:window-y="-9"
     inkscape:window-maximized="1" />
  <metadata
     id="metadata5296">
    <rdf:RDF>
      <cc:Work
         rdf:about="">
        <dc:format>image/svg+xml</dc:format>
        <dc:type
           rdf:resource="http://purl.org/dc/dcmitype/StillImage" />
        <dc:title></dc:title>
      </cc:Work>
    </rdf:RDF>
  </metadata>
  <g
     inkscape:label="Layer 1"
     inkscape:groupmode="layer"
     id="layer1">
    <path
       transform="scale(0.2645833333333333)"
       style="display:inline;opacity:1;vector-effect:none;fill:#cccccc;fill-opacity:1;stroke:#666666;stroke-width:37.7952766418;stroke-linecap:butt;stroke-linejoin:round;stroke-miterlimit:4;stroke-dasharray:none;stroke-dashoffset:0;stroke-opacity:1;paint-order:stroke markers fill"
       d="M -188.9765625,-427.0859375 V -275.90625 H -453.54296875 L -649.234375,-136.125 c -76.2466314001591,4.612790411815 -151.3419803473211,21.0037869185701 -219.40234375,49.1953125 -16.4606462041155,6.8182229031695 -45.5422874836607,18.3423352590994 -37.794921875,37.794921875 L -861.2734375,64.251953125 H -1096.0625 c -20.938595939636,0 -37.794921875,16.85632593536377 -37.794921875,37.794921875 v 226.771484375 c 0,20.9385959396363 16.856325935364,37.794921875 37.794921875,37.794921875 h 116.359375 c 17.2415056591425,183.3435428069651 118.6508821777841,188.8093616278025 525.89453125,188.970703125 0.088922787594,6.090942233e-4 0.1765534972103,0.005859375 0.265625,0.005859375 h 113.384765625 c 20.9385959396362,0 37.796875,-16.8563259353638 37.796875,-37.794921875 v -157.02734375 l 42.857421875,24.744140625 c 18.1333560033027,10.4692979698182 41.1596082801819,4.2993716283028 51.62890625,-13.833984375 l 94.48828125,-163.658203125 c 10.4692979698181,-18.1333560033027 4.2993716283027,-41.1596082801819 -13.833984375,-51.62890625 L -228.45703125,97.94140625 C -232.6564210853918,87.76537580632674 -245.0456387266446,58.27800262547368 -260.28125,26.45703125 H 37.794921875 V -275.90625 h -75.58984375 v -151.1796875 z"
       id="rect4536-5"
       inkscape:connector-curvature="0" />
    <path
       transform="scale(0.2645833333333333)"
       inkscape:connector-curvature="0"
       style="display:inline;opacity:1;vector-effect:none;fill:#ff0000;fill-opacity:1;stroke:none;stroke-width:18.8976383209;stroke-linecap:square;stroke-linejoin:round;stroke-miterlimit:4;stroke-dasharray:none;stroke-dashoffset:0;stroke-opacity:1;paint-order:stroke markers fill"
       d="m -112.671875,-445.34765625 c -90.1784736529846,-0.00598224205 -87.3713040615027,-0.3249913440454 -92.28515625,10.494140625 -2.42927676997,5.3486887589263 -2.6196171120956,10.6313945915436 -2.6484375,73.29296875 l -0.03125,67.529296875 H -333.3046875 -458.97265625 l -5.42578125,3.681640625 c -2.9840580809595,2.0250365123027 -47.142516444508,33.4705383649077 -98.130859375,69.87890625 l -92.70703125,66.197265625 -22.626953125,2.240234375 c -70.5870487695423,6.9898073708273 -135.4522830409122,22.8283462288344 -197.3828125,48.193359375 -36.2456388671,14.8452001684005 -49.8831924681386,27.95416198010503 -50.0390625,48.103515625 -0.05902963461,7.63077397941754 1.7494490437374,13.05350134441737 17.96484375,53.841796875 9.917172603525,24.945712041419259 18.0312500000005,45.76173377541977 18.03125,46.2578125 0,0.49607872458023 -48.8415725140748,1.09994051372212 -108.5390625,1.341796875 -97.343749848849,0.39437512594162 -109.259722145473,0.68510149851693 -115.5078125,2.822265625 -15.84756923415,5.42067328374003 -30.226252626797,19.71028618669607 -35.744140625,35.5234375 C -1151.455490096906,90.85823166498248 -1151.625,99.64689942650315 -1151.625,216.5 v 125.158203125 l 4.4375,9.3671875 c 5.217840672468,11.0125717235418 12.232556543339,19.2065067223996 21.447265625,25.056640625 13.085846612004,8.3077994357394 16.600474107494,8.708984375 76.1953125,8.708984375 h 54.19140625 v 3.7109375 c 5e-13,2.0412711768381 1.5694187971426,11.466425983527 3.48828125,20.943359375 14.2894962557308,70.5733774776888 49.3052195554011,111.8967655361668 113.85546875,134.365234375 55.7913467996389,19.4196947755397 126.7002158179502,26.8735661445101 275.806640625,28.99609375 114.0632598919116,1.6236887056084 263.1952103288564,1.6536950239151 271.689453125,0.0546875 21.4657879416028,-4.0408494611175 38.5945597194313,-19.8250606360843 44.484375,-40.9921875 1.2930975772994,-4.647201849679 1.8060950455815,-24.1992519644463 1.8984375,-72.478515625 0.069550471475,-36.3629662129253 0.4641868809928,-66.1132812499999 0.876953125,-66.11328125 0.4127662440083,0 5.3318352405606,2.596324700711 10.931640625,5.76953125 5.5998053844393,3.1732065492885 14.0030252546413,6.7467551920329 18.673828125,7.943359375 20.5215831458113,5.2573857032616 43.7846633041448,-2.7170892163492 56.466796875,-19.357421875 8.9642226081252,-11.762030843785 102.68651977307378,-175.758068740524 105.03515625,-183.791015625 3.4056708519031,-11.6482790453587 1.9369457496605,-27.594287134193 -3.5703125,-38.75 -7.3147929268669,-14.8171242142141 -13.426409890117,-19.3902545950153 -67.939453125,-50.84765625 l -50.064453125,-28.890625 -8.814453125,-19.953125 -8.8125,-19.953125 137.3671875,-0.38671875 C 38.25693305438062,44.68778022816037 43.53421354294096,44.57290486149003 47.34765625,41.98828125 55.86357550253593,36.21647669845743 55.40625000000023,45.71418059306583 55.40625,-125.689453125 v -157.0703125 l -4.837890625,-5.28125 -4.83984375,-5.283203125 -32.63671875,-0.427734375 L -19.546875,-294.1796875 v -68.5859375 c 3.41e-12,-75.6947404640333 0.15613308293086,-74.287603377802 -8.908203125,-79.814453125 -4.34875419348145,-2.6515908571263 -7.67420684598942,-2.7625004575502 -84.216796875,-2.767578125 z m -75.873046875,17.673828125 h 75.66015625 75.66015625 v 66.466796875 66.46875 l -18.73828125,0.39453125 -18.73828125,0.39453125 v 8.443359375 8.4453125 H -18.1328125 38.435546875 v 90.509765625 90.509765625 H -23.08203125 -84.6015625 v 9.19140625 9.193359375 h 61.51953125 61.517578125 v 52.326171875 52.326171875 l -138.9453125,-0.015625 L -239.45703125,26.966796875 -252.509765625,1.171875 c -29.3523266030585,-58.007873406297157 -53.3438370840848,-90.555486654139244 -75.123046875,-101.916015625 -29.6104742007256,-15.4454938093567 -106.2487966309563,-37.6934257125108 -156.8359375,-45.52734375 l -6.01171875,-0.9296875 0.001953125,8.962890625 0.001953125,8.962890625 18.736328125,3.3359375 c 41.1300512517115,7.3234422055505 103.6464173101784,25.6778691062623 130.875,38.423828125 17.1459794837948,8.02619638069712 30.9532853933001,23.59639384456903 52.314453125,58.990234375 19.0593233163752,31.579858299441866 63.6536347846238,127.31111214386601 61.689453125,132.4296875 -0.4452295166227,1.1602495219529 2.0244029057945,3.6592551126454 6.369140625,6.447265625 6.994277630856,4.4882155889309 10.02734375,4.7014865097491 10.02734375,0.705078125 0,-1.1208217400415 0.5713892548968,-2.037109375 1.271484375,-2.037109375 2.1240065338592,0 86.8259355913428,49.3958265112452 90.302734375,52.662109375 10.0036608908269,9.3979514420314 13.6999166911937,29.1190933926038 7.888671875,42.08984375 -4.9564621713039,11.0628678559062 -98.1717854215751,171.6458763188269 -102.005859375,175.7265625 -6.478931208189,6.8956638216162 -16.6114600043178,10.9492187500001 -27.3671875,10.94921875 -10.9384311258452,0 -12.7179167363551,-0.6372953080477 -30.548828125,-10.96875 L -284.00390625,371.8984375 V 351.8125 331.7265625 l 23.333984375,-69.97265625 c 12.8339880751502,-38.4842873678703 23.333984375,-70.0711506133415 23.333984375,-70.193359375 0,-1.3904274511585 -14.6017944835604,-9.0786448820985 -15.4609375,-8.140625 -0.6352387680375,0.6935592595146 -12.0548918308679,34.034125263858 -25.375,74.091796875 l -24.216796875,72.83203125 -0.03125,98.2890625 c -0.030267230866,95.7822456141307 -0.1041699627418,98.4486541780165 -2.908203125,104.650390625 -3.5222690500337,7.7902731813924 -10.0505762217332,14.7992221328323 -17.568359375,18.86328125 -5.5327756595655,2.9909784445859 -7.0954948223078,3.0663162129608 -71.244140625,3.46484375 -72.0549623390034,0.4476460307635 -73.5744816294202,0.3020086356123 -83.703125,-8.046875 -2.7238682454143,-2.2452423476341 -6.841136731136,-7.4906071267897 -9.1484375,-11.65625 L -491.1875,528.333984375 -491.58984375,456.5625 -491.9921875,384.791015625 h 56.6171875 56.6171875 v -8.484375 -8.486328125 h -74.953125 -74.953125 v 8.486328125 8.484375 h 9.193359375 9.19140625 L -510.25,450.19921875 c 0.015407444763,35.9740574833752 0.6509613606842,69.7244638528295 1.4140625,75.001953125 1.4274088516027,9.8717385064958 6.5428111803659,21.9190450519161 11.6875,27.52734375 l 2.91796875,3.181640625 L -552.8125,555.6015625 c -73.7899575651996,-0.388988843489 -88.5059648379948,-0.6665483529007 -132.12109375,-2.5 -138.7217096918352,-5.8314523759897 -203.5873293901144,-21.3878405818455 -245.17578125,-58.80078125 -24.0593129421137,-21.6437402058737 -38.8593354431558,-54.1227047467417 -47.48828125,-104.20703125 l -0.9140625,-5.302734375 H -924 h 54.51171875 v -8.439453125 -8.4375 l -117.734375,-0.400390625 c -116.488762695348,-0.3957223097648 -117.8009663745761,-0.4319944311826 -124.09765625,-3.390625 -7.518351084583,-3.5326534712732 -15.762904288758,-11.5078334273376 -19.3515625,-18.71875 -2.414112577035,-4.8508281829341 -2.591454073614,-12.6035486952836 -2.9453125,-128.84375 l -0.375,-123.681640625 3.64453125,-7.44921875 c 2.004579159676,-4.09721222618555 6.224358592498,-9.65919961092857 9.37890625,-12.359375 11.321426301457,-9.6907195539369 5.579847096226,-9.30468749999988 138.74609375,-9.3046875 95.5256289305618,0 119.9608987529836,-0.36356571293953 119.390625,-1.76953125 -25.9112332532731,-63.882128164281027 -44.841796875,-113.91952519691371 -44.841796875,-118.53125 0,-6.89604609692009 6.5878672778088,-14.77530813751815 17.634765625,-21.095703125 18.8206593778648,-10.76809050417302 73.0236353412427,-29.76770351870969 112.810546875,-39.54296875 58.2605338369571,-14.3140582874751 107.2473615220254,-20.1868139873208 170.4296875,-20.431640625 l 39.951171875,-0.154296875 v -8.810546875 -8.80859375 l -27.724609375,-0.3828125 -27.72265625,-0.3828125 84.64453125,-60.458984375 84.64453125,-60.45703125 h 150.26171875 150.26171875 v -8.486328125 -8.484375 h -18.3984375 -18.3984375 l 0.3671875,-66.822265625 z M -490.48046875,15.46875 v 9.875 9.875 l 18.73828125,10.212890625 c 23.8158075541892,12.97998942817401 37.3041089396197,20.9421679746096 39.041015625,23.044921875 2.7340942285359,3.30998052542462 15.5533063040472,66.57442629180451 19.26171875,95.060546875 0.89523462115,6.8767327636834 0.6838204121939,7.4742613897467 -5.654296875,16.083984375 l -6.58203125,8.94140625 6.134765625,6.2578125 6.134765625,6.259765625 3.23828125,-3.95703125 c 1.7800761213428,-2.1765091727653 5.7566076269678,-7.688915153226 8.837890625,-12.25 4.9459496785671,-7.3212671949393 5.6015625,-9.2647653405201 5.6015625,-16.580078125 1e-13,-16.4269941385562 -15.2278895508261,-95.32936031762757 -20.572265625,-106.591796875 -1.3485542150341,-2.84186705430322 -4.4311625876909,-6.64894368813206 -6.849609375,-8.4609375 -5.6030337717148,-4.19800947257172 -26.2064731503278,-15.99323146565388 -49.298828125,-28.22265625 z m -76.9453125,1.626953125 c -1.1456490738256,2e-14 -41.5443807523664,18.19729647850848 -51.248046875,23.083984375 -14.4814035841133,7.29271789902564 -17.7336855395361,11.72515628480881 -24.6171875,33.55859375 -8.576259139479,27.2026097591859 -21.13671875,78.51907765784881 -21.13671875,86.35546875 5e-13,3.7468537179376 1.0720249527996,9.0617968103042 2.3828125,11.810546875 1.3107875472008,2.7487500646958 2.7721470897309,4.998046875 3.248046875,4.998046875 0.4758997852693,0 3.3391975623895,-2.5320105812001 6.361328125,-5.626953125 4.4710626354326,-4.5787836361517 5.5452537148267,-6.7531909139391 5.76953125,-11.66796875 0.4417479467568,-9.6803855819465 18.7509113075826,-79.32924188587894 24.9765625,-95.01171875 1.3583353766569,-3.42166023436768 4.7616776092696,-5.59582403417175 20.107421875,-12.84375 10.159417518535,-4.79837958688767 22.1189492077388,-10.26326838068945 26.578125,-12.14453125 l 8.107421875,-3.419921875 0.025390625,-9.544921875 c 0.013274597563,-5.25026784892504 -0.2367872977821,-9.546875 -0.5546875,-9.546875 z m -283.328125,123.037109375 40.931640625,102.8828125 c 37.1872924636939,93.4736360726816 48.0645836396787,118.8032680632624 52.08984375,121.291015625 4.1830920547758,2.5852930679211 -0.3109024613361,3.513671875 -17.00390625,3.513671875 h -18.384765625 v 8.486328125 8.484375 h 94.044921875 94.044921875 v -8.40234375 -8.40234375 l -60.45703125,-0.435546875 c -58.7640266459806,-0.4242747953402 -60.6168459168965,-0.5233513528186 -66.115234375,-3.482421875 -6.2324528482015,-3.3541223295741 -9.7143676226444,-6.826178972846 -15.384765625,-15.33984375 -2.0722143432816,-3.1112698364 -21.9677315237248,-51.3185504345747 -44.2109375,-107.126953125 l -40.44140625,-101.46875 h -9.556640625 z m 250.16015625,88.388671875 -5.75390625,5.58984375 c -3.1649003745116,3.0746717869053 -5.7515429455675,6.2558969914051 -5.748046875,7.0703125 0.013849932359,3.2263649971421 15.6771311131511,18.9030195667114 21.025390625,21.04296875 5.1719769253446,2.0694148765328 31.7357097353027,4.6457636036907 58.1640625,5.640625 44.582685107852,1.6782579206701 56.9309832979686,0.6517414025628 64.38671875,-5.3515625 l 4.203125,-3.384765625 -6.28125,-6.439453125 c -5.9054313202105,-6.0557115366101 -6.4336312633954,-6.3020356586727 -8.845703125,-4.119140625 -2.3065658988614,2.0874134496615 -6.6631738963023,2.2253863583048 -43.216796875,1.3671875 -22.358609698222,-0.5249310944495 -45.7423040771999,-1.5632196618859 -51.96484375,-2.306640625 -10.7111676799719,-1.2796875570802 -11.5399527450106,-1.6340044326543 -15.556640625,-6.64453125 -2.3334523772998,-2.9108126055071 -5.6316662551365,-6.906137381526 -7.328125,-8.87890625 z"
       id="path5996" />
  </g>
</svg>
