<?xml version="1.0" encoding="UTF-8" standalone="no"?>
<!-- Created with Inkscape (http://www.inkscape.org/) -->

<svg
   xmlns:dc="http://purl.org/dc/elements/1.1/"
   xmlns:cc="http://creativecommons.org/ns#"
   xmlns:rdf="http://www.w3.org/1999/02/22-rdf-syntax-ns#"
   xmlns:svg="http://www.w3.org/2000/svg"
   xmlns="http://www.w3.org/2000/svg"
   xmlns:sodipodi="http://sodipodi.sourceforge.net/DTD/sodipodi-0.dtd"
   xmlns:inkscape="http://www.inkscape.org/namespaces/inkscape"
   width="210mm"
   height="297mm"
   viewBox="0 0 210 297"
   version="1.1"
   id="svg8"
   inkscape:version="0.92.1 r15371"
   sodipodi:docname="intro level.svg">
  <defs
     id="defs2" />
  <sodipodi:namedview
     id="base"
     pagecolor="#ffffff"
     bordercolor="#666666"
     borderopacity="1.0"
     inkscape:pageopacity="0.0"
     inkscape:pageshadow="2"
     inkscape:zoom="0.500000000263815"
     inkscape:cx="119.6269563974187"
     inkscape:cy="1056.894206739338"
     inkscape:document-units="mm"
     inkscape:current-layer="layer3"
     showgrid="true"
     inkscape:window-width="1920"
     inkscape:window-height="1013"
     inkscape:window-x="-9"
     inkscape:window-y="-9"
     inkscape:window-maximized="1">
    <inkscape:grid
       type="xygrid"
       id="grid4485"
       units="cm"
       spacingx="10.00000002623867"
       spacingy="10.00000002623867" />
  </sodipodi:namedview>
  <metadata
     id="metadata5">
    <rdf:RDF>
      <cc:Work
         rdf:about="">
        <dc:format>image/svg+xml</dc:format>
        <dc:type
           rdf:resource="http://purl.org/dc/dcmitype/StillImage" />
        <dc:title></dc:title>
      </cc:Work>
    </rdf:RDF>
  </metadata>
  <g
     inkscape:label="Layer 1"
     inkscape:groupmode="layer"
     id="layer1">
    <g
       id="g5176">
      <rect
         transform="matrix(0.2645833333333333,0,0,0.2645833333333333,-90.00000225147877,-239.9999980462295)"
         y="480"
         x="151.1811065673828"
         height="151.1810913085938"
         width="151.1811065673828"
         id="rect4536"
         style="display:inline;opacity:1;vector-effect:none;fill:#cccccc;fill-opacity:1;stroke:#666666;stroke-width:37.7952766418;stroke-linecap:butt;stroke-linejoin:round;stroke-miterlimit:4;stroke-dasharray:none;stroke-dashoffset:0;stroke-opacity:1;paint-order:stroke markers fill" />
      <path
         sodipodi:nodetypes="cccccc"
         transform="scale(0.2645833333333333)"
         inkscape:connector-curvature="0"
         id="path4501"
         d="M -718.110238104593,-86.92913703170052 -453.5433082766831,-275.9055154803054 H 37.79527568972117 V 26.45669003746388 H -718.1102381047094 Z"
         style="opacity:1;vector-effect:none;fill:#cccccc;fill-opacity:1;stroke:#666666;stroke-width:37.7952766418;stroke-linecap:square;stroke-linejoin:round;stroke-miterlimit:4;stroke-dasharray:none;stroke-dashoffset:0;stroke-opacity:1;paint-order:stroke markers fill" />
      <path
         sodipodi:nodetypes="cccc"
         transform="scale(0.2645833333333333)"
         inkscape:connector-curvature="0"
         id="path4497"
         d="m -982.6771679328519,291.0236198655091 c 0,264.5669298280366 75.5905513795442,264.5669298280861 566.9291353459118,264.5669298280465 l -37.795275689743,-226.7716541383255 z"
         style="opacity:1;vector-effect:none;fill:#cccccc;fill-opacity:1;stroke:#666666;stroke-width:37.7952766418;stroke-linecap:square;stroke-linejoin:round;stroke-miterlimit:4;stroke-dasharray:none;stroke-dashoffset:0;stroke-opacity:1;paint-order:stroke markers fill" />
      <rect
         ry="37.7952995300293"
         rx="37.7952995300293"
         transform="matrix(0.2291358880846327,0.1322916666666666,-0.1322916666666666,0.2291358880846327,9.480765015149524,46.65578776132534)"
         y="64.25196838378906"
         x="-397.060302734375"
         height="264.5669555664062"
         width="283.6741333007812"
         id="rect4495"
         style="opacity:1;vector-effect:none;fill:#cccccc;fill-opacity:1;stroke:#666666;stroke-width:37.7952766418;stroke-linecap:square;stroke-linejoin:round;stroke-miterlimit:4;stroke-dasharray:none;stroke-dashoffset:0;stroke-opacity:1;paint-order:stroke markers fill" />
      <rect
         ry="37.7952995300293"
         rx="37.7952995300293"
         transform="scale(0.2645833333333333)"
         y="291.0236206054688"
         x="-491.3385925292969"
         height="264.5669250488281"
         width="188.9763793945312"
         id="rect4493"
         style="opacity:1;vector-effect:none;fill:#cccccc;fill-opacity:1;stroke:#666666;stroke-width:37.7952766418;stroke-linecap:square;stroke-linejoin:round;stroke-miterlimit:4;stroke-dasharray:none;stroke-dashoffset:0;stroke-opacity:1;paint-order:stroke markers fill" />
      <rect
         ry="37.7952995300293"
         rx="37.7952995300293"
         transform="matrix(0.2645833333333333,0,0,0.2645833333333333,-10.00000533452269,2.842170943040401e-13)"
         y="64.25196838378906"
         x="-1020.472412109375"
         height="302.3621826171875"
         width="377.9527587890625"
         id="rect4489"
         style="opacity:1;vector-effect:none;fill:#cccccc;fill-opacity:1;stroke:#666666;stroke-width:37.7952766418;stroke-linecap:square;stroke-linejoin:round;stroke-miterlimit:4;stroke-dasharray:none;stroke-dashoffset:0;stroke-opacity:1;paint-order:stroke markers fill" />
      <path
         transform="scale(0.2645833333333333)"
         style="opacity:1;vector-effect:none;fill:#cccccc;fill-opacity:1;stroke:#666666;stroke-width:37.7952766418;stroke-linecap:square;stroke-linejoin:round;stroke-miterlimit:4;stroke-dasharray:none;stroke-dashoffset:0;stroke-opacity:1;paint-order:stroke markers fill"
         d="m -718.1102180480957,-86.92913818359375 c 0,0 261.5584491296674,-48.21207952258445 377.9527053833008,0 16.4606462041152,6.81822290316973 27.3775887149397,23.34149939347253 37.7952995300293,37.79529953002929 32.9436701093359,45.706895879208111 75.5905589964532,151.18108007046876 75.5905589964532,151.18108007046876 l -75.5905589964532,226.7716253128321 c -6.6213667755045,19.8640957999 -16.8567035903932,37.7952995300293 -37.7952995300293,37.7952995300293 h -377.9527053833008 c -20.9385959396362,0 -37.7952995300293,-16.8567035903928 -37.7952995300293,-37.7952995300293 V -49.13383865356446 c 0,-20.93859593963633 16.8567035903931,-37.79529953002929 37.7952995300293,-37.79529953002929 z"
         id="rect4487"
         inkscape:connector-curvature="0"
         sodipodi:nodetypes="saacssssss" />
      <path
         inkscape:transform-center-y="-1.195394451221959"
         inkscape:transform-center-x="0.2544378928329398"
         transform="scale(0.2645833333333333)"
         d="m -413.6872092193495,170.7763482303141 c -1.6106025173479,6.010850425541 -61.9482167332561,76.1244301558377 -67.6518830767649,78.6129143428559 -5.7036663435087,2.4884841870181 -98.1405574572922,-0.9702602503401 -103.6423105367094,-3.878021650496 -5.5017530794172,-2.907761400156 -60.4310567134497,-77.3343248983098 -61.587964244664,-83.4487282437993 -1.1569075312143,-6.1144033454896 22.784262304527,-95.46406556511202 26.843375289133,-100.18084042568335 4.0591129846059,-4.71677486057135 88.8425670929437,-41.70741774933193 95.0611057251463,-41.47473645030216 6.2185386322027,0.23268129902976 88.0006068022744,43.45576630797118 91.6958846569542,48.46269000259913 3.6952778546798,5.00692369462794 20.892394704253,95.89587199928479 19.281792186905,101.9067224248258 z"
         inkscape:randomized="0"
         inkscape:rounded="0.06"
         inkscape:flatsided="true"
         sodipodi:arg2="0.7105983383119769"
         sodipodi:arg1="0.2617993877991494"
         sodipodi:r2="107.6830368041992"
         sodipodi:r1="119.519157409668"
         sodipodi:cy="139.8425140380859"
         sodipodi:cx="-529.1338500976562"
         sodipodi:sides="7"
         id="path4491"
         style="opacity:1;vector-effect:none;fill:#cccccc;fill-opacity:1;stroke:#666666;stroke-width:37.7952766418;stroke-linecap:square;stroke-linejoin:round;stroke-miterlimit:4;stroke-dasharray:none;stroke-dashoffset:0;stroke-opacity:1;paint-order:stroke markers fill"
         sodipodi:type="star" />
    </g>
    <path
       style="opacity:1;vector-effect:none;fill:#cccccc;fill-opacity:1;stroke:#666666;stroke-width:18.8976383209;stroke-linecap:square;stroke-linejoin:round;stroke-miterlimit:4;stroke-dasharray:none;stroke-dashoffset:0;stroke-opacity:1;paint-order:stroke markers fill"
       d="m -226.7716541383561,-86.92913703170052 h 113.3858270692144"
       id="path5152"
       inkscape:connector-curvature="0"
       transform="matrix(0.2645833333333333,0,0,0.2645833333333333,40.0000001049626,0)"
       sodipodi:nodetypes="cc" />
  </g>
  <g
     inkscape:groupmode="layer"
     id="layer2"
     inkscape:label="door"
     style="display:inline">
    <path
       transform="matrix(0.2645833333333333,0,0,0.2645833333333333,-90.00000023615031,-250.0000006559669)"
       inkscape:connector-curvature="0"
       id="path4703-6"
       d="M 226.771654138327,593.3858253832768 V 706.7716524524397"
       style="display:inline;opacity:1;vector-effect:none;fill:#808080;fill-opacity:1;stroke:#00ff00;stroke-width:75.5905532837;stroke-linecap:square;stroke-linejoin:round;stroke-miterlimit:4;stroke-dasharray:none;stroke-dashoffset:0;stroke-opacity:1;paint-order:stroke markers fill" />
    <path
       transform="scale(0.2645833333333333)"
       style="opacity:1;vector-effect:none;fill:#cccccc;fill-opacity:1;stroke:#00ff00;stroke-width:75.5905532837;stroke-linecap:square;stroke-linejoin:round;stroke-miterlimit:4;stroke-dasharray:none;stroke-dashoffset:0;stroke-opacity:1;paint-order:stroke markers fill"
       d="m -831.4960651738798,102.0472414169043 h 113.385827069171"
       id="path5136"
       inkscape:connector-curvature="0" />
    <path
       transform="scale(0.2645833333333333)"
       style="opacity:1;vector-effect:none;fill:#cccccc;fill-opacity:1;stroke:#00ff00;stroke-width:75.5905532837;stroke-linecap:square;stroke-linejoin:round;stroke-miterlimit:4;stroke-dasharray:none;stroke-dashoffset:0;stroke-opacity:1;paint-order:stroke markers fill"
       d="M -831.4960651738798,328.8188955552301 V 404.409446934672"
       id="path5138"
       inkscape:connector-curvature="0" />
    <path
       transform="scale(0.2645833333333333)"
       style="opacity:1;vector-effect:none;fill:#cccccc;fill-opacity:1;stroke:#00ff00;stroke-width:75.5905532837;stroke-linecap:square;stroke-linejoin:round;stroke-miterlimit:4;stroke-dasharray:none;stroke-dashoffset:0;stroke-opacity:1;paint-order:stroke markers fill"
       d="M -566.9291353457955,328.8188955552301 V 404.409446934672"
       id="path5140"
       inkscape:connector-curvature="0" />
    <path
       style="opacity:1;vector-effect:none;fill:#cccccc;fill-opacity:1;stroke:#00ff00;stroke-width:75.5905532837;stroke-linecap:square;stroke-linejoin:round;stroke-miterlimit:4;stroke-dasharray:none;stroke-dashoffset:0;stroke-opacity:1;paint-order:stroke markers fill"
       d="m -377.9527568971971,328.8188955552301 v 113.385827069163"
       id="path5142"
       inkscape:connector-curvature="0"
       transform="matrix(0.2645833333333333,0,0,0.2645833333333333,10.00000002623689,-5.684341886080802e-14)" />
    <path
       transform="scale(0.2645833333333333)"
       style="opacity:1;vector-effect:none;fill:#cccccc;fill-opacity:1;stroke:#00ff00;stroke-width:75.5905532837;stroke-linecap:square;stroke-linejoin:round;stroke-miterlimit:4;stroke-dasharray:none;stroke-dashoffset:0;stroke-opacity:1;paint-order:stroke markers fill"
       d="m -302.3622055177693,102.0472414169043 113.3858270691707,75.590551379442"
       id="path5144"
       inkscape:connector-curvature="0"
       sodipodi:nodetypes="cc" />
    <path
       transform="scale(0.2645833333333333)"
       style="opacity:1;vector-effect:none;fill:#cccccc;fill-opacity:1;stroke:#00ff00;stroke-width:75.5905532837;stroke-linecap:square;stroke-linejoin:round;stroke-miterlimit:4;stroke-dasharray:none;stroke-dashoffset:0;stroke-opacity:1;paint-order:stroke markers fill"
       d="m -529.1338596560525,-124.7244127214215 1e-13,188.97637844860474"
       id="path5146"
       inkscape:connector-curvature="0"
       sodipodi:nodetypes="cc" />
    <path
       transform="scale(0.2645833333333333)"
       style="opacity:1;vector-effect:none;fill:#cccccc;fill-opacity:1;stroke:#00ff00;stroke-width:75.5905532837;stroke-linecap:square;stroke-linejoin:round;stroke-miterlimit:4;stroke-dasharray:none;stroke-dashoffset:0;stroke-opacity:1;paint-order:stroke markers fill"
       d="m -642.5196867252234,215.4330684860672 37.7952756896848,-37.7952756897209"
       id="path5148"
       inkscape:connector-curvature="0" />
    <path
       transform="scale(0.2645833333333333)"
       style="opacity:1;vector-effect:none;fill:#cccccc;fill-opacity:1;stroke:#00ff00;stroke-width:75.5905532837;stroke-linecap:square;stroke-linejoin:round;stroke-miterlimit:4;stroke-dasharray:none;stroke-dashoffset:0;stroke-opacity:1;paint-order:stroke markers fill"
       d="m -453.5433082766249,215.4330684860672 37.7952756896848,37.795275689721"
       id="path5150"
       inkscape:connector-curvature="0"
       sodipodi:nodetypes="cc" />
  </g>
  <g
     inkscape:groupmode="layer"
     id="layer3"
     inkscape:label="src"
     style="display:inline">
    <path
       style="display:inline;opacity:1;vector-effect:none;fill:#cccccc;fill-opacity:1;stroke:#666666;stroke-width:37.7952766418;stroke-linecap:butt;stroke-linejoin:round;stroke-miterlimit:4;stroke-dasharray:none;stroke-dashoffset:0;stroke-opacity:1;paint-order:stroke markers fill"
       d="M -188.9765625 -427.0859375 L -188.9765625 -275.90625 L -453.54296875 -275.90625 L -718.109375 -86.9296875 C -739.0479709396362 -86.9296875 -755.90625 -70.07336156463634 -755.90625 -49.134765625 L -755.90625 64.251953125 L -1020.47265625 64.251953125 C -1041.411252189636 64.251953125 -1058.267578125 81.10827906036377 -1058.267578125 102.046875 L -1058.267578125 328.818359375 C -1058.267578125 349.7569553146363 -1041.411252189636 366.61328125 -1020.47265625 366.61328125 L -979.703125 366.61328125 C -962.4616193408575 549.9568240569654 -861.0522428222159 555.4226428778026 -453.80859375 555.583984375 C -453.7196709624056 555.5845934692234 -453.6320402527897 555.58984375 -453.54296875 555.58984375 L -340.158203125 555.58984375 C -319.2196071853638 555.58984375 -302.361328125 538.7335178146362 -302.361328125 517.794921875 L -302.361328125 360.767578125 L -259.50390625 385.51171875 C -241.3705502466973 395.9810167198182 -218.3442979698181 389.8110903783028 -207.875 371.677734375 L -113.38671875 208.01953125 C -102.9174207801819 189.8861752466973 -109.0873471216973 166.8599229698181 -127.220703125 156.390625 L -228.45703125 97.94140625 C -232.6564210853918 87.76537580632674 -245.0456387266446 58.27800262547368 -260.28125 26.45703125 L 37.794921875 26.45703125 L 37.794921875 -275.90625 L -37.794921875 -275.90625 L -37.794921875 -427.0859375 L -188.9765625 -427.0859375 z "
       transform="scale(0.2645833333333333)"
       id="rect4536-8" />
    <path
       transform="scale(0.2645833333333333)"
       inkscape:connector-curvature="0"
       style="opacity:1;vector-effect:none;fill:#ff0000;fill-opacity:1;stroke:none;stroke-width:18.8976383209;stroke-linecap:square;stroke-linejoin:round;stroke-miterlimit:4;stroke-dasharray:none;stroke-dashoffset:0;stroke-opacity:1;paint-order:stroke markers fill"
       d="m -113.220703125,-445.611328125 c -86.3582394743969,0.00242463166 -84.1880572186014,-0.2105425456555 -90.90234375,8.939453125 -2.8546713120451,3.8902465696402 -2.9398450195021,5.7466404247269 -3.322265625,73.1640625 l -0.392578125,69.171875 -126.1796875,0.375 -126.1796875,0.375 -131.328125,93.86328125 c -104.2392197412326,74.5005586451028 -132.7545275214897,94.2365993443469 -138.232421875,95.681640625 -24.1690735187397,6.37568136511084 -40.1370864135692,23.97992779265468 -43.62109375,48.087890625 -0.7833667515839,5.42059034543581 -1.437717555238,30.6847973678278 -1.453125,56.142578125 l -0.02734375,46.287109375 -130.4609375,0.380859375 -130.4609375,0.3828125 -8.486328125,4.15625 c -10.828847180194,5.30355715466237 -21.653474095338,16.12818406980578 -26.95703125,26.95703125 l -4.154296875,8.484375 -0.3984375,125.865234375 c -0.397755705483,125.8353641517075 -0.396642870787,125.8663263984804 2.65234375,134.349609375 5.618547962634,15.6326472406311 14.87826505834,25.5902475106046 30.646484375,32.955078125 7.315461355841,3.4168178834879 10.018809439655,3.838137099026 27.556640625,4.291015625 l 19.4453125,0.501953125 v 3.576171875 c 5e-13,7.3417064337261 7.1542497709096,38.5425634044576 12.0859375,52.7109375 9.3969103615578,26.9966284684829 20.3744383483101,45.1612534941166 37.724609375,62.41796875 48.1852509471991,47.9257036630916 127.046506995294,65.0550821679921 317.884765625,69.046875 27.6125197980504,0.5775752692095 106.5596195613205,0.987787367492 175.4375,0.912109375 l 125.232421875,-0.13671875 10.775390625,-5.326171875 c 16.1954628122572,-8.005171250058 26.8416167862914,-21.2021763647462 30.740234375,-38.103515625 0.8131843187252,-3.5253275652655 1.4135117489019,-33.4809335167269 1.43359375,-71.474609375 0.019014508219,-35.9740574833752 0.3187795744187,-65.408203125 0.666015625,-65.408203125 0.347236050581,-1e-13 4.3485454890364,2.1778039002882 8.890625,4.83984375 14.5697538781747,8.539098738934 19.6091017078287,10.0097656250001 34.318359375,10.009765625 12.1892879314389,-1e-13 14.3243512026743,-0.4212854255295 23.017578125,-4.5390625 16.5031387874004,-7.8171485873715 18.4193361520001,-10.5640303578925 70.7421875,-101.314453125 26.2890148484453,-45.5965061185134 49.51781821629482,-86.5705377228863 51.619140625,-91.0546875 3.35474180936308,-7.1589036857976 3.8203125,-9.8803234183719 3.8203125,-22.32421875 0,-13.1579128571244 -0.33122908122787,-14.8460444632678 -4.638671875,-23.595703125 -3.00135043947078,-6.0966083885257 -7.2462150094585,-11.7806364908459 -12.021484375,-16.095703125 -4.4489593592725,-4.0202038080688 -26.9733920458057,-17.993569119958 -56.69921875,-35.173828125 l -49.3203125,-28.50390625 -8.8671875,-20.072265625 L -231.5,45.119140625 -95.533203125,45.1171875 C 31.11947706866988,45.11514037505503 40.7662006266753,44.94585324840579 45.283203125,42.642578125 47.95027319075281,41.28260629919083 51.45157404070347,38.37176201189164 53.0625,36.17578125 c 2.92078965570454,-3.98155970883358 2.927734375,-4.42819155212305 2.927734375,-160.57421875 0,-148.5407986506267 -0.13011927428623,-156.782046119236 -2.55078125,-160.4765625 -1.40344252200271,-2.1419931568421 -4.58466772650264,-5.1347969715673 -7.0703125,-6.650390625 -4.11303894795992,-2.5078787573809 -7.28557088206206,-2.7569076125458 -35.279296875,-2.76171875 l -30.759765625,-0.005859375 -0.00390625,-68.94140625 c -0.004980895383,-64.9584600559579 -0.15944066571933,-69.1947387948842 -2.662109375,-73.298828125 -5.61952665831518,-9.2153784930325 -4.2580670969835,-9.0805571690367 -90.884765625,-9.078125 z M -189.375,-427.228515625 h 76.3671875 76.3671875 v 66.46875 66.466796875 H -55.732421875 -74.82421875 v 9.193359375 9.19140625 H -18.255859375 38.3125 v 89.802734375 89.802734375 H -23.205078125 -84.72265625 v 9.193359375 9.19140625 H -23.205078125 38.3125 V -25.591796875 26.734375 l -138.9453125,-0.029296875 -138.947265625,-0.03125 -14.849609375,-28.9296875 c -22.7467569081149,-44.31500121129541 -37.0106341690549,-65.98671442903111 -55.861328125,-84.876953125 -13.3548045424399,-13.3828200773017 -22.5240912656307,-18.05464052337619 -50.14453125,-25.544921875 -30.7432272418918,-8.3371380698131 -62.6250552978286,-12.2740112192743 -105.771484375,-13.060546875 l -24.39453125,-0.4453125 v 8.3671875 8.365234375 l 27.22265625,1.08984375 c 32.4209592904454,1.29632218343 48.7406431507513,2.8107295755483 69.650390625,6.466796875 26.2152929368581,4.58374140433926 49.1678348116097,11.35384083574849 60.251953125,17.771484375 10.7931065314073,6.24914931808905 28.7144261927655,28.3736623630665 45.12109375,55.703125 9.2943479553257,15.4820919174249 37.9927498742778,73.78566087130525 49.771484375,101.115234375 11.8502770050638,27.49556978546209 12.6743849327894,29.6344918616722 12.162109375,31.58203125 -0.618181462174,2.3501662892364 12.8135685475091,10.8954158274912 14.490234375,9.21875 0.7393339131115,-0.7393339131111 1.34375,-2.1748075392526 1.34375,-3.19140625 0,-1.1746985876572 0.9017401034275,-1.5060049681597 2.474609375,-0.91015625 7.6695044308063,2.9054317905567 85.3263829694873,49.1418992969664 89.61328125,53.35546875 6.8079373391298,6.6914852961929 10.475672188678,16.5355651798287 10.310546875,27.669921875 -0.1614023670159,10.883319375921 3.0647921287795,4.7257679559737 -55.732421875,106.439453125 -48.9127882587119,84.6145524066166 -51.0998683096473,87.7645092898304 -63.873046875,92.001953125 -3.3698164714305,1.1179212722545 -9.8470924716597,1.961262860051 -14.392578125,1.873046875 -8.3283648717874,-0.1616317742613 -13.0241672616096,-2.136817297252 -35,-14.72265625 l -6.232421875,-3.5703125 0.103515625,-22.59375 0.103515625,-22.59375 22.880859375,-67.873046875 22.87890625,-67.875 -3.091796875,-2.33203125 c -6.6561155957643,-5.0207173973395 -11.3760641082041,-7.2298013039843 -12.27734375,-5.748046875 -0.4944511757789,0.8129055463494 -11.5907437971683,33.8237307307525 -24.658203125,73.359375 l -23.759765625,71.8828125 -0.28125,99.03515625 -0.283203125,99.03515625 -3.53515625,6.767578125 c -4.3241862366227,8.2763638258259 -11.1513708036426,15.3771105700682 -18.109375,18.837890625 -4.8574329927708,2.4159955563615 -10.0790849459081,2.599609375 -73.92578125,2.599609375 h -68.701171875 l -6.771484375,-4.2421875 c -8.1567684934093,-5.1099340951552 -11.8801617808536,-9.3166284269695 -15.6328125,-17.658203125 -2.6891463426343,-5.9775653983922 -2.8486024384787,-9.7895118642419 -3.220703125,-77.400390625 l -0.390625,-71.11328125 h 56.60546875 56.607421875 v -8.484375 -8.484375 h -74.953125 -74.955078125 v 8.419921875 8.419921875 l 9.546875,0.41796875 9.546875,0.419921875 0.70703125,74.24609375 0.70703125,74.24609375 4.94921875,8.837890625 c 2.7223611068501,4.8614800204321 5.8231135386795,9.7943322124077 6.890625,10.9609375 1.7231385303839,1.8830922136545 -5.41886543606,2.0869628315713 -63.640625,1.8203125 -105.5932449611208,-0.4836074002482 -166.7921927477293,-2.8545934050823 -214.072265625,-8.294921875 -84.5699573033728,-9.7311259991405 -128.1410324251762,-25.310213390885 -159.986328125,-57.203125 -17.2219729391084,-17.2477236782135 -29.0745082850611,-39.1068617156445 -36.56640625,-67.44140625 -3.3416495449245,-12.6382017336561 -7.9870187473293,-36.7512625026873 -7.2265625,-37.51171875 0.2025314502368,-0.2025314502324 24.6570503110192,-0.3691406249998 54.34375,-0.369140625 h 53.9765625 v -8.4296875 -8.4296875 l -80.296875,-0.408203125 -80.296875,-0.408203125 -6.84765625,-3.537109375 c -3.765777441265,-1.9445436477499 -9.324544221298,-6.3319200914444 -12.353515625,-9.75 -10.145416358177,-11.4487194482688 -9.817382909727,-6.5355938643971 -9.38671875,-141.017578125 l 0.3828125,-120.130859375 3.537109375,-6.849609375 c 4.749575558937,-9.19973941284049 14.226577284089,-17.3561763537117 23.193359375,-19.962890625 6.169187069172,-1.79343133494456 26.858349334545,-2.1015625 141.16015625,-2.1015625 h 133.93359375 l 0.408203125,-61.87109375 0.41015625,-61.873046875 3.53515625,-6.173828125 c 5.4081772625962,-9.44302865176877 14.0873585679313,-16.67899014934846 22.83984375,-19.04296875 15.7021382515456,-4.24102618158912 87.5601217783366,-13.69655818144696 148.177734375,-19.498046875 7.3323257755127,-0.7017499248465 13.5357149242878,-1.4810274242587 13.787109375,-1.732421875 0.2513944507124,-0.2513944507413 0.45703125,-4.1323560842488 0.45703125,-8.625 v -8.169921875 l -15.201171875,1.05859375 c -27.038476264241,1.8794340684842 -97.9389290574779,9.9664962964271 -101.470703125,11.57421875 -4.8974968375715,2.2294222341325 20.3845197724607,-16.1504113797119 118.591796875,-86.21484375 L -454.5390625,-275.90625 l 151.673828125,-0.001953125 h 151.673828125 v -9.19140625 -9.193359375 H -170.283203125 -189.375 v -66.466796875 z M -490.6015625,15.45703125 v 9.947265625 c -1e-13,9.38995195058357 0.2172565329204,10.06625345604803 3.888671875,12.083984375 2.138998012525,1.17554730895795 12.7980555725999,6.95482511499944 23.6875,12.84375 32.3086220997595,17.47224571022306 30.6014944908596,15.78454461265171 35.009765625,34.611328125 4.6141284865778,19.70595625169 11.605072071475,56.99051588846871 13.83203125,73.76953125 l 1.65625,12.478515625 -6.640625,8.548828125 -6.638671875,8.55078125 6.080078125,6.1953125 c 3.3443028767689,3.4075963697896 6.2286564745633,6.1953125 6.41015625,6.1953125 0.8970534681549,0 13.1316572223466,-16.8865008629006 15.328125,-21.15625 2.0673049765205,-4.01866748487 2.3727787282135,-7.0527663866456 1.705078125,-16.970703125 -1.501697767381,-22.3060206705405 -15.1702197287499,-90.64078362885203 -20.287109375,-101.423828125 -3.3072621026863,-6.96953752751476 -16.1242541261349,-15.13873788838042 -60.244140625,-38.40234375 z m -78.3671875,2.609375 c -2.3139569308981,0.13724941769256 -7.1558968683217,2.5306330452976 -17.185546875,6.9609375 -26.6566236348521,11.77478360243672 -44.1798959872453,21.33292436350836 -47.783203125,26.0625 -4.278580093558,5.61591543425368 -8.358453747611,17.58646920303749 -17.724609375,52.01171875 -13.2591149757304,48.7337985797095 -14.8867130614803,59.3542699316554 -10.505859375,68.541015625 1.3107875472012,2.7487500646957 2.7703791960186,4.998046875 3.2421875,4.998046875 2.0233594737571,0 13.0055490471887,-12.6005907632073 12.166015625,-13.958984375 -1.6834083473505,-2.723811922959 11.5648115904351,-56.3267052660767 21.921875,-88.693359375 l 4.11328125,-12.8515625 20.8671875,-10.0234375 c 11.4768941891951,-5.51252117492812 23.5712289238251,-11.09414973143991 26.876953125,-12.404296875 l 6.009765625,-2.3828125 v -9.7109375 c 0,-5.96187347017067 0.6244376466854,-8.70437746505157 -1.998046875,-8.548828125 z m -206.046875,121.8046875 0.435546875,100.056640625 c 0.4342832291034,99.8078829590264 0.4425422330736,100.0744878576016 3.59375,107.787109375 1.7374660443475,4.2524704781524 5.1174430668721,10.4558596269275 7.509765625,13.787109375 l 4.349609375,6.05859375 h -17.05859375 -17.05859375 v 8.484375 8.484375 h 94.044921875 94.044921875 v -8.4140625 -8.416015625 l -61.1640625,-0.423828125 c -68.0909632551191,-0.4711236658212 -66.0300846237049,-0.1919567699322 -77.375,-10.44140625 -3.2534960072672,-2.9393381840261 -7.3003782837156,-7.933328719993 -8.994140625,-11.09765625 -3.0688186807515,-5.7332408446042 -3.0819452025456,-6.1022277184159 -3.470703125,-105.80859375 L -756.546875,139.87109375 h -9.234375 z m 174.498046875,89.458984375 c -1.1638444553018,-0.1369928305308 -2.6901629943702,1.357074404503 -6.681640625,5.3125 l -6.44140625,6.3828125 8.771484375,9.71875 c 4.8240676361537,5.3450109027613 10.795836661417,10.5640806565878 13.26953125,11.59765625 4.1083098158736,1.7165614443512 28.5891642159939,4.2167785614217 51.5,5.259765625 23.8435892507537,1.0854494952633 57.8040463714846,0.799898186166 62.576171875,-0.525390625 2.9155343688572,-0.8096863912675 7.0530802597073,-2.9982341512048 9.193359375,-4.865234375 l 3.890625,-3.39453125 -5.94921875,-6.00390625 c -5.5970033283119,-5.64814443759 -6.1596905143099,-5.8923777273997 -9.505859375,-4.1015625 -2.8635779707787,1.5325404211248 -11.6272929022886,1.7280692376661 -44.962890625,1 -22.7730628979292,-0.4973772086326 -45.8282069667652,-1.5033365548388 -51.234375,-2.236328125 -10.5534602927571,-1.4308836468026 -9.0440485962268,-0.3246188253388 -22.267578125,-16.314453125 -0.8916220407611,-1.0781454874568 -1.4598964518188,-1.7478824266815 -2.158203125,-1.830078125 z"
       id="path5853" />
  </g>
</svg>
