<?xml version="1.0" encoding="UTF-8" standalone="no"?>
<!-- Created with Inkscape (http://www.inkscape.org/) -->

<svg
   xmlns:dc="http://purl.org/dc/elements/1.1/"
   xmlns:cc="http://creativecommons.org/ns#"
   xmlns:rdf="http://www.w3.org/1999/02/22-rdf-syntax-ns#"
   xmlns:svg="http://www.w3.org/2000/svg"
   xmlns="http://www.w3.org/2000/svg"
   xmlns:sodipodi="http://sodipodi.sourceforge.net/DTD/sodipodi-0.dtd"
   xmlns:inkscape="http://www.inkscape.org/namespaces/inkscape"
   width="210mm"
   height="297mm"
   viewBox="0 0 210 297"
   version="1.1"
   id="svg4909"
   inkscape:version="0.92.1 r15371"
   sodipodi:docname="level1.svg">
  <defs
     id="defs4903" />
  <sodipodi:namedview
     id="base"
     pagecolor="#ffffff"
     bordercolor="#666666"
     borderopacity="1.0"
     inkscape:pageopacity="0.0"
     inkscape:pageshadow="2"
     inkscape:zoom="0.4161848216390899"
     inkscape:cx="161.9004090259124"
     inkscape:cy="359.1203649192976"
     inkscape:document-units="mm"
     inkscape:current-layer="layer1"
     showgrid="false"
     inkscape:window-width="1920"
     inkscape:window-height="1013"
     inkscape:window-x="-9"
     inkscape:window-y="-9"
     inkscape:window-maximized="1" />
  <metadata
     id="metadata4906">
    <rdf:RDF>
      <cc:Work
         rdf:about="">
        <dc:format>image/svg+xml</dc:format>
        <dc:type
           rdf:resource="http://purl.org/dc/dcmitype/StillImage" />
        <dc:title></dc:title>
      </cc:Work>
    </rdf:RDF>
  </metadata>
  <g
     inkscape:label="Layer 1"
     inkscape:groupmode="layer"
     id="layer1">
    <path
       transform="scale(0.2645833333333333)"
       inkscape:connector-curvature="0"
       style="display:inline;opacity:1;vector-effect:none;fill:#cccccc;fill-opacity:1;stroke:#808080;stroke-width:37.7952766418;stroke-linecap:butt;stroke-linejoin:round;stroke-miterlimit:4;stroke-dasharray:none;stroke-dashoffset:0;stroke-opacity:1;paint-order:stroke markers fill"
       d="m 188.9765625,404.41015625 v 151.1796875 H 75.58984375 -566.9296875 V 744.56640625 857.953125 H -718.109375 c -20.9385811462402,0 -37.796875,16.8563407287597 -37.796875,37.794921875 V 1235.90625 c 0,20.93858114624 16.8582938537598,37.794921875 37.796875,37.794921875 h 453.54296875 c 20.9385811462402,0 37.794921875,-16.85634072876 37.794921875,-37.794921875 V 895.748046875 c 0,-20.9385811462403 -16.8563407287598,-37.794921875 -37.794921875,-37.794921875 H -415.748046875 V 744.56640625 H 0 v 302.36328125 c 0,20.938587486267 16.85633438873291,37.794921875 37.794921875,37.794921875 h 453.54296875 c 20.9385874862671,0 37.796875,-16.856334388733 37.796875,-37.794921875 V 593.38671875 c 0,-20.9385874862674 -16.8582875137329,-37.796875 -37.796875,-37.796875 h -151.1796875 v -151.1796875 z"
       id="rect4506-1" />
    <path
       transform="scale(0.2645833333333333)"
       inkscape:connector-curvature="0"
       style="display:inline;opacity:1;vector-effect:none;fill:#808080;fill-opacity:1;stroke:none;stroke-width:75.5905532837;stroke-linecap:square;stroke-linejoin:round;stroke-miterlimit:4;stroke-dasharray:none;stroke-dashoffset:0;stroke-opacity:1;paint-order:stroke markers fill"
       d="m 182.033203125,386.51171875 -3.7578125,2.6796875 c -7.840518627117,5.592696451918 -7.6562500000006,3.6843919239579 -7.65625,79.49609375 v 68.599609375 h -371.65234375 -371.65234375 l -4.017578125,2.70703125 c -2.2094743074825,1.4889645207903 -5.0516970013412,4.4790498199968 -6.31640625,6.64453125 -2.2290327711235,3.8166314335537 -2.3025631798027,8.3515553062786 -2.38671875,148.06640625 l -0.0859375,144.130859375 -65.556640625,0.037109375 c -36.0564407191411,0.020401532604 -69.5408720103199,0.5534146623015 -74.41015625,1.185546875 -24.4357063739265,3.1722520967498 -44.2652841893492,22.4571488769107 -48.15234375,46.83203125 -1.7326286111507,10.8649270570954 -1.7141725726759,347.3042693754101 0.01953125,357.990234375 3.3212290941862,20.470934765151 18.5685374131785,38.308201827296 38.078125,44.544921875 6.5869359007557,2.105676247762 17.4309361355484,2.205845014626 243.759765625,2.267578125 229.1971385200874,0.06251546602 237.1053070179612,-0.0085348643 244.181640625,-2.2109375 19.961285242778,-6.212650458711 35.0984810468605,-23.809267217037 38.49609375,-44.748046875 1.7117697525699,-10.549280570165 1.7062504407374,-347.1074917262654 -0.005859375,-357.84375 -3.8870595606377,-24.3748823730828 -23.714684251075,-43.6597791532654 -48.150390625,-46.83203125 -4.8692842396704,-0.632132212695 -38.4520703225214,-1.1651453423948 -74.62890625,-1.185546875 L -397.63671875,838.8359375 V 800.98828125 763.140625 l 189.517578125,0.302734375 189.51953125,0.3046875 0.6015625,148.97265625 0.599609375,148.97265625 4.369140625,9.1484375 c 5.02506730624134,10.52243784488 14.059340674879763,20.308706647486 23.40234375,25.3515625 13.66430621217611,7.37526531872 -1.946443636674871,6.947265625 253.546875,6.947265625 168.317699808686,0 235.134565055452,-0.376475987161 239.7265625,-1.3515625 14.7391042271036,-3.129771285096 30.8438939696548,-15.346449698764 37.470703125,-28.423828125 7.0583198598542,-13.928923814904 6.703125,-0.523189714317 6.703125,-253.15234375 0,-252.6895564832536 0.3576264192913,-239.2170839051419 -6.71875,-253.181640625 -6.5533649422528,-12.9324432477262 -22.2931827372475,-25.1653362908532 -36.630859375,-28.470703125 -3.2244860552635,-0.7433637634271 -32.4354796731002,-1.2261776066817 -75.21484375,-1.244140625 L 359.3125,537.287109375 l -0.337890625,-68.78125 c -0.325751721082,-66.2942065910212 -0.4242795595935,-68.925544856638 -2.740234375,-72.857421875 -1.3215282530589,-2.2436044661795 -3.9293664042709,-5.2168236452685 -5.794921875,-6.607421875 -3.3709781608784,-2.512750940153 -3.9004006621553,-2.529296875 -85.8984375,-2.529296875 z m 6.607421875,17.40234375 75.98828125,0.30859375 75.986328125,0.310546875 v 75.6875 75.6875 l -38.25390625,0.15625 V 574.3984375 c 22.2916546994362,-0.1633555799108 39.5490055590835,-0.5034516396743 41.859375,-1.037109375 6.348964926226,-1.4665075568385 13.81640625,-9.2515231866545 13.81640625,-14.404296875 v -3.650390625 h 69.373046875 c 77.7332967348896,0 77.1571571625961,-0.055060270783 87.8046875,8.361328125 4.3222829575188,3.4165680654747 7.133034395297,7.035273246772 10.013671875,12.88671875 l 4.005859375,8.13671875 v 235.6171875 235.619140625 l -4.205078125,8.244140625 c -4.8327415268812,9.474237585932 -12.2133987904274,15.878632142741 -21.90234375,19.0078125 -5.4471508229765,1.759233583161 -27.6563451573284,1.93226303814 -238.63671875,1.859375 C 21.05691363803624,1084.954962842462 28.36064328133989,1085.105417049746 18.5,1079.96484375 12.84536225575062,1077.016954958319 4.491927435875141,1067.034039182034 2.119140625,1060.388671875 0.1362085655300689,1054.835154879844 0.0100363667526153,1040.540703022609 0.015625,820.126953125 0.0173347003420789,752.6969668334229 -0.0341935175774191,704.2451431832298 0.0546875,668.9765625 H -17.755859375 L -18.0625,745.126953125 h -42.546875 c -23.40059253208562,-5e-13 -42.7964930716887,-0.4048175301031 -43.1015625,-0.900390625 -0.2256112215275,-0.3664964133407 -6.641849391331,-16.2949581816672 -15.134765625,-37.455078125 h -19.337890625 c 8.2470575410184,20.7768036881826 13.9068099709977,35.154046423562 14.103515625,35.90625 0.6397428327089,2.4463803503972 0.5750829624019,2.4484139991531 -83.8984375,2.431640625 L -292.515625,745.09375 -322.91796875,668.9765625 h -17.240234375 -2.166015625 c 16.0194773215698,40.0822634680314 29.1625179044514,73.0708030052825 29.474609375,74.046875 0.6373506700565,1.9933263115566 -5.9404795796839,2.103515625 -126.755859375,2.103515625 h -13.9375 V 763.1484375 h 37.884765625 v 66.67578125 66.677734375 h -37.884765625 v 17.384765625 c 41.4413482965382,-0.086262950776 44.4219211280479,-0.4886929385466 47.107421875,-2.478515625 1.8655554707354,-1.3822839568076 4.6089838403091,-4.2999313659755 6.095703125,-6.484375 2.5539775018921,-3.7525711497117 2.703125,-5.1559642670856 2.703125,-25.419921875 v -21.447265625 h 71.2890625 71.291015625 l 7.326171875,3.66015625 c 8.5329149103471,4.2639479009825 13.8023892622258,9.807979465017 18.166015625,19.111328125 l 3.125,6.6640625 v 178.431640625 178.4296875 l -3.955078125,8.03515625 c -4.6534364485203,9.452471565611 -11.1480478967029,15.504985257791 -20.322265625,18.9375 -6.3773129465345,2.386058555941 -9.0082071868396,2.411049760775 -240.974609375,2.35546875 -226.4858442878725,-0.05426782514 -234.72504399573,-0.132690229561 -240.298828125,-2.310546875 -9.0690163077275,-3.543556222363 -15.8042283328502,-9.83898260516 -20.296875,-18.96484375 l -3.96484375,-8.052734375 V 1065.923828125 887.4921875 l 3.125,-6.6640625 c 4.3636263627714,-9.3033486599764 9.6331007146518,-14.8473802240067 18.166015625,-19.111328125 l 7.32421875,-3.66015625 h 71.291015625 71.291015625 v 21.447265625 c 0,20.263957607911 0.1491474981081,21.6673507252852 2.703125,25.419921875 1.486719284691,2.1844436340263 4.2301476542655,5.1020910431924 6.095703125,6.484375 2.6857458860198,1.99000432233 5.6685779882019,2.3923047240538 47.12109375,2.478515625 v -17.384765625 h -37.8984375 V 829.82421875 763.1484375 h 37.8984375 v -18.021484375 h -37.8984375 v -94.91796875 -94.91796875 l 89.740234375,0.30859375 89.740234375,0.30859375 14.99609375,37.478515625 h 19.529296875 c -8.6547636007569,-21.8332550976085 -14.576171875,-36.8981218289802 -14.576171875,-37.181640625 -1e-13,-0.4936972662845 38.0085793195648,-0.8984375 84.462890625,-0.8984375 h 84.462890625 l 30.34375,75.875 h 17.15234375 v -5.23828125 c -14.6953408450607,-36.8181469717885 -27.8027343749999,-69.7505184354939 -27.802734375,-70.0390625 0,-0.3285177103885 39.4619425189305,-0.59765625 87.693359375,-0.59765625 H -3.59765625 L -7.693359375,560.671875 c -2.252334004992463,2.9507180716957 -5.35769528301751,8.4923388997707 -6.900390625,12.314453125 l -2.8046875,6.94921875 -0.0546875,13.451171875 H 1.16015625 c 1.171036538826176,-21.688610413039 3.506942841869615,-19.7548519463249 8.154296875,-24.923828125 3.00672473381996,-3.3442015422442 8.228597989022659,-7.5378079310844 11.603515625,-9.318359375 l 6.134765625,-3.236328125 71.642578125,-0.3359375 71.642578125,-0.337890625 0.8359375,4.45703125 c 1.0630893417778,5.6667533775671 7.0887563485099,11.7763244125968 13.318359375,13.505859375 1.9713252788088,0.5473022883594 19.5545039753305,0.9259864222659 42.279296875,1.1328125 V 556.37109375 l -38.130859375,0.15625 v -76.306640625 z"
       id="path6276" />
  </g>
</svg>
