<?xml version="1.0" encoding="UTF-8" standalone="no"?>
<!-- Created with Inkscape (http://www.inkscape.org/) -->

<svg
   xmlns:dc="http://purl.org/dc/elements/1.1/"
   xmlns:cc="http://creativecommons.org/ns#"
   xmlns:rdf="http://www.w3.org/1999/02/22-rdf-syntax-ns#"
   xmlns:svg="http://www.w3.org/2000/svg"
   xmlns="http://www.w3.org/2000/svg"
   xmlns:sodipodi="http://sodipodi.sourceforge.net/DTD/sodipodi-0.dtd"
   xmlns:inkscape="http://www.inkscape.org/namespaces/inkscape"
   width="210mm"
   height="297mm"
   viewBox="0 0 210 297"
   version="1.1"
   id="svg4780"
   inkscape:version="0.92.1 r15371"
   sodipodi:docname="level2.svg">
  <defs
     id="defs4774" />
  <sodipodi:namedview
     id="base"
     pagecolor="#ffffff"
     bordercolor="#666666"
     borderopacity="1.0"
     inkscape:pageopacity="0.0"
     inkscape:pageshadow="2"
     inkscape:zoom="0.2942871096855527"
     inkscape:cx="259.3034441028776"
     inkscape:cy="1260.294417779729"
     inkscape:document-units="mm"
     inkscape:current-layer="layer1"
     showgrid="false"
     inkscape:window-width="1920"
     inkscape:window-height="1013"
     inkscape:window-x="-9"
     inkscape:window-y="-9"
     inkscape:window-maximized="1" />
  <metadata
     id="metadata4777">
    <rdf:RDF>
      <cc:Work
         rdf:about="">
        <dc:format>image/svg+xml</dc:format>
        <dc:type
           rdf:resource="http://purl.org/dc/dcmitype/StillImage" />
        <dc:title></dc:title>
      </cc:Work>
    </rdf:RDF>
  </metadata>
  <g
     inkscape:label="Layer 1"
     inkscape:groupmode="layer"
     id="layer1">
    <path
       transform="scale(0.2645833333333333)"
       inkscape:connector-curvature="0"
       style="display:inline;opacity:1;vector-effect:none;fill:#cccccc;fill-opacity:1;stroke:#808080;stroke-width:37.7952766418;stroke-linecap:square;stroke-linejoin:round;stroke-miterlimit:4;stroke-dasharray:none;stroke-dashoffset:0;stroke-opacity:1;paint-order:stroke markers fill"
       d="m 226.771484375,-653.857421875 c -20.9385959396362,0 -37.794921875,16.8563259353637 -37.794921875,37.794921875 v 113.384765625 H -37.794921875 c -9.82146342548826,0 -18.74621683932873,3.7094324794493 -25.453125,9.80859375 -2.4829874530793,0.8087281788482 -4.92324699677295,1.8819214685815 -7.279296875,3.2421875 l -176.134765625,101.69140625 c -14.851461445527,8.5744952634345 -21.6713400675613,25.5722707558857 -17.904296875,41.40625 V -86.9296875 c -66.9815189495051,30.93978291286248 -154.5595495968714,68.21327062495811 -160.806640625,76.046875 -9.8154783735656,12.308220575637278 -61.887869297911,240.45463435912461 -58.384765625,255.802734375 3.5031036729108,15.3481000158755 149.4080196716067,198.3061716500251 163.591796875,205.13671875 14.1837772033932,6.830547099975 248.19512904660678,6.8305470999749 262.37890625,0 8.16337454053744,-3.9312739825425 59.903008576389943,-66.1555548691294 103.0703125,-121.23828125 H 566.9296875 c 20.9385959396362,0 37.794921875,-16.8563259353639 37.794921875,-37.794921875 v -75.58984375 c 0,-20.9385959396362 -16.8563259353638,-37.794921875 -37.794921875,-37.794921875 V 26.45703125 H 415.748046875 V 177.638671875 H 95.03515625 C 80.00688052916433,104.460770897321 54.06090492342702,-2.555283154182243 47.419921875,-10.8828125 41.17282144716038,-18.71642866190655 -46.40516129221756,-55.98989726545165 -113.38671875,-86.9296875 V -290.3125 L -7.412109375,-351.49609375 H 226.771484375 642.51953125 1096.0625 c 20.938595939636,0 37.794921875,-16.8563259353639 37.794921875,-37.794921875 V -464.8828125 c 0,-20.9385959396361 -16.856325935364,-37.794921875 -37.794921875,-37.794921875 h -37.794921875 v -151.1796875 H 907.0859375 v 151.1796875 H 680.314453125 V -616.0625 c 0,-20.9385959396355 -16.8563259353638,-37.794921875 -37.794921875,-37.794921875 z"
       id="rect4543-3" />
    <path
       style="display:inline;opacity:1;vector-effect:none;fill:#666666;fill-opacity:1;stroke:none;stroke-width:11.1226625443;stroke-linecap:square;stroke-linejoin:round;stroke-miterlimit:4;stroke-dasharray:none;stroke-dashoffset:0;stroke-opacity:1;paint-order:stroke markers fill"
       d="M 127.4973244786915,674.952224457764 C 107.4907709899433,673.9628218761456 105.1242966879616,673.2375540470814 97.19095511708248,665.664046388258 86.48952492129453,655.4480027672874 48.53138888800031,609.2869981480364 23.71829291695184,576.3137185366997 9.606254933913421,557.5607110585741 3.20923238902802,547.6322257823776 2.375667259522103,543.1889416411453 0.8440863046472115,535.0249132684099 13.99864946951918,470.3018898424741 28.05589938684912,416.8371772588095 33.80498741460061,394.9713542258855 36.2475590002654,388.047675884508 39.63092622842217,384.0267723911666 42.74696408899671,380.3235718001405 60.4063603829753,371.4147249587842 100.25,353.4455432876546 L 131,339.577524660382 v -78.7512497230807 c 1e-13,-78.1771536376698 0.015701116463,-78.7932147172112 2.1537902364024,-84.5077699578973 3.9506719412249,-10.5591169401767 6.9479367119969,-12.6678618731683 66.3977819145686,-46.7145870927409 C 229.223207467937,112.6110727243277 255.1123140051785,97.69194363982427 257.0829200115077,96.4502976988777 265.8452762267249,90.92928335465626 264.8476510209602,91 333.9722342159865,90.99999999999994 l 63.9023397655364,-6e-14 0.3127130092385,-32.24999999999994 L 398.5,26.5 401.4320839318767,20.70952091011054 C 404.8569527412448,13.94585667435742 411.2259394265213,7.71037698065774 417.8243299669305,4.660889889732064 L 422.5,2.5 h 131 131 l 6.2852183751297,3.408096504906668 c 7.3825436413077,4.003110103671374 11.5306336207495,8.407162120768731 15.1136686667838,16.04627269600467 L 708.5,27.5 708.8244257111307,59.25 709.1488514222617,91 H 765.0744257111307 821 V 49.89999999999998 8.799999999999954 L 824.3999999999997,5.399999999999979 827.7999999999999,2 l 48.2000000000113,-1.14e-13 48.2000000000113,-1.14e-13 3.3999999999885,3.400000000011631 3.3999999999885,3.400000000011628 V 49.76891893202981 90.73783786403656 l 10.2841332232272,0.45738388612831 c 9.2932781763617,0.41331589108313 10.8910959733707,0.78089166276074 16.5838294338524,3.81508699735923 6.2182829962777,3.31431031990043 11.3751597763751,8.5172715833634 14.4503375169827,14.5794731095767 3.0656046138505,6.0433296987812 3.8941143159343,15.6991361895053 3.5329790325776,41.1748489951904 L 975.5,175.5450624395214 l -3.2867475989448,6.6748285911098 c -3.9456908670476,8.0130309426573 -10.2063443309536,13.8855304685193 -17.8536708232041,16.7467619871667 -5.4231478875056,2.0290596565664 -6.1224279913664,2.0333859488523 -331.6470941849616,2.05182766865 L 296.5,201.0369613728958 269,216.9029247923934 241.5,232.7688882118909 v 53.3311112128914 53.3311112128913 l 37.5,17.0545668594745 c 43.4988554213279,19.7827770158309 51.3324018560452,23.8268340117088 54.7354600616474,28.2571019434945 3.0078192921896,3.9157265464508 6.6071764073015,15.1351304604413 13.2113626577135,41.1805800788101 C 351.0141223113407,441.9638893574953 361.9999999999998,489.1734729534816 362,490.6113390651522 362,490.8251025793185 400.25,491 447,491 h 85 v -40.7774937565947 c 1e-13,-36.0806963459539 0.1878249927507,-41.0456514972202 1.6306925335693,-43.1056334735363 3.4766321370696,-4.9635876738767 5.0579019686279,-5.1172817214911 52.5871888355349,-5.1112958354679 27.9963666122535,0.00352589047 45.6803967803371,0.3938675545737 48.0841364205368,1.0613667613653 2.5547742026109,0.7094402926406 4.4398228136522,2.1018139589695 5.7462619395645,4.2444230655989 1.8422477291853,3.0213552877661 1.944440251213,5.3452782946927 1.947982210359,44.29835555393 L 642,492.7194446305904 l 5.7230737090051,3.3902776847048 c 3.2886691043103,1.9481666746975 7.3386620376249,5.5171108590394 9.5211814969492,8.3902776847048 6.4625934892822,8.5076488742556 6.9102817306175,11.5230435547624 6.5623672426215,44.2006857627317 L 663.5,577.5 l -2.7797820778967,5.6605439734979 c -3.3337244223532,6.7885514617507 -8.9824260600774,12.1323916063808 -16.6002070518189,15.704290745372 L 638.5,601.5 l -154.6246910166147,0.2653877206585 -154.6246910166147,0.2653877206585 -14.3452431733863,17.725878275902 c -18.6477190733949,23.0422861727054 -36.4999763622723,43.7918582325483 -41.6758066426139,48.4395412350327 -2.263920056537,2.0329072237388 -5.9677639059413,4.1947644124691 -8.2307641097871,4.8041270860682 -9.8229930629793,2.6450573470687 -98.1356091347935,3.8986991953365 -137.5014795622918,1.9519024194441 z m 95.0681637980509,-9.7157320778605 c 18.7360185522084,-0.5195747510347 35.7416312044065,-1.2591276741847 37.7902503382179,-1.6434509403332 2.5366735084268,-0.4758828187335 5.0675472654201,-2.087245108457 7.9345117232576,-5.0517624369439 C 276.2877238319235,650.2716791855117 291.5586611765452,632.2732931626201 308,611.7392139324771 l 16.5,-20.6073429259924 156,-0.048171575899 C 626.509026487696,591.03861298891 636.750176519551,590.9240829901164 640.4062797035644,589.2954172587059 645.2641197236091,587.1314199175152 648.9037172533063,583.572556655282 651.5,578.4477800454327 653.3201466847463,574.8550106645318 653.5273518560976,572.1619069017009 653.8041573746811,548.5 c 0.3459681389063,-29.5740704001743 -0.1420551306619,-32.786601593973 -5.9245829425406,-39 -4.3667998710913,-4.6921810393618 -6.4561400684255,-5.4094840454712 -7.3699801562658,-2.5302288865169 -1.3872232211113,4.3707533398398 -5.0377623053265,5.509410998062 -18.7096614020071,5.8358228049809 L 609,513.1111878369282 V 507.5555939184643 502 H 620.5 632 V 457.5 413 h -45 -45 v 44.5 44.5 h 11 11 v 5.5794691936808 5.5794691936807 l -12.9801161413135,-0.3294691936809 c -12.6345949643329,-0.3206989652527 -13.053848419248,-0.402890459094 -15.75,-3.087669315123 -1.5234361222778,-1.5170100667934 -2.9122739142498,-3.8795100667934 -3.0863062043827,-5.25 L 531.8671553086076,502 h -88.6002443209704 c -48.7301343765338,0 -88.810509999139,-0.2102656781684 -89.0675013835671,-0.4672570625965 -0.2569913844282,-0.2569913844281 -2.4200024011485,-9.3694913844281 -4.8066911482672,-20.25 C 339.2028300979939,434.8287726814572 328.3921461445204,394.0735842751889 325.4444007442145,391 c -2.6418649166063,-2.7546457926832 -13.5356669841483,-8.2519509486598 -46.3674096557858,-23.39824044807 L 246.5,352.5729947684114 227.75,352.225886767471 209,351.8787787665306 V 346.4393893832653 341 h 10.9918103143079 10.991810314308 l 0.258189685692,-57.1367747859607 L 231.5,226.7264504280786 261.9864574149453,209.1132252140393 292.4729148298906,191.5 536.279863894214,191 l 243.8069490643233,-0.5 -7.2934064792687,-9.7852226539956 c -4.0113735635974,-5.3818724596975 -7.4434064792683,-10.2193724596975 -7.6267398126017,-10.75 C 764.9754650047433,169.4113762501783 767.5405864889936,169 771.1825003388371,169 h 6.349167005504 l 8.0573787664033,10.75 8.0573787664033,10.75 h 77.4267875614263 c 83.8272301473388,0 80.8826960079757,0.1864007694649 86.5993765457473,-5.4820863536651 C 964.4569256632203,178.2907710590904 964.4688234696035,178.2290994179127 964.8141529327496,148 c 0.3409604629446,-29.846650320631 -0.044799207479,-32.9590741382019 -4.7462125216346,-38.2938550299398 -5.0861224207373,-5.7713174507529 -10.5043353513978,-8.0632465027728 -20.1523149580479,-8.5245221457498 l -8.6195290558314,-0.4121048104878 -0.6360430857394,3.1802154286968 c -0.3498236971567,1.7491184857833 -1.7386014873471,4.1634769326732 -3.0861728670897,5.3652409930887 -2.2127933615662,1.9733689621433 -3.7153928504507,2.2120538592072 -15.5120051128782,2.4640507141196 L 899,112.0580502994554 V 107.0290251497277 102 h 11 11.0000000000001 V 57 12 H 876 831 v 45 45 h 11 11 v 5 5 l -13.0769230769231,-10e-14 -13.076923076923,-10e-14 -2.923076923077,-2.9230769230768 C 822.3153846153843,107.4692307692308 820.9999999999995,105.2051076108859 821,104.0455382806011 c 0,-1.1595693302847 -0.5624999999999,-2.3239672653031 -1.25,-2.5875509667075 -0.6875,-0.2635837014043 -21.8698642795468,-0.3619605430594 -47.0719206212146,-0.218615203678 L 726.8561587575707,101.5 l 8.0937637568213,10.75 8.0937637568212,10.75 -6.7881911050848,10e-14 h -6.7881911050852 l -8.2430263644876,-11 -8.2430263644877,-11 H 705.490625666034 L 698,101 V 65.46788136910487 c -5e-13,-29.86090207488678 -0.2478791408869,-36.12552288558568 -1.5530479136409,-39.25 C 694.4769441626797,21.50182870124614 690.6047259782219,17.41294925179144 685.5,14.65841718401754 L 681.5,12.5 555.5581501322531,12.23481378332644 C 415.3485020593437,11.93958494436124 422.8095239753999,11.59819953623473 415.5581621601893,18.64063239226192 408.5198998257111,25.47610566980513 408.535482785681,25.3775005779886 408.1922959937062,65.25 l -0.3077040062938,35.75 -67.1922959937062,0.0055769344 c -43.6794898299012,0.00362538065 -68.5103168908149,0.3716003838474 -70.9587902873881,1.0515582513221 -2.0715718615252,0.5752897243052 -5.8965718615251,2.3285026265856 -8.5,3.8960286717341 -2.6034281384752,1.5675260451485 -28.3395119608779,16.4375376633119 -57.1912973831175,33.0444702625853 -28.8517854222397,16.6069325992735 -53.6957717356143,31.1637100765115 -55.2088584741658,32.3483943938624 -1.5130867385514,1.1846843173509 -3.8945804839916,4.3798264317133 -5.2922083232005,7.1003158096942 L 141,183.3926886472033 V 262.1963443236016 341 h 11 11 v 5.5 5.5 l -17.25,-0.00385178064 -17.25,-0.00385178064 -32,14.528078794566 C 78.9,374.5108185702886 60.48837864622925,383.1750518715786 55.58528588050942,385.7742270139216 L 46.67057176101884,390.5 l -2.42686383714995,7 C 37.10075629980106,418.1029941206733 16.60324887460117,507.4308564351399 13.05331491027552,533.4273142268516 l -1.08251063453555,7.9273142268512 3.26459786213001,5.4356760866239 C 21.59520885497065,557.3796177567286 54.06156864404574,599.4818057370124 79.40109138894196,630 c 19.91593829009791,23.9861847354362 27.19600929194693,31.7119270680045 31.09518677908484,32.9987716846809 7.405833370701,2.4441454220863 63.9279897941442,3.5727408591797 112.0692101087156,2.2377206952226 z"
       id="path5483"
       inkscape:connector-curvature="0"
       transform="matrix(0.4495326583547116,0,0,0.4495326583547116,-133.7531084651814,-178.6986724208171)" />
  </g>
</svg>
