<?xml version="1.0" encoding="UTF-8" standalone="no"?>
<!-- Created with Inkscape (http://www.inkscape.org/) -->

<svg
   xmlns:dc="http://purl.org/dc/elements/1.1/"
   xmlns:cc="http://creativecommons.org/ns#"
   xmlns:rdf="http://www.w3.org/1999/02/22-rdf-syntax-ns#"
   xmlns:svg="http://www.w3.org/2000/svg"
   xmlns="http://www.w3.org/2000/svg"
   xmlns:sodipodi="http://sodipodi.sourceforge.net/DTD/sodipodi-0.dtd"
   xmlns:inkscape="http://www.inkscape.org/namespaces/inkscape"
   width="210mm"
   height="297mm"
   viewBox="0 0 210 297"
   version="1.1"
   id="svg4909"
   inkscape:version="0.92.1 r15371"
   sodipodi:docname="level1.svg">
  <defs
     id="defs4903" />
  <sodipodi:namedview
     id="base"
     pagecolor="#ffffff"
     bordercolor="#666666"
     borderopacity="1.0"
     inkscape:pageopacity="0.0"
     inkscape:pageshadow="2"
     inkscape:zoom="0.4161848216390903"
     inkscape:cx="106.4118758885022"
     inkscape:cy="511.5841292613645"
     inkscape:document-units="mm"
     inkscape:current-layer="layer1"
     showgrid="false"
     inkscape:window-width="1920"
     inkscape:window-height="1013"
     inkscape:window-x="-9"
     inkscape:window-y="-9"
     inkscape:window-maximized="1" />
  <metadata
     id="metadata4906">
    <rdf:RDF>
      <cc:Work
         rdf:about="">
        <dc:format>image/svg+xml</dc:format>
        <dc:type
           rdf:resource="http://purl.org/dc/dcmitype/StillImage" />
        <dc:title></dc:title>
      </cc:Work>
    </rdf:RDF>
  </metadata>
  <g
     inkscape:label="Layer 1"
     inkscape:groupmode="layer"
     id="layer1">
    <path
       transform="matrix(0.2645833333333333,0,0,0.2645833333333333,39.36440723335743,-26.63158693917268)"
       inkscape:connector-curvature="0"
       id="path4874"
       d="m 151.181640625,498.896484375 a 18.89952808475494,18.89952808475494 0 0 0 -18.8984375,18.8984375 v 94.48828125 H 37.794921875 -566.9296875 a 18.89952808475494,18.89952808475494 0 0 0 -18.8984375,18.8984375 V 744.56640625 839.0546875 h -132.28125 c -31.0807847744466,0 -56.6953124999995,25.6113994349708 -56.6953125,56.693359375 v 264.56640625 c 0,31.081959940029 25.6145277255536,56.693359375 56.6953125,56.693359375 h 453.54296875 c 31.0807847744468,0 56.693359375,-25.612574600553 56.693359375,-56.693359375 v -264.56640625 c 0,-31.0807847744468 -25.6125746005532,-56.6933593750005 -56.693359375,-56.693359375 H -396.849609375 V 763.46484375 H -18.8984375 V 857.953125 c 0,31.0807842288038 25.612575146196203,56.6933593750001 56.693359375,56.693359375 h 377.953125 c 31.0807842288039,0 56.6933593750001,-25.6125751461961 56.693359375,-56.693359375 V 668.9765625 c -2e-13,-31.0807842288038 -25.612575146196,-56.693359375 -56.693359375,-56.693359375 h -94.48828125 v -94.48828125 a 18.89952808475494,18.89952808475494 0 0 0 -18.8984375,-18.8984375 z"
       style="display:inline;opacity:1;vector-effect:none;fill:#ff5555;fill-opacity:1;stroke:none;stroke-width:37.7952766418;stroke-linecap:butt;stroke-linejoin:round;stroke-miterlimit:4;stroke-dasharray:none;stroke-dashoffset:0;stroke-opacity:1;paint-order:stroke markers fill" />
    <path
       transform="matrix(0.2645833333333333,0,0,0.2645833333333333,39.36440723335743,-26.63158693917268)"
       style="display:inline;opacity:1;vector-effect:none;fill:#333333;fill-opacity:1;stroke:none;stroke-width:37.7952766418;stroke-linecap:butt;stroke-linejoin:round;stroke-miterlimit:4;stroke-dasharray:none;stroke-dashoffset:0;stroke-opacity:1;paint-order:stroke markers fill"
       d="m 151.181640625,498.896484375 c -10.4370693538957,6.022468022e-4 -18.8978352531978,8.4613681461042 -18.8984375,18.8984375 v 94.48828125 H -566.9296875 c -10.4370693538953,6.022468021e-4 -18.8978352531979,8.4613681461044 -18.8984375,18.8984375 V 744.56640625 839.0546875 h -132.28125 c -31.0807847744466,0 -56.6953124999995,25.6113994349708 -56.6953125,56.693359375 v 264.56640625 c 0,31.081959940029 25.6145277255536,56.693359375 56.6953125,56.693359375 h 453.54296875 c 31.0807847744468,0 56.693359375,-25.612574600553 56.693359375,-56.693359375 v -264.56640625 c 0,-31.0807847744468 -25.6125746005532,-56.6933593750005 -56.693359375,-56.693359375 H -396.849609375 V 763.46484375 H -18.8984375 V 857.953125 c 0,31.0807842288038 25.612575146196203,56.6933593750001 56.693359375,56.693359375 h 377.953125 c 31.0807842288039,0 56.6933593750001,-25.6125751461961 56.693359375,-56.693359375 V 668.9765625 c -2e-13,-31.0807842288038 -25.612575146196,-56.693359375 -56.693359375,-56.693359375 h -94.48828125 v -94.48828125 c -6.022468021e-4,-10.4370693538958 -8.4613681461042,-18.8978352531978 -18.8984375,-18.8984375 z m 0.66796875,20.14453125 h 74.7578125 74.755859375 V 631.17578125 h -36.796875 v 20.138671875 c 20.4357619324962,-0.066933575646 35.8678355785843,-0.2856635461624 38.39453125,-0.654296875 8.5722252530146,-1.250648412594 18.7910156250001,-9.9058079631739 18.791015625,-15.916015625 1e-13,-3.5379275740386 0.3915920707819,-3.568359375 46.638671875,-3.568359375 53.9076053411925,0 61.1411714252189,1.0136743521221 71.056640625,9.953125 13.6308779614737,12.2891371420455 13.0497761910893,6.8612303481867 13.091796875,122.201171875 0.040736501531,111.8150698017651 0.2553308317378,109.1924471498697 -9.822265625,119.939453125 -2.5201981321317,2.6876035869072 -7.6410598939167,6.3026368099351 -11.37890625,8.033203125 C 424.8458089337741,894.3084699829388 28.3550389192579,894.3067613851817 21.75390625,891.30859375 13.4590143567244,887.5411378211745 5.235905748217906,878.049275465922 2.576171875,869.171875 0.7700794155924508,863.1436756368641 0.1660023183477978,767.3858807381373 0.837890625,706.771484375 h -20.359375 L -19.9609375,743.3125 h -348.08984375 v -36.541015625 h -20.388671875 V 743.3125 h -65.103515625 v 20.38671875 h 37.919921875 v 65.412109375 65.412109375 h -37.919921875 v 20.388671875 h 45.0546875 l 5.77734375,-5.775390625 5.77734375,-5.77734375 v -22.2578125 -22.255859375 h 70.314453125 70.31640625 l 9.087890625,4.74609375 c 6.6160545252751,3.456268153414 10.4810377236639,7.0023690502946 14.2109375,13.03515625 l 5.123046875,8.28515625 v 142.8515625 142.8515625 l -4.767578125,8.109375 c -2.6214228113405,4.459616576885 -7.9161681752277,10.193342159229 -11.767578125,12.7421875 l -7.00390625,4.634765625 -237.986328125,0.326171875 c -154.0798314592215,0.211253043716 -239.4664776170677,-0.269003434904 -242.18359375,-1.359375 -8.3492487660388,-3.35053159269 -15.8349184968001,-10.675045744593 -19.833984375,-19.41015625 l -4.080078125,-8.9140625 0.462890625,-140.916015625 0.462890625,-140.916015625 5.10546875,-8.361328125 c 3.8338224430519,-6.2785284834169 7.4013665627612,-9.5245569070993 14.322265625,-13.033203125 l 9.21484375,-4.671875 h 69.35546875 69.35546875 V 877.5 c 0,21.4278144779082 2.5216437775028,30.0613129936679 10.08203125,34.52734375 3.4637937183375,2.0461132892935 9.8672455911224,2.6500150394633 48.0078125,2.818359375 V 894.5234375 H -566.8359375 V 829.111328125 763.69921875 h 37.701171875 V 743.3125 H -566.8359375 V 687.244140625 631.17578125 h 366.98828125 v 37.80078125 h 20.388671875 v -37.80078125 l 310.0703125,-0.154296875 2.775390625,6.705078125 c 4.7028282556139,11.3622938699936 3.7303565990248,12.7393669338105 55.58984375,13.265625 v -19.81640625 h -37.126953125 z"
       id="rect4824"
       inkscape:connector-curvature="0"
       sodipodi:nodetypes="cccccccsssssssscccssssssccccccccccssssssssscccccccccccccccccccccccccccccsscccccccccsscccccccccccccccccccc" />
  </g>
</svg>
