<?xml version="1.0" encoding="UTF-8" standalone="no"?>
<!-- Created with Inkscape (http://www.inkscape.org/) -->

<svg
   xmlns:dc="http://purl.org/dc/elements/1.1/"
   xmlns:cc="http://creativecommons.org/ns#"
   xmlns:rdf="http://www.w3.org/1999/02/22-rdf-syntax-ns#"
   xmlns:svg="http://www.w3.org/2000/svg"
   xmlns="http://www.w3.org/2000/svg"
   xmlns:sodipodi="http://sodipodi.sourceforge.net/DTD/sodipodi-0.dtd"
   xmlns:inkscape="http://www.inkscape.org/namespaces/inkscape"
   width="210mm"
   height="297mm"
   viewBox="0 0 210 297"
   version="1.1"
   id="svg8"
   inkscape:version="0.92.1 r15371"
   sodipodi:docname="level 3.svg">
  <defs
     id="defs2">
    <clipPath
       clipPathUnits="userSpaceOnUse"
       id="clipPath4498">
      <rect
         style="opacity:1;vector-effect:none;fill:#d35f5f;fill-opacity:1;stroke:#ffff00;stroke-width:10;stroke-linecap:butt;stroke-linejoin:round;stroke-miterlimit:4;stroke-dasharray:none;stroke-dashoffset:0;stroke-opacity:1;paint-order:stroke markers fill"
         id="rect4500"
         width="834.2193603515625"
         height="440.0464477539062"
         x="-316.0179138183594"
         y="429.319091796875"
         transform="translate(835.1219512195121,12.98720064173149)" />
    </clipPath>
    <clipPath
       clipPathUnits="userSpaceOnUse"
       id="clipPath4498-1">
      <rect
         style="opacity:1;vector-effect:none;fill:#d35f5f;fill-opacity:1;stroke:#ffff00;stroke-width:10;stroke-linecap:butt;stroke-linejoin:round;stroke-miterlimit:4;stroke-dasharray:none;stroke-dashoffset:0;stroke-opacity:1;paint-order:stroke markers fill"
         id="rect4500-3"
         width="834.2193603515625"
         height="440.0464477539062"
         x="-316.0179138183594"
         y="429.319091796875"
         transform="translate(835.121951219512,12.98720064173149)" />
    </clipPath>
    <clipPath
       clipPathUnits="userSpaceOnUse"
       id="clipPath6334">
      <rect
         style="opacity:1;vector-effect:none;fill:#808080;fill-opacity:1;stroke:none;stroke-width:20;stroke-linecap:square;stroke-linejoin:round;stroke-miterlimit:4;stroke-dasharray:none;stroke-dashoffset:0;stroke-opacity:1;paint-order:stroke markers fill"
         id="rect6336"
         width="755.905517578125"
         height="491.3385925292969"
         x="-2494.48828125"
         y="-200.3149566650391"
         transform="translate(3059.990041474333,654.367653304735)" />
    </clipPath>
  </defs>
  <sodipodi:namedview
     id="base"
     pagecolor="#ffffff"
     bordercolor="#666666"
     borderopacity="1.0"
     inkscape:pageopacity="0.0"
     inkscape:pageshadow="2"
     inkscape:zoom="0.208092410929338"
     inkscape:cx="593.4422754024945"
     inkscape:cy="1220.762218187775"
     inkscape:document-units="mm"
     inkscape:current-layer="layer2"
     showgrid="true"
     inkscape:window-width="1920"
     inkscape:window-height="1013"
     inkscape:window-x="-9"
     inkscape:window-y="-9"
     inkscape:window-maximized="1"
     inkscape:snap-global="true">
    <inkscape:grid
       type="xygrid"
       id="grid4504"
       units="cm"
       spacingx="10.00000002623867"
       spacingy="10.00000002623867" />
  </sodipodi:namedview>
  <metadata
     id="metadata5">
    <rdf:RDF>
      <cc:Work
         rdf:about="">
        <dc:format>image/svg+xml</dc:format>
        <dc:type
           rdf:resource="http://purl.org/dc/dcmitype/StillImage" />
        <dc:title></dc:title>
      </cc:Work>
    </rdf:RDF>
  </metadata>
  <g
     inkscape:groupmode="layer"
     id="layer5"
     inkscape:label="shape src"
     sodipodi:insensitive="true"
     style="display:none">
    <rect
       style="display:inline;opacity:1;vector-effect:none;fill:#cccccc;fill-opacity:1;stroke:#808080;stroke-width:37.7952766418;stroke-linecap:square;stroke-linejoin:round;stroke-miterlimit:4;stroke-dasharray:none;stroke-dashoffset:0;stroke-opacity:1;paint-order:stroke markers fill"
       id="rect4543-6"
       width="604.7244262695312"
       height="151.1810913085938"
       x="-113.3858261108398"
       y="-464.8818969726562"
       transform="matrix(0.2645833333333333,0,0,0.2645833333333333,29.99999982515963,170.0000012513769)"
       rx="37.7952995300293"
       ry="37.7952995300293" />
    <path
       sodipodi:type="star"
       style="display:inline;opacity:1;vector-effect:none;fill:#cccccc;fill-opacity:1;stroke:#808080;stroke-width:33.0708656311;stroke-linecap:square;stroke-linejoin:round;stroke-miterlimit:4;stroke-dasharray:none;stroke-dashoffset:0;stroke-opacity:1;paint-order:stroke markers fill"
       id="path4530-1"
       sodipodi:sides="7"
       sodipodi:cx="-188.9763793945312"
       sodipodi:cy="177.6377868652344"
       sodipodi:r1="264.5669250488281"
       sodipodi:r2="238.3665618896484"
       sodipodi:arg1="-1.570796326794897"
       sodipodi:arg2="-1.121997376282069"
       inkscape:flatsided="true"
       inkscape:rounded="0.06"
       inkscape:randomized="0"
       d="m -188.9763793945314,-86.92913818359375 c 13.7749544024425,0 198.258207631941587,88.842452350368716 206.8467512229335,99.61214537175979 8.58854359099193,10.76969302139108 54.15214436612281,210.39687139691065 51.0869286472857,223.82645893288366 -3.06521571883712,13.4295875359731 -130.73158810982263,173.5181549675459 -143.14239318319863,179.4948836898515 -12.41080507337598,5.9767287223056 -217.17176830066455,5.9767287223057 -229.58257337404057,1e-13 -12.410805073376,-5.9767287223056 -140.0771774643617,-166.0652961538783 -143.1423931831989,-179.4948836898513 -3.0652157188371,-13.429587535973 42.4983850562936,-213.05676591149267 51.0869286472855,-223.82645893288375 8.588543590992,-10.769693021391082 193.071796820491,-99.61214537175999 206.8467512229334,-99.61214537175999 z"
       transform="matrix(0.3023809518837513,0,0,0.3023809518837513,7.142857103393541,-6.714285315488838)"
       inkscape:transform-center-y="-3.283526930465408" />
    <rect
       transform="scale(0.2645833333333333)"
       style="display:inline;opacity:1;vector-effect:none;fill:#cccccc;fill-opacity:1;stroke:#808080;stroke-width:37.7952766418;stroke-linecap:square;stroke-linejoin:round;stroke-miterlimit:4;stroke-dasharray:none;stroke-dashoffset:0;stroke-opacity:1;paint-order:stroke markers fill"
       id="rect4533-3"
       width="151.1811065673828"
       height="302.3622131347656"
       x="-264.5669250488281"
       y="-389.2913513183594"
       rx="37.7952995300293"
       ry="37.7952995300293" />
    <rect
       ry="37.7952995300293"
       rx="37.7952995300293"
       transform="matrix(0.2291358880846327,-0.1322916666666666,0.1322916666666666,0.2291358880846327,38.19873074012191,-43.44039851822692)"
       y="-389.2913513183594"
       x="-264.5669250488281"
       height="151.1811065673828"
       width="278.9743957519531"
       id="rect4535-7"
       style="display:inline;opacity:1;vector-effect:none;fill:#cccccc;fill-opacity:1;stroke:#808080;stroke-width:37.7952766418;stroke-linecap:square;stroke-linejoin:round;stroke-miterlimit:4;stroke-dasharray:none;stroke-dashoffset:0;stroke-opacity:1;paint-order:stroke markers fill"
       inkscape:transform-center-x="-55.60684458746796"
       inkscape:transform-center-y="-32.10462669136031" />
    <rect
       style="display:inline;opacity:1;vector-effect:none;fill:#cccccc;fill-opacity:1;stroke:#808080;stroke-width:37.7952766418;stroke-linecap:square;stroke-linejoin:round;stroke-miterlimit:4;stroke-dasharray:none;stroke-dashoffset:0;stroke-opacity:1;paint-order:stroke markers fill"
       id="rect4537-8"
       width="340.157470703125"
       height="151.1811065673828"
       x="-113.3858261108398"
       y="-464.8818969726562"
       transform="matrix(0.2645833333333333,0,0,0.2645833333333333,9.99999977268242,-9.999999220916436)"
       rx="37.7952995300293"
       ry="37.7952995300293" />
    <rect
       style="display:inline;opacity:1;vector-effect:none;fill:#cccccc;fill-opacity:1;stroke:#808080;stroke-width:37.7952766418;stroke-linecap:square;stroke-linejoin:round;stroke-miterlimit:4;stroke-dasharray:none;stroke-dashoffset:0;stroke-opacity:1;paint-order:stroke markers fill"
       id="rect4539-2"
       width="491.3385925292969"
       height="302.3622131347656"
       x="151.1811065673828"
       y="-653.8582763671875"
       transform="matrix(0.2645833333333333,0,0,0.2645833333333333,9.99999977268242,-1.875832822406664e-12)"
       rx="37.7952995300293"
       ry="37.7952995300293" />
    <rect
       ry="37.7952995300293"
       rx="37.7952995300293"
       transform="matrix(0.2645833333333333,0,0,0.2645833333333333,200.0000002712161,-9.999999220904895)"
       y="-464.8818969726562"
       x="-113.3858261108398"
       height="151.1810913085938"
       width="491.3385925292969"
       id="rect4541-3"
       style="display:inline;opacity:1;vector-effect:none;fill:#cccccc;fill-opacity:1;stroke:#808080;stroke-width:37.7952766418;stroke-linecap:square;stroke-linejoin:round;stroke-miterlimit:4;stroke-dasharray:none;stroke-dashoffset:0;stroke-opacity:1;paint-order:stroke markers fill" />
    <rect
       transform="matrix(0.2645833333333333,0,0,0.2645833333333333,69.99999917600773,-119.9999977313674)"
       y="480"
       x="151.1811065673828"
       height="151.1810913085938"
       width="151.1811065673828"
       id="rect4536-3-9"
       style="display:inline;opacity:1;vector-effect:none;fill:#cccccc;fill-opacity:1;stroke:#808080;stroke-width:37.7952766418;stroke-linecap:butt;stroke-linejoin:round;stroke-miterlimit:4;stroke-dasharray:none;stroke-dashoffset:0;stroke-opacity:1;paint-order:stroke markers fill" />
  </g>
  <g
     inkscape:label="src"
     inkscape:groupmode="layer"
     id="layer1"
     style="display:none"
     sodipodi:insensitive="true">
    <path
       style="opacity:1;vector-effect:none;fill:#cccccc;fill-opacity:1;stroke:#808080;stroke-width:37.7952766418;stroke-linecap:square;stroke-linejoin:round;stroke-miterlimit:4;stroke-dasharray:none;stroke-dashoffset:0;stroke-opacity:1;paint-order:stroke markers fill"
       d="m 226.771484375,-653.857421875 c -20.9385959396362,0 -37.794921875,16.8563259353637 -37.794921875,37.794921875 v 113.384765625 H -37.794921875 c -9.82146342548826,0 -18.74621683932873,3.7094324794493 -25.453125,9.80859375 -2.4829874530793,0.8087281788482 -4.92324699677295,1.8819214685814 -7.279296875,3.2421875 l -176.134765625,101.69140625 c -14.851461445527,8.5744952634345 -21.6713400675613,25.5722707558857 -17.904296875,41.40625 V -86.92913703170052 C -331.5479251995051,-55.98935411883804 -419.1259558468713,-18.71641687504189 -425.373046875,-10.8828125 c -9.8154783735656,12.308220575637278 -61.8878692979109,240.45463435912461 -58.384765625,255.802734375 3.5031036729108,15.3481000158755 149.4080196716067,198.306171650025 163.591796875,205.13671875 14.1837772033932,6.830547099975 248.19512904660678,6.830547099975 262.37890625,0 8.16337454053744,-3.9312739825425 59.903008576389936,-66.1555548691294 103.0703125,-121.23828125 H 566.9296875 c 20.9385959396362,0 37.794921875,-16.8563259353639 37.794921875,-37.794921875 v -75.58984375 c 0,-20.9385959396362 -16.8563259353638,-37.794921875 -37.794921875,-37.794921875 H 95.03515625 C 80.00688052916433,104.460770897321 54.06090492342703,-2.555283154182234 47.419921875,-10.8828125 41.17282144716038,-18.71642866190655 -46.40516129221756,-55.98934679715218 -113.38671875,-86.92913703170052 V -290.3125 L -7.412109375,-351.49609375 H 226.771484375 642.51953125 1096.0625 c 20.938595939636,0 37.794921875,-16.8563259353639 37.794921875,-37.794921875 V -464.8828125 c 0,-20.9385959396361 -16.856325935364,-37.794921875 -37.794921875,-37.794921875 H 680.314453125 V -616.0625 c 0,-20.9385959396355 -16.8563259353638,-37.794921875 -37.794921875,-37.794921875 z"
       transform="scale(0.2645833333333333)"
       id="rect4543"
       inkscape:connector-curvature="0"
       sodipodi:nodetypes="sscscssccsssscsssscscccccsssscsss" />
    <rect
       style="opacity:1;vector-effect:none;fill:#cccccc;fill-opacity:1;stroke:#808080;stroke-width:37.7952766418;stroke-linecap:square;stroke-linejoin:round;stroke-miterlimit:4;stroke-dasharray:none;stroke-dashoffset:0;stroke-opacity:1;paint-order:stroke markers fill"
       id="rect4517"
       width="188.9763793945312"
       height="264.5669250488281"
       x="-831.49609375"
       y="1462.677124023438"
       transform="scale(0.2645833333333333)"
       rx="37.7952995300293"
       ry="37.7952995300293" />
    <rect
       transform="matrix(0.2645833333333333,0,0,0.2645833333333333,69.99999917600783,-119.9999977313655)"
       y="480"
       x="151.1811065673828"
       height="151.1810913085938"
       width="151.1811065673828"
       id="rect4536-3"
       style="display:inline;opacity:1;vector-effect:none;fill:#cccccc;fill-opacity:1;stroke:#808080;stroke-width:37.7952766418;stroke-linecap:butt;stroke-linejoin:round;stroke-miterlimit:4;stroke-dasharray:none;stroke-dashoffset:0;stroke-opacity:1;paint-order:stroke markers fill" />
    <path
       style="opacity:1;vector-effect:none;fill:#cccccc;fill-opacity:1;stroke:#808080;stroke-width:18.8976383209;stroke-linecap:square;stroke-linejoin:round;stroke-miterlimit:4;stroke-dasharray:none;stroke-dashoffset:0;stroke-opacity:1;paint-order:stroke markers fill"
       d="m 718.1102381048258,-502.6771696186311 113.3858270689377,151.1811027588688"
       id="path4600"
       inkscape:connector-curvature="0"
       transform="scale(0.2645833333333333)"
       sodipodi:nodetypes="cc" />
    <rect
       transform="matrix(0.2645833333333333,0,0,0.2645833333333333,69.9999991760078,-119.9999977313655)"
       y="480"
       x="151.1811065673828"
       height="151.1810913085938"
       width="151.1811065673828"
       id="rect4536-3-4"
       style="display:inline;opacity:1;vector-effect:none;fill:#cccccc;fill-opacity:1;stroke:#808080;stroke-width:37.7952766418;stroke-linecap:butt;stroke-linejoin:round;stroke-miterlimit:4;stroke-dasharray:none;stroke-dashoffset:0;stroke-opacity:1;paint-order:stroke markers fill" />
    <path
       transform="scale(0.2645833333333333)"
       style="display:inline;opacity:1;vector-effect:none;fill:#cccccc;fill-opacity:1;stroke:#808080;stroke-width:18.8976383209;stroke-linecap:square;stroke-linejoin:round;stroke-miterlimit:4;stroke-dasharray:none;stroke-dashoffset:0;stroke-opacity:1;paint-order:stroke markers fill"
       d="m 718.1102381048258,-502.6771696186311 113.3858270689377,151.1811027588688"
       id="path4600-6"
       inkscape:connector-curvature="0"
       sodipodi:nodetypes="cc" />
    <path
       transform="matrix(0.2645833333333333,0,0,0.2645833333333333,100.0000002623848,-120.0000003148619)"
       inkscape:connector-curvature="0"
       id="path4703-7-42"
       d="m 113.3858270691654,555.5905496935478 5.82e-11,113.3858270691629"
       style="display:inline;opacity:1;vector-effect:none;fill:#808080;fill-opacity:1;stroke:#00ff00;stroke-width:75.5905532837;stroke-linecap:square;stroke-linejoin:round;stroke-miterlimit:4;stroke-dasharray:none;stroke-dashoffset:0;stroke-opacity:1;paint-order:stroke markers fill"
       sodipodi:nodetypes="cc" />
    <path
       transform="matrix(0.2645833333333333,0,0,0.2645833333333333,190.0000004985438,-270.0000007084419)"
       inkscape:connector-curvature="0"
       id="path4703-7-4-4"
       d="M 113.3858270691362,593.3858253832686 H -3.456079866737127e-11"
       style="display:inline;opacity:1;vector-effect:none;fill:#808080;fill-opacity:1;stroke:#00ff00;stroke-width:75.5905532837;stroke-linecap:square;stroke-linejoin:round;stroke-miterlimit:4;stroke-dasharray:none;stroke-dashoffset:0;stroke-opacity:1;paint-order:stroke markers fill"
       sodipodi:nodetypes="cc" />
    <path
       style="display:inline;opacity:1;vector-effect:none;fill:#cccccc;fill-opacity:1;stroke:#808080;stroke-width:15.6206979752;stroke-linecap:square;stroke-linejoin:round;stroke-miterlimit:4;stroke-dasharray:none;stroke-dashoffset:0;stroke-opacity:1;paint-order:stroke markers fill"
       d="m -264.5669298280263,-86.92913703170052 151.1811027588628,-6.37e-12"
       id="path4634-6"
       inkscape:connector-curvature="0"
       transform="matrix(0.3200881293794344,0,0,0.3200881293794321,10.48909534332003,4.82498402140817)" />
    <path
       transform="matrix(0.2645833333333333,0,0,0.2645833333333333,-80.2230795102877,-184.4569289414793)"
       inkscape:connector-curvature="0"
       id="path4703-7-8-0"
       d="m 113.3858270691654,555.5905496935478 5.82e-11,113.3858270691629"
       style="display:inline;opacity:1;vector-effect:none;fill:#808080;fill-opacity:1;stroke:#00ff00;stroke-width:75.5905532837;stroke-linecap:square;stroke-linejoin:round;stroke-miterlimit:4;stroke-dasharray:none;stroke-dashoffset:0;stroke-opacity:1;paint-order:stroke markers fill"
       sodipodi:nodetypes="cc" />
    <rect
       transform="matrix(0.2645833333333333,0,0,0.2645833333333333,199.9999995171093,-299.9999982036619)"
       y="480"
       x="151.1811065673828"
       height="151.1810913085938"
       width="151.1811065673828"
       id="rect4536-3-4-7"
       style="display:inline;opacity:1;vector-effect:none;fill:#cccccc;fill-opacity:1;stroke:#808080;stroke-width:37.7952766418;stroke-linecap:butt;stroke-linejoin:round;stroke-miterlimit:4;stroke-dasharray:none;stroke-dashoffset:0;stroke-opacity:1;paint-order:stroke markers fill" />
  </g>
  <g
     inkscape:groupmode="layer"
     id="layer4"
     inkscape:label="door"
     style="display:none"
     sodipodi:insensitive="true">
    <path
       transform="matrix(0.2645833333333333,0,0,0.2645833333333333,100.0000002623848,-120.0000003148619)"
       inkscape:connector-curvature="0"
       id="path4703-7"
       d="m 113.3858270691654,555.5905496935478 5.82e-11,113.3858270691629"
       style="display:inline;opacity:1;vector-effect:none;fill:#808080;fill-opacity:1;stroke:#00ff00;stroke-width:75.5905532837;stroke-linecap:square;stroke-linejoin:round;stroke-miterlimit:4;stroke-dasharray:none;stroke-dashoffset:0;stroke-opacity:1;paint-order:stroke markers fill"
       sodipodi:nodetypes="cc" />
    <path
       transform="matrix(0.2645833333333333,0,0,0.2645833333333333,190.0000004985439,-270.0000007084421)"
       inkscape:connector-curvature="0"
       id="path4703-7-4"
       d="M 113.3858270691362,593.3858253832686 H -3.456079866737127e-11"
       style="display:inline;opacity:1;vector-effect:none;fill:#808080;fill-opacity:1;stroke:#00ff00;stroke-width:75.5905532837;stroke-linecap:square;stroke-linejoin:round;stroke-miterlimit:4;stroke-dasharray:none;stroke-dashoffset:0;stroke-opacity:1;paint-order:stroke markers fill"
       sodipodi:nodetypes="cc" />
    <path
       style="opacity:1;vector-effect:none;fill:#cccccc;fill-opacity:1;stroke:#808080;stroke-width:15.6206979752;stroke-linecap:square;stroke-linejoin:round;stroke-miterlimit:4;stroke-dasharray:none;stroke-dashoffset:0;stroke-opacity:1;paint-order:stroke markers fill"
       d="m -264.5669298280263,-86.92913703170052 151.1811027588628,-6.37e-12"
       id="path4634"
       inkscape:connector-curvature="0"
       transform="matrix(0.3200881293794345,0,0,0.3200881293794321,10.48909534332009,4.824984021408114)" />
    <path
       transform="matrix(0.2645833333333333,0,0,0.2645833333333333,-80.2230795102877,-184.4569289414793)"
       inkscape:connector-curvature="0"
       id="path4703-7-8"
       d="m 113.3858270691654,555.5905496935478 5.82e-11,113.3858270691629"
       style="display:inline;opacity:1;vector-effect:none;fill:#808080;fill-opacity:1;stroke:#00ff00;stroke-width:75.5905532837;stroke-linecap:square;stroke-linejoin:round;stroke-miterlimit:4;stroke-dasharray:none;stroke-dashoffset:0;stroke-opacity:1;paint-order:stroke markers fill"
       sodipodi:nodetypes="cc" />
    <path
       sodipodi:nodetypes="cc"
       style="display:inline;opacity:1;vector-effect:none;fill:#808080;fill-opacity:1;stroke:#00ff00;stroke-width:75.5905532837;stroke-linecap:square;stroke-linejoin:round;stroke-miterlimit:4;stroke-dasharray:none;stroke-dashoffset:0;stroke-opacity:1;paint-order:stroke markers fill"
       d="m 113.3858270691654,555.5905496935478 5.82e-11,113.3858270691629"
       id="path5403"
       inkscape:connector-curvature="0"
       transform="matrix(0.2645833333333333,0,0,0.2645833333333333,230.0000006034863,-300.000000787158)" />
  </g>
  <g
     inkscape:groupmode="layer"
     id="layer3"
     inkscape:label="bin"
     style="display:inline">
    <path
       style="display:inline;opacity:1;vector-effect:none;fill:#cccccc;fill-opacity:1;stroke:#808080;stroke-width:37.7952766418;stroke-linecap:square;stroke-linejoin:round;stroke-miterlimit:4;stroke-dasharray:none;stroke-dashoffset:0;stroke-opacity:1;paint-order:stroke markers fill"
       d="M 226.771484375 -653.857421875 C 205.8328884353638 -653.857421875 188.9765625 -637.0010959396363 188.9765625 -616.0625 L 188.9765625 -502.677734375 L -37.794921875 -502.677734375 C -47.61638530048826 -502.677734375 -56.54113871432873 -498.9683018955507 -63.248046875 -492.869140625 C -65.7310343280793 -492.0604124461518 -68.17129387177295 -490.9872191564185 -70.52734375 -489.626953125 L -246.662109375 -387.935546875 C -261.513570820527 -379.3610516115655 -268.3334494425613 -362.3632761191143 -264.56640625 -346.529296875 L -264.56640625 -86.9296875 C -331.5479251995051 -55.98990458713752 -419.1259558468714 -18.71641687504189 -425.373046875 -10.8828125 C -435.1885252485656 1.425408075637279 -487.260916172911 229.5718218591246 -483.7578125 244.919921875 C -480.2547088270892 260.2680218908755 -334.3497928283933 443.2260935250251 -320.166015625 450.056640625 C -305.9822384216068 456.887187724975 -71.97088657839322 456.8871877249749 -57.787109375 450.056640625 C -49.62373483446256 446.1253666424575 2.115899201389944 383.9010857558706 45.283203125 328.818359375 L 566.9296875 328.818359375 C 587.8682834396362 328.818359375 604.724609375 311.9620334396361 604.724609375 291.0234375 L 604.724609375 215.43359375 C 604.724609375 194.4949978103638 587.8682834396362 177.638671875 566.9296875 177.638671875 L 566.9296875 26.45703125 L 415.748046875 26.45703125 L 415.748046875 177.638671875 L 95.03515625 177.638671875 C 80.00688052916433 104.460770897321 54.06090492342702 -2.555283154182243 47.419921875 -10.8828125 C 41.17282144716038 -18.71642866190655 -46.40516129221756 -55.98989726545165 -113.38671875 -86.9296875 L -113.38671875 -290.3125 L -7.412109375 -351.49609375 L 226.771484375 -351.49609375 L 642.51953125 -351.49609375 L 1096.0625 -351.49609375 C 1117.001095939636 -351.49609375 1133.857421875 -368.3524196853639 1133.857421875 -389.291015625 L 1133.857421875 -464.8828125 C 1133.857421875 -485.8214084396361 1117.001095939636 -502.677734375 1096.0625 -502.677734375 L 1058.267578125 -502.677734375 L 1058.267578125 -653.857421875 L 907.0859375 -653.857421875 L 907.0859375 -502.677734375 L 680.314453125 -502.677734375 L 680.314453125 -616.0625 C 680.314453125 -637.0010959396355 663.4581271896362 -653.857421875 642.51953125 -653.857421875 L 226.771484375 -653.857421875 z "
       transform="scale(0.2645833333333333)"
       id="rect4543-3" />
    <path
       style="color:#000000;font-style:normal;font-variant:normal;font-weight:normal;font-stretch:normal;font-size:medium;line-height:normal;font-family:sans-serif;font-variant-ligatures:normal;font-variant-position:normal;font-variant-caps:normal;font-variant-numeric:normal;font-variant-alternates:normal;font-feature-settings:normal;text-indent:0;text-align:start;text-decoration:none;text-decoration-line:none;text-decoration-style:solid;text-decoration-color:#000000;letter-spacing:normal;word-spacing:normal;text-transform:none;writing-mode:lr-tb;direction:ltr;text-orientation:mixed;dominant-baseline:auto;baseline-shift:baseline;text-anchor:start;white-space:normal;shape-padding:0;clip-rule:nonzero;display:inline;overflow:visible;visibility:visible;opacity:1;isolation:auto;mix-blend-mode:normal;color-interpolation:sRGB;color-interpolation-filters:linearRGB;solid-color:#000000;solid-opacity:1;vector-effect:none;fill:#00ff00;fill-opacity:1;fill-rule:nonzero;stroke:none;stroke-width:75.5905532837;stroke-linecap:square;stroke-linejoin:round;stroke-miterlimit:4;stroke-dasharray:none;stroke-dashoffset:0;stroke-opacity:1;paint-order:stroke markers fill;color-rendering:auto;image-rendering:auto;shape-rendering:auto;text-rendering:auto;enable-background:accumulate"
       d="M 944.880859375 -616.0625 L 944.880859375 -578.267578125 L 944.880859375 -464.880859375 L 944.880859375 -427.0859375 L 1020.47265625 -427.0859375 L 1020.47265625 -464.880859375 L 1020.47265625 -578.267578125 L 1020.47265625 -616.0625 L 944.880859375 -616.0625 z M 680.314453125 -464.8828125 L 680.314453125 -389.291015625 L 718.109375 -389.291015625 L 831.49609375 -389.291015625 L 869.291015625 -389.291015625 L 869.291015625 -464.8828125 L 831.49609375 -464.8828125 L 718.109375 -464.8828125 L 680.314453125 -464.8828125 z M -227.615234375 -179.365234375 L -227.615234375 -141.5703125 L -227.615234375 -28.18359375 L -227.615234375 9.611328125 L -152.0234375 9.611328125 L -152.0234375 -28.18359375 L -152.0234375 -141.5703125 L -152.0234375 -179.365234375 L -227.615234375 -179.365234375 z M 453.54296875 64.251953125 L 453.54296875 102.046875 L 453.54296875 215.43359375 L 453.54296875 253.228515625 L 529.134765625 253.228515625 L 529.134765625 215.43359375 L 529.134765625 102.046875 L 529.134765625 64.251953125 L 453.54296875 64.251953125 z "
       transform="scale(0.2645833333333333)"
       id="path4703-7-83" />
    <path
       style="opacity:1;vector-effect:none;fill:#666666;fill-opacity:1;stroke:none;stroke-width:11.1226625443;stroke-linecap:square;stroke-linejoin:round;stroke-miterlimit:4;stroke-dasharray:none;stroke-dashoffset:0;stroke-opacity:1;paint-order:stroke markers fill"
       d="M 127.4973244786915,674.952224457764 C 107.4907709899433,673.9628218761456 105.1242966879616,673.2375540470814 97.19095511708248,665.664046388258 86.48952492129453,655.4480027672874 48.53138888800031,609.2869981480365 23.71829291695184,576.3137185366998 9.606254933913421,557.5607110585741 3.20923238902802,547.6322257823776 2.375667259522103,543.1889416411453 0.8440863046472115,535.0249132684099 13.99864946951918,470.3018898424741 28.05589938684912,416.8371772588095 33.80498741460061,394.9713542258855 36.2475590002654,388.047675884508 39.63092622842217,384.0267723911666 42.74696408899671,380.3235718001405 60.4063603829753,371.4147249587842 100.25,353.4455432876546 L 131,339.577524660382 v -78.7512497230807 c 1e-13,-78.1771536376698 0.015701116463,-78.7932147172112 2.1537902364024,-84.5077699578973 3.9506719412249,-10.5591169401767 6.9479367119969,-12.6678618731683 66.3977819145686,-46.7145870927409 C 229.223207467937,112.6110727243277 255.1123140051785,97.69194363982427 257.0829200115077,96.4502976988777 265.8452762267249,90.92928335465626 264.8476510209602,91 333.9722342159865,90.99999999999994 l 63.9023397655364,-6e-14 0.3127130092385,-32.24999999999994 L 398.5,26.5 401.4320839318767,20.70952091011054 C 404.8569527412448,13.94585667435742 411.2259394265213,7.71037698065774 417.8243299669305,4.660889889732064 L 422.5,2.5 h 131 131 l 6.2852183751297,3.408096504906668 c 7.3825436413077,4.003110103671374 11.5306336207495,8.407162120768731 15.1136686667838,16.04627269600467 L 708.5,27.5 708.8244257111307,59.25 709.1488514222617,91 H 765.0744257111307 821 V 49.89999999999998 8.799999999999954 L 824.3999999999997,5.399999999999979 827.7999999999999,2 l 48.2000000000113,-1.14e-13 48.2000000000113,-1.14e-13 3.3999999999885,3.400000000011631 3.3999999999885,3.400000000011628 V 49.76891893202981 90.73783786403656 l 10.2841332232272,0.45738388612831 c 9.2932781763617,0.41331589108313 10.8910959733707,0.78089166276074 16.5838294338524,3.81508699735923 6.2182829962777,3.31431031990043 11.3751597763751,8.5172715833634 14.4503375169827,14.5794731095767 3.0656046138505,6.0433296987812 3.8941143159343,15.6991361895053 3.5329790325776,41.1748489951904 L 975.5,175.5450624395214 l -3.2867475989448,6.6748285911098 c -3.9456908670476,8.0130309426573 -10.2063443309536,13.8855304685193 -17.8536708232041,16.7467619871667 -5.4231478875056,2.0290596565664 -6.1224279913664,2.0333859488523 -331.6470941849616,2.05182766865 L 296.5,201.0369613728958 269,216.9029247923934 241.5,232.7688882118909 v 53.3311112128914 53.3311112128913 l 37.5,17.0545668594745 c 43.4988554213279,19.7827770158309 51.3324018560452,23.8268340117088 54.7354600616474,28.2571019434945 3.0078192921896,3.9157265464508 6.6071764073015,15.1351304604413 13.2113626577135,41.1805800788101 C 351.0141223113407,441.9638893574953 361.9999999999998,489.1734729534816 362,490.6113390651522 362,490.8251025793185 400.25,491 447,491 h 85 v -40.7774937565947 c 1e-13,-36.0806963459539 0.1878249927507,-41.0456514972202 1.6306925335693,-43.1056334735363 3.4766321370696,-4.9635876738767 5.0579019686279,-5.1172817214911 52.5871888355349,-5.1112958354679 27.9963666122535,0.00352589047 45.6803967803371,0.3938675545737 48.0841364205368,1.0613667613653 2.5547742026109,0.7094402926406 4.4398228136522,2.1018139589695 5.7462619395645,4.2444230655989 1.8422477291853,3.0213552877661 1.944440251213,5.3452782946927 1.947982210359,44.29835555393 L 642,492.7194446305904 l 5.7230737090051,3.3902776847048 c 3.2886691043103,1.9481666746975 7.3386620376249,5.5171108590394 9.5211814969492,8.3902776847048 6.4625934892822,8.5076488742556 6.9102817306175,11.5230435547624 6.5623672426215,44.2006857627317 L 663.5,577.5 l -2.7797820778967,5.6605439734979 c -3.3337244223532,6.7885514617507 -8.9824260600774,12.1323916063808 -16.6002070518189,15.704290745372 L 638.5,601.5 l -154.6246910166147,0.2653877206585 -154.6246910166147,0.2653877206585 -14.3452431733863,17.725878275902 c -18.6477190733949,23.0422861727054 -36.4999763622723,43.7918582325483 -41.6758066426139,48.4395412350327 -2.263920056537,2.0329072237388 -5.9677639059413,4.1947644124691 -8.2307641097872,4.8041270860682 -9.8229930629793,2.6450573470687 -98.1356091347935,3.8986991953365 -137.5014795622917,1.9519024194441 z m 95.0681637980509,-9.7157320778605 c 18.7360185522084,-0.5195747510347 35.7416312044065,-1.2591276741847 37.7902503382179,-1.6434509403332 2.5366735084268,-0.4758828187335 5.0675472654201,-2.087245108457 7.9345117232576,-5.0517624369439 C 276.2877238319235,650.2716791855118 291.5586611765452,632.2732931626201 308,611.7392139324771 l 16.5,-20.6073429259923 156,-0.048171575899 C 626.509026487696,591.03861298891 636.750176519551,590.9240829901164 640.4062797035644,589.2954172587059 645.2641197236091,587.1314199175153 648.9037172533063,583.572556655282 651.5,578.4477800454327 653.3201466847463,574.8550106645318 653.5273518560976,572.1619069017011 653.8041573746812,548.5 c 0.3459681389063,-29.5740704001743 -0.1420551306619,-32.786601593973 -5.9245829425406,-39 -4.3667998710913,-4.6921810393618 -6.4561400684255,-5.4094840454712 -7.3699801562658,-2.5302288865169 -1.3872232211113,4.3707533398398 -5.0377623053265,5.509410998062 -18.7096614020071,5.8358228049809 L 609,513.1111878369283 V 507.5555939184643 502 H 620.5 632 V 457.5 413 h -45 -45 v 44.5 44.5 h 11 11 v 5.5794691936808 5.5794691936807 l -12.9801161413135,-0.3294691936809 c -12.6345949643329,-0.3206989652527 -13.053848419248,-0.402890459094 -15.75,-3.087669315123 -1.5234361222778,-1.5170100667934 -2.9122739142498,-3.8795100667934 -3.0863062043827,-5.25 L 531.8671553086076,502 h -88.6002443209704 c -48.7301343765338,0 -88.810509999139,-0.2102656781684 -89.0675013835671,-0.4672570625965 -0.2569913844282,-0.2569913844281 -2.4200024011485,-9.3694913844281 -4.8066911482672,-20.25 C 339.2028300979939,434.8287726814572 328.3921461445204,394.0735842751889 325.4444007442145,391 c -2.6418649166063,-2.7546457926832 -13.5356669841483,-8.2519509486598 -46.3674096557858,-23.39824044807 L 246.5,352.5729947684114 227.75,352.225886767471 209,351.8787787665306 V 346.4393893832653 341 h 10.9918103143079 10.991810314308 l 0.258189685692,-57.1367747859607 L 231.5,226.7264504280786 261.9864574149453,209.1132252140393 292.4729148298906,191.5 536.279863894214,191 l 243.8069490643233,-0.5 -7.2934064792687,-9.7852226539956 c -4.0113735635974,-5.3818724596975 -7.4434064792683,-10.2193724596975 -7.6267398126017,-10.75 C 764.9754650047433,169.4113762501783 767.5405864889936,169 771.1825003388371,169 h 6.349167005504 l 8.0573787664033,10.75 8.0573787664033,10.75 h 77.4267875614263 c 83.8272301473388,0 80.8826960079757,0.1864007694649 86.5993765457473,-5.4820863536651 C 964.4569256632203,178.2907710590904 964.4688234696035,178.2290994179127 964.8141529327496,148 c 0.3409604629446,-29.846650320631 -0.044799207479,-32.9590741382019 -4.7462125216346,-38.2938550299398 -5.0861224207373,-5.7713174507529 -10.5043353513978,-8.0632465027728 -20.1523149580479,-8.5245221457498 l -8.6195290558314,-0.4121048104878 -0.6360430857394,3.1802154286968 c -0.3498236971567,1.7491184857833 -1.7386014873471,4.1634769326732 -3.0861728670897,5.3652409930887 -2.2127933615662,1.9733689621433 -3.7153928504507,2.2120538592072 -15.5120051128782,2.4640507141196 L 899,112.0580502994554 V 107.0290251497277 102 h 11 11.0000000000001 V 57 12 H 876 831 v 45 45 h 11 11 v 5 5 l -13.0769230769231,-10e-14 -13.076923076923,-10e-14 -2.923076923077,-2.9230769230768 C 822.3153846153843,107.4692307692308 820.9999999999996,105.2051076108859 821,104.0455382806011 c 0,-1.1595693302847 -0.5624999999999,-2.3239672653031 -1.25,-2.5875509667075 -0.6875,-0.2635837014043 -21.8698642795468,-0.3619605430594 -47.0719206212146,-0.218615203678 L 726.8561587575707,101.5 l 8.0937637568213,10.75 8.0937637568212,10.75 -6.7881911050848,10e-14 h -6.7881911050852 l -8.2430263644876,-11 -8.2430263644877,-11 H 705.490625666034 L 698,101 V 65.46788136910487 c -5e-13,-29.86090207488678 -0.2478791408869,-36.12552288558568 -1.5530479136409,-39.25 C 694.4769441626797,21.50182870124614 690.604725978222,17.41294925179144 685.5,14.65841718401754 L 681.5,12.5 555.5581501322531,12.23481378332644 C 415.3485020593437,11.93958494436124 422.8095239753999,11.59819953623473 415.5581621601893,18.64063239226192 408.5198998257111,25.47610566980513 408.535482785681,25.3775005779886 408.1922959937062,65.25 l -0.3077040062938,35.75 -67.1922959937062,0.0055769344 c -43.6794898299012,0.00362538065 -68.5103168908149,0.3716003838474 -70.9587902873881,1.0515582513221 -2.0715718615252,0.5752897243052 -5.8965718615251,2.3285026265856 -8.5,3.8960286717341 -2.6034281384752,1.5675260451485 -28.3395119608779,16.4375376633119 -57.1912973831175,33.0444702625853 -28.8517854222397,16.6069325992735 -53.6957717356143,31.1637100765115 -55.2088584741658,32.3483943938624 -1.5130867385514,1.1846843173509 -3.8945804839916,4.3798264317133 -5.2922083232005,7.1003158096942 L 141,183.3926886472033 V 262.1963443236016 341 h 11 11 v 5.5 5.5 l -17.25,-0.00385178064 -17.25,-0.00385178064 -32,14.528078794566 C 78.9,374.5108185702886 60.48837864622925,383.1750518715786 55.58528588050942,385.7742270139216 L 46.67057176101884,390.5 l -2.42686383714995,7 C 37.10075629980106,418.1029941206733 16.60324887460117,507.4308564351399 13.05331491027552,533.4273142268516 l -1.08251063453555,7.9273142268513 3.26459786213001,5.4356760866237 C 21.59520885497065,557.3796177567286 54.06156864404574,599.4818057370124 79.40109138894196,630 c 19.91593829009791,23.9861847354362 27.19600929194693,31.7119270680045 31.09518677908484,32.9987716846809 7.405833370701,2.4441454220863 63.9279897941442,3.5727408591797 112.0692101087156,2.2377206952226 z"
       id="path5483"
       inkscape:connector-curvature="0"
       transform="matrix(0.4495326583547116,0,0,0.4495326583547116,-133.7531084651813,-178.6986724208172)" />
  </g>
  <g
     inkscape:groupmode="layer"
     id="layer2"
     inkscape:label="guide"
     style="display:inline" />
</svg>
