<?xml version="1.0" encoding="UTF-8" standalone="no"?>
<!-- Created with Inkscape (http://www.inkscape.org/) -->

<svg
   xmlns:dc="http://purl.org/dc/elements/1.1/"
   xmlns:cc="http://creativecommons.org/ns#"
   xmlns:rdf="http://www.w3.org/1999/02/22-rdf-syntax-ns#"
   xmlns:svg="http://www.w3.org/2000/svg"
   xmlns="http://www.w3.org/2000/svg"
   xmlns:sodipodi="http://sodipodi.sourceforge.net/DTD/sodipodi-0.dtd"
   xmlns:inkscape="http://www.inkscape.org/namespaces/inkscape"
   width="132.5004425048828mm"
   height="132.4999237060547mm"
   viewBox="0 0 132.5004425048828 132.4999237060547"
   version="1.1"
   id="svg4699"
   inkscape:version="0.92.1 r15371"
   sodipodi:docname="office2.svg">
  <defs
     id="defs4693" />
  <sodipodi:namedview
     id="base"
     pagecolor="#ffffff"
     bordercolor="#666666"
     borderopacity="1.0"
     inkscape:pageopacity="0.0"
     inkscape:pageshadow="2"
     inkscape:zoom="0.8323696428389906"
     inkscape:cx="271.5782791507481"
     inkscape:cy="334.8691665356982"
     inkscape:document-units="mm"
     inkscape:current-layer="layer1"
     showgrid="false"
     inkscape:window-width="1920"
     inkscape:window-height="1013"
     inkscape:window-x="-9"
     inkscape:window-y="-9"
     inkscape:window-maximized="1"
     inkscape:snap-global="false" />
  <metadata
     id="metadata4696">
    <rdf:RDF>
      <cc:Work
         rdf:about="">
        <dc:format>image/svg+xml</dc:format>
        <dc:type
           rdf:resource="http://purl.org/dc/dcmitype/StillImage" />
        <dc:title></dc:title>
      </cc:Work>
    </rdf:RDF>
  </metadata>
  <g
     inkscape:label="Layer 1"
     inkscape:groupmode="layer"
     id="layer1"
     transform="translate(12.7558333541273,-33.40520152398909)">
    <path
       style="opacity:1;vector-effect:none;fill:#725847;fill-opacity:1;stroke:none;stroke-width:9.4488191605;stroke-linecap:butt;stroke-linejoin:round;stroke-miterlimit:4;stroke-dasharray:none;stroke-dashoffset:0;stroke-opacity:1;paint-order:stroke markers fill"
       d="M 193.701171875 0 A 4.724882021188737 4.724882021188737 0 0 0 192.20703125 0.2421875 L 78.822265625 38.037109375 A 4.724882021188737 4.724882021188737 0 0 0 76.9765625 39.1796875 L 1.384765625 114.76953125 A 4.724882021188737 4.724882021188737 0 0 0 0 118.109375 L 0 420.47265625 L 0 496.0625 A 4.724882021188737 4.724882021188737 0 0 0 4.724609375 500.787109375 L 155.90625 500.787109375 L 364.421875 500.787109375 L 496.064453125 500.787109375 A 4.724882021188737 4.724882021188737 0 0 0 500.7890625 496.0625 L 500.7890625 420.47265625 A 4.724882021188737 4.724882021188737 0 0 0 499.404296875 417.1328125 L 464.275390625 382.005859375 C 464.8205405731969 370.760327213043 465.016764280982 354.3624570180561 464.822265625 339.6171875 C 464.7196464588101 331.8374562954253 464.5166626853941 324.6356786860759 464.205078125 319.076171875 C 464.0492858448031 316.2964184694619 463.869524340977 313.9348082063659 463.646484375 312.044921875 C 463.534964392011 311.0999787093172 463.414798861533 310.2783554264583 463.2578125 309.51171875 C 463.18375566073 309.1500651096979 462.936400001342 308.6584535284657 462.833984375 308.2890625 A 4.724882021188737 4.724882021188737 0 0 0 462.9921875 307.0859375 L 462.9921875 155.90625 A 4.724882021188737 4.724882021188737 0 0 0 461.607421875 152.56640625 L 387.40234375 78.357421875 L 387.40234375 22.98046875 C 387.40234375 10.33095608478749 377.0713876652121 1.13686837721616e-013 364.421875 0 L 231.49609375 0 L 193.701171875 0 z M 195.857421875 4.890625 C 196.5358758357555 4.900012027869991 195.954777784989 5.759926523168701 193.912109375 8.1875 C 192.1543319988084 10.27649972004758 190.1570812193658 13.99577926349599 189.474609375 16.453125 C 188.9006642175481 18.51970356627268 188.4868653824215 30.83570146936698 188.31640625 49.48828125 L 194.7578125 49.48828125 C 195.0246986267662 17.65735746013108 195.5235017762431 15.96207376596552 197.306640625 13.57421875 C 198.6689965993731 11.74984677290678 201.27683475058 9.143605974370814 203.1015625 7.78125 C 206.3759359393551 5.336577243285888 207.4800554094101 5.3046875 287.724609375 5.3046875 L 369.03125 5.3046875 L 373.234375 7.923828125 C 382.127248851878 13.46517931904202 381.64453125 8.21457187862886 381.64453125 99.3203125 L 381.64453125 180.951171875 L 378.91796875 185.033203125 C 373.152730532076 193.6632391695463 376.9363966416779 193.3173341711352 288.537109375 193.318359375 C 283.6600342041482 193.3184159365003 281.4466626921372 193.3076927244366 277.1484375 193.306640625 L 277.1484375 199.3671875 L 316.169921875 199.390625 L 324.52734375 213.4765625 C 325.2983884827884 214.775882390316 326.3013651424368 216.5051854880427 327.140625 217.9296875 L 332.294921875 215.208984375 C 331.6397659804731 214.1095719560897 330.8531505671583 212.7786597346537 330.34765625 211.943359375 L 323.078125 199.9296875 L 346.654296875 199.26953125 C 359.6215558146559 198.9073673526987 371.313237371942 198.1533034182757 372.634765625 197.591796875 C 377.881115364459 195.3626657911963 383.2198277203161 190.3508702018191 385.353515625 185.65234375 C 387.4214384601671 181.0986364716197 387.6007030138519 177.0222186328478 387.625 134.15234375 C 387.63951170207 108.5477338469901 388.0606263134 87.599609375 388.560546875 87.599609375 C 389.0604674366 87.599609375 404.738151517251 102.8760152571999 423.400390625 121.546875 L 457.33203125 155.4921875 L 457.33203125 227.869140625 C 457.33203125 267.6759060800418 456.927213719898 300.2310808843502 456.431640625 300.21484375 C 455.9360675301029 300.19860661565 447.137621101991 295.1222029605015 436.880859375 288.93359375 C 411.825067302459 273.8157125196612 388.770423057274 261.8007812499999 384.818359375 261.80078125 C 383.0397656829821 261.80078125 377.7586028421831 263.7269475622707 373.08203125 266.08203125 C 368.405459657818 268.4371149377293 364.3711322801189 270.156288530119 364.1171875 269.90234375 C 363.8726456568739 269.657801906874 358.1389350321603 259.7853289904722 351.328125 247.8984375 L 346.107421875 250.654296875 C 351.0813143250624 259.3623458352989 355.2971488838431 266.8319481971785 356.51953125 269.22265625 L 358.779296875 273.642578125 L 344.345703125 281.837890625 C 320.6884535221581 295.2701840857596 306.8182665943866 305.079661463454 305.57421875 309.255859375 C 305.1727500788135 310.6035668877976 304.804088245006 320.2596842185093 304.576171875 332.91796875 L 310.224609375 332.91796875 C 310.3624361595446 315.8170862730381 310.8059212495354 311.7724226778717 312.10546875 309.7890625 C 315.4031649721138 304.7561419154734 379.2441420632369 267.8066406249995 384.642578125 267.806640625 C 389.2334735013119 267.806640625 445.75682656857 299.6441185224242 455.328125 307.62109375 L 459.134765625 310.79296875 L 459.134765625 349.669921875 C 459.134765625 371.0521398444527 458.731778787381 389.9795771116673 458.240234375 391.73046875 C 457.6154677847101 393.9559006159629 454.4633517774851 396.7641342900768 447.765625 401.060546875 C 425.849952950733 415.1188643202615 388.150264207804 436.0019531249995 384.6875 436.001953125 C 383.738838058405 436.001953125 377.749666440224 433.2582010870229 371.376953125 429.904296875 C 344.644873915218 415.8354334846399 313.6088269640543 396.8686608892135 311.5625 393.3515625 C 310.8412866194446 392.1119861939709 310.4302892588399 385.1315366146379 310.259765625 370.712890625 L 304.291015625 370.712890625 L 304.216796875 391.55078125 L 271.791015625 391.55078125 L 271.791015625 397.458984375 L 306.00390625 397.693359375 L 316.4921875 404.68359375 C 329.267785333843 413.1970704133763 362.4351426966639 432.3215856491025 373.529296875 437.572265625 L 381.6328125 441.408203125 L 381.634765625 445.248046875 L 387.87890625 445.248046875 C 388.1633104471479 441.0322324082087 388.8129883387655 440.6270196470735 390.35546875 440.171875 C 394.0043002086561 439.0952025869269 421.093888144291 424.2555067495827 438.109375 414.013671875 C 456.5445839948429 402.9172884447343 463.33984375 397.83083156676 463.33984375 395.123046875 C 463.33984375 393.4693595250505 463.6649580365629 392.5354758271132 464.546875 392.466796875 C 466.487092319561 392.3157031803501 471.118873172489 396.349365977658 480.890625 406.09765625 L 495.77734375 420.94921875 L 495.77734375 458.509765625 L 495.77734375 496.072265625 L 438.7109375 496.072265625 C 407.324641489859 496.0722656249995 381.64453125 495.8305742456733 381.64453125 495.53515625 C 381.64453125 495.2397382543263 382.996527183677 492.4544726440356 384.6484375 489.34765625 C 385.8560999763235 487.0763552339413 386.5753022238854 485.5477720813932 387.0078125 483.04296875 L 380.6796875 483.04296875 C 379.6476722670318 488.2247105148212 377.5348306478309 490.1698980200487 373.234375 492.849609375 L 369.03125 495.470703125 L 252.49609375 495.732421875 C 156.2067132475098 495.949444483504 135.1651918614236 495.709183902623 131.376953125 494.345703125 C 124.871152176183 492.0041045210199 121.6022127461198 489.5478401368411 119.99609375 483.04296875 L 113.734375 483.04296875 C 114.5586503468091 487.2706430252704 115.9076074417193 489.8316046858231 118.09375 492.4296875 L 121.15625 496.072265625 L 63.3828125 496.072265625 L 5.609375 496.072265625 L 5.609375 458.51171875 L 5.609375 420.953125 L 22.14453125 404.44921875 C 31.23859053773174 395.3725643444729 39.00953991604536 387.9453125000001 39.412109375 387.9453125 C 39.81467883395453 387.9453125 40.49188102407265 390.1264093696539 40.91796875 392.791015625 C 41.55406411171884 396.7689374863847 42.66468422791024 398.3282016662534 47.125 401.501953125 C 55.38778165760925 407.3813609246085 77.59384625828704 420.6708151135459 96.015625 430.763671875 L 112.533203125 439.814453125 L 112.53515625 445.248046875 L 118.900390625 445.248046875 C 119.1661669786046 442.7104495308882 119.6142877983816 442.0078125 120.3671875 442.0078125 C 126.0858607895912 442.0078124999995 197.8345884707192 401.0049291214214 197.83203125 397.73828125 C 197.8317786066586 397.4155492982545 211.5212229528317 397.2312697211814 230.916015625 397.244140625 C 231.8635401166887 397.2447694276274 233.0202639186157 397.2543198369226 233.994140625 397.255859375 L 233.994140625 391.55078125 L 200.4140625 391.55078125 L 200.423828125 370.712890625 L 194.83984375 370.712890625 C 194.8265146870661 371.0676897651179 194.8209753032744 371.5035728648476 194.806640625 371.84765625 C 193.9637322115728 392.0804633429135 193.8101005898664 393.0419126477331 191.01171875 395.63671875 C 184.0339910876341 402.1068330354484 124.3270878291854 435.8934038755928 119.734375 435.970703125 C 118.7384982914537 435.987464574047 111.1688835628642 432.3196243996386 102.9140625 427.8203125 C 82.59738899521835 416.7466562493069 72.02475828421495 410.5537668608913 58.291015625 401.67578125 L 46.69921875 394.181640625 L 45.83203125 382.62109375 C 45.35534812419144 376.2630318115483 45.1883765141215 357.481008085038 45.4609375 340.884765625 L 45.95703125 310.7109375 L 49.888671875 307.427734375 C 52.61309722804371 305.1532834266409 59.3288463602815 300.8486913145259 67.53125 295.912109375 L 64.69140625 290.8125 C 60.06008884948313 293.6071693035008 56.00444970002099 296.1343034555837 53.064453125 298.08203125 C 47.18527467537422 301.9769471053315 42.79411013312836 305.8402761806886 41.75390625 308.03125 C 40.45713996419624 310.7626193286889 39.92973382362231 319.6058935122761 39.533203125 345.275390625 L 39.013671875 378.935546875 L 23.228515625 394.853515625 C 14.54749854075135 403.6086403015131 7.032097262993148 410.7734375 6.52734375 410.7734375 C 6.022590237006625 410.7734375 5.609374999999545 344.9554779865925 5.609375 264.51171875 L 5.609375 118.25 L 39.541015625 84.302734375 C 58.20325473274931 65.63187463219998 73.88093881340035 50.35546874999998 74.380859375 50.35546875 C 74.88077993660011 50.35546875 75.29101562499955 66.28461268283137 75.291015625 85.75390625 C 75.291015625 119.5220098276791 75.39848059011445 121.2101137527624 77.615234375 122.396484375 C 78.93159433041785 123.100978843464 88.04540409811455 123.6406250000002 98.638671875 123.640625 L 117.33984375 123.640625 L 117.33984375 192.70703125 L 117.33984375 261.7734375 L 107.427734375 266.751953125 C 104.6896588888581 268.1271679357467 101.2150428165321 269.9784403026081 97.48046875 272.009765625 L 100.380859375 277.21484375 C 110.4430220023583 271.8046926585053 118.4540937309119 267.857376095237 120.072265625 267.8359375 C 126.5606539755159 267.749975104968 192.1844295846502 306.1966921183086 193.484375 310.845703125 C 194.0940279216215 313.0260124744634 194.5820650344895 322.0395074930474 194.865234375 332.91796875 L 200.29296875 332.91796875 C 200.0964650184177 320.3114426538913 199.6926394269982 312.3019548528298 199.099609375 310.099609375 C 197.5381560048399 304.3008142599359 193.2356993701871 301.0163356642699 167.27734375 285.8046875 C 158.7316072142247 280.7968688465846 151.5582968604919 276.1534062064771 151.3359375 275.486328125 C 151.025146763873 274.5539559166191 157.3269023524116 262.9582265616871 165.421875 248.8671875 L 160.36328125 246.087890625 C 157.8172565269638 250.524219854986 155.5067858059849 254.5770562953255 153.982421875 257.33203125 C 149.3570729892951 265.6914000842622 145.0318578765294 272.4654475585251 144.37109375 272.38671875 C 143.7103296234706 272.3079899414749 138.7420610786166 270.0292177069483 133.330078125 267.322265625 L 123.490234375 262.400390625 L 123.41796875 193.021484375 L 123.345703125 123.640625 L 155.783203125 123.640625 L 188.220703125 123.640625 L 188.220703125 151.349609375 C 188.2207031250001 176.5839931547651 188.4403354674635 179.5698249865798 190.673828125 184.76171875 L 193.126953125 190.462890625 L 179.451171875 213.451171875 L 184.681640625 216.326171875 C 192.0223786399477 204.2983371349483 197.8844778772753 195.2211328906445 198.56640625 195.392578125 C 199.1539581918133 195.5402959563577 201.9401251377712 196.4855212349317 204.7578125 197.494140625 C 208.1215134185953 198.6982110319467 215.2861633137222 199.1356564293031 239.353515625 199.28515625 L 239.353515625 193.2421875 C 210.3981477131164 193.0847387639652 207.7451935580783 192.576317099894 204.34765625 190.89453125 C 201.2833268143125 189.3776837757732 198.46401578862 186.7162507028272 196.814453125 183.78125 L 194.1796875 179.08984375 L 194.50390625 97.990234375 C 194.5223605359559 93.38660123627568 194.5394962035315 91.38011144441957 194.556640625 87.283203125 L 188.2265625 87.283203125 L 188.220703125 117.6328125 L 134.7421875 117.6328125 L 81.263671875 117.6328125 L 81.580078125 80.19140625 L 81.8984375 42.75 L 137.162109375 24.318359375 C 167.5572591953472 14.18110044104998 193.4799810876794 5.550373863282999 194.767578125 5.138671875 C 195.2663393880501 4.979195736328791 195.6312705547477 4.887495990710903 195.857421875 4.890625 z "
       transform="matrix(0.2645833333333333,0,0,0.2645833333333333,-12.7558333541273,33.40520152398909)"
       id="path4607" />
    <path
       transform="matrix(0.2645833333333333,0,0,0.2645833333333333,-191.5056461796481,-32.34479031845149)"
       inkscape:connector-curvature="0"
       style="opacity:1;vector-effect:none;fill:#d35f5f;fill-opacity:1;stroke:none;stroke-width:9.4488191605;stroke-linecap:butt;stroke-linejoin:round;stroke-miterlimit:4;stroke-dasharray:none;stroke-dashoffset:0;stroke-opacity:1;paint-order:stroke markers fill"
       d="m 871.447265625,253.39453125 c -0.2261513202523,-0.00312900929 -0.5910824869499,0.088570736329 -1.08984375,0.248046875 -1.2875970373206,0.411701988283 -27.210318929653,9.04242856605 -57.60546875,19.1796875 l -55.263671875,18.431640625 -0.318359375,37.44140625 -0.31640625,37.44140625 h 53.478515625 53.478515625 l 0.0078125,-48.35546875 c 0.00409522073,-29.5561365183998 0.4876557897607,-50.0933452298946 1.24609375,-52.82421875 0.6824718443658,-2.457345736504 2.6797226238084,-6.1766252799524 4.4375,-8.265625 2.0426684099886,-2.4275734768313 2.6237664607555,-3.2874879721327 1.9453125,-3.296875 z m 91.8671875,0.4140625 c -80.2445539655901,0 -81.3486734356449,0.031889743286 -84.623046875,2.4765625 -1.82472774942,1.3623559743708 -4.4325659006269,3.9685967729068 -5.794921875,5.79296875 -2.4366740523855,3.2630237192789 -2.4829318317323,4.6376059075732 -2.802734375,84.416015625 l -0.32421875,81.099609375 2.634765625,4.69140625 c 1.64956266362,2.9350007028272 4.4688736893125,5.5964337757732 7.533203125,7.11328125 4.7622459451788,2.3573185863987 7.0829856853117,2.4247223612644 84.189453125,2.423828125 88.3992872666779,-0.00102520386 84.615621157076,0.3448797945463 90.380859375,-8.28515625 l 2.7265625,-4.08203125 V 347.82421875 c 0,-91.1057406213711 0.482717601878,-85.855133180958 -8.41015625,-91.396484375 l -4.203125,-2.619140625 z m -213.34375,45.05078125 c -0.4999205615997,0 -16.1776046422513,15.2764058822 -34.83984375,33.947265625 L 681.19921875,366.75390625 V 513.015625 c -5e-13,80.4437592365927 0.4132152370066,146.26171875 0.91796875,146.26171875 0.5047535129931,0 8.0201547907513,-7.1647971984869 16.701171875,-15.919921875 l 15.78515625,-15.91796875 0.51953125,-33.66015625 c 0.3965306986223,-25.6694971127239 0.9239368391962,-34.5127712963111 2.220703125,-37.244140625 1.0402038831284,-2.1909738193114 5.4313684253736,-6.0543028946685 11.310546875,-9.94921875 11.6624403940342,-7.7262876763797 40.7962079026717,-24.5159342855899 54.36328125,-31.330078125 L 792.9296875,510.27734375 V 441.2109375 372.14453125 h -18.701171875 c -10.5932677768855,2e-13 -19.7070775445821,-0.539646156536 -21.0234375,-1.244140625 -2.2167537848856,-1.1863706222376 -2.3242187500005,-2.874474547321 -2.32421875,-36.642578125 -5e-13,-19.4692935671686 -0.4102356883997,-35.3984375 -0.91015625,-35.3984375 z m 314.1796875,37.244140625 c -0.4999205616,0 -0.921035172929,20.9481244719901 -0.935546875,46.552734375 -0.02429698615,42.8698748828478 -0.203561539833,46.9462927216196 -2.271484375,51.5 -2.133687904684,4.6985264518191 -7.472400260541,9.7103220411964 -12.71875,11.939453125 -1.321528253058,0.5615065432757 -13.013209810344,1.3155704776988 -25.98046875,1.677734375 l -23.576171875,0.66015625 7.26953125,12.013671875 c 3.998711446516,6.6076412652929 13.128897181215,22.2476854745531 20.2890625,34.755859375 7.160165318785,12.508173900447 13.226523969881,22.9491802198812 13.48046875,23.203125 0.253944780119,0.253944780119 4.288272157818,-1.4652288122707 8.96484375,-3.8203125 4.676571592183,-2.3550836877293 9.957734432982,-4.28125 11.736328125,-4.28125 3.952063682274,-1e-13 27.006707927459,12.0149312696612 52.0625,27.1328125 10.256761726991,6.1886092105015 19.055208155103,11.2650128656495 19.55078125,11.28125 0.495573094898,0.01623713435 0.900390625,-32.5389376699582 0.900390625,-72.345703125 V 403.99609375 l -33.931640625,-33.9453125 c -18.662239107749,-18.6708597428001 -34.3399231884,-33.947265625 -34.83984375,-33.947265625 z m -265.21484375,36.041015625 0.072265625,69.380859375 0.072265625,69.37890625 9.83984375,4.921875 c 5.4119829536166,2.7069520819483 10.3802514984706,4.9857243164749 11.041015625,5.064453125 0.6607641265294,0.078728808525 4.985979239295,-6.6953186657378 9.611328125,-15.0546875 4.6253488857049,-8.3593688342623 15.3252144706393,-26.8256257310413 23.77734375,-41.03515625 l 15.3671875,-25.833984375 -2.453125,-5.701171875 c -2.2334926575365,-5.1918937634202 -2.453125,-8.1777255952348 -2.453125,-33.412109375 V 372.14453125 h -32.4375 z M 874.15625,443.896484375 c -1.996214123711,-0.5018729414293 -48.0582429520229,77.6104273939307 -47.23046875,80.09375 0.2223593604919,0.6670780814771 7.3956697142248,5.3105407215846 15.94140625,10.318359375 25.9583556201871,15.2116481642699 30.2608122548398,18.4961267599359 31.822265625,24.294921875 0.8686396555559,3.2258814048815 1.3434728223542,18.6578082481012 1.33203125,43.234375 L 876.00390625,640.0546875 h 51.900390625 51.90234375 l 0.140625,-39.345703125 c 0.077913019957,-21.6400251438344 0.6262916800832,-40.9669263704124 1.216796875,-42.94921875 1.2440478443865,-4.176197911546 15.1142347721581,-13.9856752892404 38.771484375,-27.41796875 l 14.43359375,-8.1953125 -2.259765625,-4.419921875 c -2.901995726556,-5.6756582431267 -21.198151623863,-37.5566101646169 -31.9921875,-55.74609375 l -8.357421875,-14.0859375 -53.14453125,-0.03125 c -44.5524415415975,-0.026599116841 -53.9727596060771,-0.3278611046082 -58.267578125,-1.865234375 -2.8176873622288,-1.0086193900683 -5.6038543081868,-1.9538446686423 -6.19140625,-2.1015625 z m 186.076171875,72.4140625 c -5.398436061763,-5e-13 -69.2394131528862,36.9495012904734 -72.537109375,41.982421875 -1.6884888923393,2.576959771495 -1.9422211878863,8.0756045465278 -1.94140625,42.0625 6.60638839e-4,27.5518705739158 0.4132907204302,39.8067915282224 1.3984375,41.5 2.0463269640544,3.5170983892135 33.082373915218,22.4838709846399 59.814453125,36.552734375 6.372713315224,3.3539042120229 12.361884933405,6.09765625 13.310546875,6.09765625 3.462764207804,-5e-13 41.162452950733,-20.8830888047385 63.078125,-34.94140625 6.697726777485,-4.2964125849232 9.84984278471,-7.1046462590371 10.474609375,-9.330078125 0.491544412381,-1.7508916383327 0.89453125,-20.6783289055473 0.89453125,-42.060546875 V 559.296875 L 1130.91796875,556.125 c -9.57129843143,-7.9769752275758 -66.094651498688,-39.814453125 -70.685546875,-39.814453125 z m -264.5703125,0.029296875 c -4.6134891954219,0.061122509823 -60.7957623311848,31.754488339567 -70.18359375,39.591796875 l -3.931640625,3.283203125 -0.49609375,30.173828125 c -0.2725609858785,16.596242460038 -0.1055893758086,35.3782661865483 0.37109375,41.736328125 l 0.8671875,11.560546875 11.591796875,7.494140625 c 13.733742659215,8.8779856108913 24.3063733702184,15.0708749993069 44.623046875,26.14453125 8.2548210628642,4.4993118996387 15.8244357914541,8.1671520740474 16.8203125,8.150390625 4.5927128291854,-0.077299249407 64.2996160876342,-33.8638700895516 71.27734375,-40.333984375 2.7983818398664,-2.5948061022669 2.9520134615728,-3.5562554070865 3.794921875,-23.7890625 0.8078638365834,-19.3916123063364 0.00921143217,-56.2401751143007 -1.322265625,-61.001953125 -1.29994541535,-4.6490110066914 -66.9237210244841,-43.0957280200319 -73.412109375,-43.009765625 z m -80.66015625,120.109375 c -0.4025694589546,1e-13 -8.1735188372681,7.4272518444729 -17.267578125,16.50390625 l -16.53515625,16.50390625 v 37.55859375 37.560546875 h 57.7734375 57.7734375 l -3.0625,-3.642578125 c -4.6497742346482,-5.5259427081201 -5.545433663624,-10.7822119197497 -5.552734375,-32.595703125 l -0.0078125,-20.01953125 -16.517578125,-9.05078125 c -18.421778741713,-10.0928567614541 -40.6278433423907,-23.3823109503915 -48.890625,-29.26171875 -4.4603157720898,-3.1737514587466 -5.5709358882812,-4.7330156386153 -6.20703125,-8.7109375 -0.4260877259273,-2.6646062553461 -1.1032899160454,-4.845703125 -1.505859375,-4.845703125 z m 425.134765625,4.521484375 c -0.881916963437,0.068678952113 -1.20703125,1.0025626500505 -1.20703125,2.65625 0,2.7077846917599 -6.795259755157,7.7942415697343 -25.23046875,18.890625 -17.015486855709,10.2418348745827 -44.105074791344,25.0815307119269 -47.75390625,26.158203125 -2.672007291009,0.7884377698329 -2.703125,1.0429520626597 -2.703125,22.162109375 0,20.4821944001945 -0.124552476352,21.598351551735 -3.00390625,27.013671875 -1.651910316323,3.1068163940356 -3.00390625,5.8920820043263 -3.00390625,6.1875 0,0.2954179956733 25.680110239859,0.537109375 57.06640625,0.537109375 h 57.06640625 v -37.5625 V 669.453125 l -14.88671875,-14.8515625 c -9.771751827511,-9.748290272342 -14.403532680439,-13.7819530696499 -16.34375,-13.630859375 z m -233.630859375,4.77734375 c -19.3947926721683,-0.012870903819 -33.0842370183415,0.1714086732545 -33.083984375,0.494140625 0.00255722072,3.2666478714214 -71.7461704604089,44.26953125 -77.46484375,44.26953125 -1.557926257391,1e-13 -1.826171875,2.8293822452137 -1.826171875,19.26171875 -5e-13,24.7812921037539 1.6581957542097,29.0530262740957 12.8359375,33.076171875 3.7882387364238,1.3634807776227 24.8297601225094,1.603741358504 121.119140625,1.38671875 l 116.53515625,-0.26171875 4.203125,-2.62109375 c 7.750654026547,-4.8296081401777 8.410988860157,-7.232435383099 8.404296875,-30.603515625 l -0.005859375,-20.837890625 -8.103515625,-3.8359375 C 1038.024986446664,680.8254918991025 1004.857629083843,661.7009766633763 992.08203125,653.1875 L 981.59375,646.197265625 927.5078125,645.828125 c -7.436819024224,-0.050638030361 -14.5370222342772,-0.075787823727 -21.001953125,-0.080078125 z"
       id="path4631" />
  </g>
  <g
     inkscape:groupmode="layer"
     id="layer2"
     inkscape:label="door"
     sodipodi:insensitive="true"
     style="display:none">
    <path
       style="opacity:1;vector-effect:none;fill:#d35f5f;fill-opacity:1;stroke:#ffff00;stroke-width:37.7952766418;stroke-linecap:butt;stroke-linejoin:round;stroke-miterlimit:4;stroke-dasharray:none;stroke-dashoffset:0;stroke-opacity:1;paint-order:stroke markers fill"
       d="m 258.2512029201927,171.1770214373857 -1e-12,48.4221005475363"
       id="path5253"
       inkscape:connector-curvature="0"
       transform="scale(0.2645833333333333)" />
    <path
       style="opacity:1;vector-effect:none;fill:#d35f5f;fill-opacity:1;stroke:#ffff00;stroke-width:37.7952766418;stroke-linecap:butt;stroke-linejoin:round;stroke-miterlimit:4;stroke-dasharray:none;stroke-dashoffset:0;stroke-opacity:1;paint-order:stroke markers fill"
       d="m 326.2120457939276,240.836885382964 30.5823792931807,-16.140700182512"
       id="path5255"
       inkscape:connector-curvature="0"
       transform="matrix(0.2645833333333333,0,0,0.2645833333333333,-1.430404161780266,0.4768013872600818)" />
    <path
       style="opacity:1;vector-effect:none;fill:#d35f5f;fill-opacity:1;stroke:#ffff00;stroke-width:37.7952766418;stroke-linecap:butt;stroke-linejoin:round;stroke-miterlimit:4;stroke-dasharray:none;stroke-dashoffset:0;stroke-opacity:1;paint-order:stroke markers fill"
       d="m 182.6111768826275,351.814833497067 141.7639399483552,1.3e-12"
       id="path5257"
       inkscape:connector-curvature="0"
       transform="scale(0.2645833333333333)" />
    <path
       style="opacity:1;vector-effect:none;fill:#d35f5f;fill-opacity:1;stroke:#ffff00;stroke-width:37.7952766418;stroke-linecap:butt;stroke-linejoin:round;stroke-miterlimit:4;stroke-dasharray:none;stroke-dashoffset:0;stroke-opacity:1;paint-order:stroke markers fill"
       d="m 252.8924521960072,417.2905515240618 -1e-13,-108.7257336044586"
       id="path5259"
       inkscape:connector-curvature="0"
       transform="scale(0.2645833333333333)" />
    <path
       style="opacity:1;vector-effect:none;fill:#d35f5f;fill-opacity:1;stroke:#ffff00;stroke-width:37.7952766418;stroke-linecap:butt;stroke-linejoin:round;stroke-miterlimit:4;stroke-dasharray:none;stroke-dashoffset:0;stroke-opacity:1;paint-order:stroke markers fill"
       d="m 103.3194816572761,464.1447350663149 304.552193024643,-1e-13"
       id="path5261"
       inkscape:connector-curvature="0"
       transform="scale(0.2645833333333333)" />
    <path
       style="opacity:1;vector-effect:none;fill:#d35f5f;fill-opacity:1;stroke:#ffff00;stroke-width:37.7952766418;stroke-linecap:butt;stroke-linejoin:round;stroke-miterlimit:4;stroke-dasharray:none;stroke-dashoffset:0;stroke-opacity:1;paint-order:stroke markers fill"
       d="M 90.89762739158132,299.0283569871443 72.20839559144309,265.4726908005324"
       id="path5265"
       inkscape:connector-curvature="0"
       transform="scale(0.2645833333333333)"
       sodipodi:nodetypes="cc" />
    <path
       style="opacity:1;vector-effect:none;fill:#d35f5f;fill-opacity:1;stroke:#ffff00;stroke-width:37.7952766418;stroke-linecap:butt;stroke-linejoin:round;stroke-miterlimit:4;stroke-dasharray:none;stroke-dashoffset:0;stroke-opacity:1;paint-order:stroke markers fill"
       d="M 183.2118715434257,237.0821532846267 157.58420449662,222.9971639820365"
       id="path5267"
       inkscape:connector-curvature="0"
       transform="scale(0.2645833333333333)" />
    <path
       style="opacity:1;vector-effect:none;fill:#d35f5f;fill-opacity:1;stroke:#ffff00;stroke-width:37.7952766418;stroke-linecap:butt;stroke-linejoin:round;stroke-miterlimit:4;stroke-dasharray:none;stroke-dashoffset:0;stroke-opacity:1;paint-order:stroke markers fill"
       d="m 202.1835076560407,68.38624636271129 -28.8833582365775,6.8e-13"
       id="path5269"
       inkscape:connector-curvature="0"
       transform="scale(0.2645833333333333)" />
  </g>
  <g
     inkscape:label="door copy"
     id="g5287"
     inkscape:groupmode="layer" />
</svg>
