<?xml version="1.0" encoding="UTF-8" standalone="no"?>
<!-- Created with Inkscape (http://www.inkscape.org/) -->

<svg
   xmlns:dc="http://purl.org/dc/elements/1.1/"
   xmlns:cc="http://creativecommons.org/ns#"
   xmlns:rdf="http://www.w3.org/1999/02/22-rdf-syntax-ns#"
   xmlns:svg="http://www.w3.org/2000/svg"
   xmlns="http://www.w3.org/2000/svg"
   xmlns:sodipodi="http://sodipodi.sourceforge.net/DTD/sodipodi-0.dtd"
   xmlns:inkscape="http://www.inkscape.org/namespaces/inkscape"
   width="210mm"
   height="297mm"
   viewBox="0 0 210 297"
   version="1.1"
   id="svg8"
   inkscape:version="0.92.1 r15371"
   sodipodi:docname="office 2 src.svg">
  <defs
     id="defs2" />
  <sodipodi:namedview
     id="base"
     pagecolor="#ffffff"
     bordercolor="#666666"
     borderopacity="1.0"
     inkscape:pageopacity="0.0"
     inkscape:pageshadow="2"
     inkscape:zoom="0.2080924109293407"
     inkscape:cx="836.850957766236"
     inkscape:cy="584.7130066453611"
     inkscape:document-units="mm"
     inkscape:current-layer="layer1"
     showgrid="true"
     inkscape:snap-global="true"
     inkscape:pagecheckerboard="true"
     inkscape:window-width="1920"
     inkscape:window-height="1013"
     inkscape:window-x="-9"
     inkscape:window-y="-9"
     inkscape:window-maximized="1">
    <inkscape:grid
       type="xygrid"
       id="grid4487"
       units="cm"
       spacingx="10.00000002623867"
       spacingy="10.00000002623867" />
  </sodipodi:namedview>
  <metadata
     id="metadata5">
    <rdf:RDF>
      <cc:Work
         rdf:about="">
        <dc:format>image/svg+xml</dc:format>
        <dc:type
           rdf:resource="http://purl.org/dc/dcmitype/StillImage" />
        <dc:title></dc:title>
      </cc:Work>
    </rdf:RDF>
  </metadata>
  <g
     inkscape:label="Layer 1"
     inkscape:groupmode="layer"
     id="layer1">
    <g
       id="g4569">
      <path
         transform="scale(0.2645833333333333)"
         inkscape:connector-curvature="0"
         id="path4516"
         d="M 491.3385839663679,555.5905496935556 V 404.409446934672 L 415.7480325869401,328.8188955552301 H 302.3622055177693 v 226.7716541383255 z"
         style="opacity:1;vector-effect:none;fill:#725847;fill-opacity:1;stroke:#ffffff;stroke-width:9.4488191605;stroke-linecap:butt;stroke-linejoin:round;stroke-miterlimit:4;stroke-dasharray:none;stroke-dashoffset:0;stroke-opacity:1;paint-order:stroke markers fill" />
      <rect
         ry="18.25650024414062"
         rx="18.25650024414062"
         transform="scale(0.2645833333333333)"
         y="328.8189086914062"
         x="113.3858261108398"
         height="264.5669250488281"
         width="151.1811065673828"
         id="rect4514"
         style="opacity:1;vector-effect:none;fill:#725847;fill-opacity:1;stroke:#ffffff;stroke-width:9.4488191605;stroke-linecap:butt;stroke-linejoin:round;stroke-miterlimit:4;stroke-dasharray:none;stroke-dashoffset:0;stroke-opacity:1;paint-order:stroke markers fill" />
      <path
         transform="scale(0.2645833333333333)"
         inkscape:connector-curvature="0"
         id="path4512"
         d="m 113.3858270691562,291.0236198655091 -75.59055137943502,75.590551379442 V 668.9763767627188 H 151.1811027588847 V 291.0236198655091 Z"
         style="opacity:1;vector-effect:none;fill:#725847;fill-opacity:1;stroke:#ffffff;stroke-width:9.4488191605;stroke-linecap:butt;stroke-linejoin:round;stroke-miterlimit:4;stroke-dasharray:none;stroke-dashoffset:0;stroke-opacity:1;paint-order:stroke markers fill" />
      <path
         style="opacity:1;vector-effect:none;fill:#725847;fill-opacity:1;stroke:#ffffff;stroke-width:9.4488191605;stroke-linecap:butt;stroke-linejoin:round;stroke-miterlimit:4;stroke-dasharray:none;stroke-dashoffset:0;stroke-opacity:1;paint-order:stroke markers fill"
         d="m 113.3858270691635,593.3858253832768 -75.59055137944233,75.590551379442 v 75.590551379442 H 188.9763784485986 l 1.45e-11,-113.3858270691632 z"
         id="path4510"
         inkscape:connector-curvature="0"
         transform="matrix(-0.2645833333333333,0,0,0.2645833333333333,150.0000003935823,1.364242052659392e-12)"
         sodipodi:nodetypes="cccccc" />
      <path
         sodipodi:nodetypes="cccccc"
         transform="scale(0.2645833333333333)"
         inkscape:connector-curvature="0"
         id="path4508"
         d="m 113.3858270691635,593.3858253832768 -75.59055137944233,75.590551379442 v 75.590551379442 H 188.9763784485986 l 1.45e-11,-113.3858270691632 z"
         style="opacity:1;vector-effect:none;fill:#725847;fill-opacity:1;stroke:#ffffff;stroke-width:9.4488191605;stroke-linecap:butt;stroke-linejoin:round;stroke-miterlimit:4;stroke-dasharray:none;stroke-dashoffset:0;stroke-opacity:1;paint-order:stroke markers fill" />
      <rect
         ry="18.25650024414062"
         rx="18.25650024414062"
         transform="scale(0.2645833333333333)"
         y="593.3858032226562"
         x="151.1811065673828"
         height="151.1811218261719"
         width="264.5669555664062"
         id="rect4506"
         style="opacity:1;vector-effect:none;fill:#725847;fill-opacity:1;stroke:#ffffff;stroke-width:9.4488191605;stroke-linecap:butt;stroke-linejoin:round;stroke-miterlimit:4;stroke-dasharray:none;stroke-dashoffset:0;stroke-opacity:1;paint-order:stroke markers fill" />
      <path
         sodipodi:nodetypes="cccccc"
         transform="scale(0.2645833333333333)"
         inkscape:connector-curvature="0"
         id="path4498"
         d="M 264.5669298280554,253.2283441757883 H 226.7716541383416 L 113.385827069163,291.0236198655084 v 75.5905513794417 l 113.3858270691786,6e-13 z"
         style="opacity:1;vector-effect:none;fill:#725847;fill-opacity:1;stroke:#ffffff;stroke-width:9.4488191605;stroke-linecap:butt;stroke-linejoin:round;stroke-miterlimit:4;stroke-dasharray:none;stroke-dashoffset:0;stroke-opacity:1;paint-order:stroke markers fill" />
      <path
         inkscape:transform-center-y="-10.09511075368644"
         transform="matrix(0.5878684895721947,0,0,0.5878684895721946,-41.55884691337939,-57.87458107525811)"
         d="m 269.2554962250307,381.5244522094727 c -4.1262608648104,7.1468934631347 -133.415767962204,7.1468934631347 -137.5420288270145,0 -4.1262608648104,-7.1468934631348 60.5184926838863,-119.1148910522461 68.7710144135072,-119.1148910522461 8.2525217296209,0 72.8972752783177,111.9679975891113 68.7710144135073,119.1148910522461 z"
         inkscape:randomized="0"
         inkscape:rounded="0.06"
         inkscape:flatsided="true"
         sodipodi:arg2="1.570796326794897"
         sodipodi:arg1="0.5235987755982988"
         sodipodi:r2="39.70496368408203"
         sodipodi:r1="79.40992736816406"
         sodipodi:cy="341.8194885253906"
         sodipodi:cx="200.4844818115234"
         sodipodi:sides="3"
         id="path4485"
         style="opacity:1;vector-effect:none;fill:#725847;fill-opacity:1;stroke:#ffffff;stroke-width:4.2526518164;stroke-linecap:butt;stroke-linejoin:round;stroke-miterlimit:4;stroke-dasharray:none;stroke-dashoffset:0;stroke-opacity:1;paint-order:stroke markers fill"
         sodipodi:type="star" />
      <path
         sodipodi:type="star"
         style="opacity:1;vector-effect:none;fill:#725847;fill-opacity:1;stroke:#ffffff;stroke-width:15.0024795532;stroke-linecap:butt;stroke-linejoin:round;stroke-miterlimit:4;stroke-dasharray:none;stroke-dashoffset:0;stroke-opacity:1;paint-order:stroke markers fill"
         id="path4494"
         sodipodi:sides="6"
         sodipodi:cx="139.3197326660156"
         sodipodi:cy="631.5026245117188"
         sodipodi:r1="134.8823699951172"
         sodipodi:r2="67.44118499755859"
         sodipodi:arg1="0.5235987755982988"
         sodipodi:arg2="1.047197551196598"
         inkscape:flatsided="true"
         inkscape:rounded="0.06"
         inkscape:randomized="0"
         d="m 256.1312916044391,698.9438095092773 c -4.0464710998535,7.0086935363054 -108.7186167387164,67.4411849975586 -116.8115589384235,67.4411849975586 -8.092942199707,0 -112.76508783856985,-60.4324914612532 -116.81155893842336,-67.4411849975586 -4.04647109985351,-7.0086935363055 -4.04647109985355,-127.8736764588118 -4e-14,-134.8823699951172 4.04647109985351,-7.0086935363055 108.71861673871639,-67.4411849975585 116.8115589384234,-67.4411849975585 8.092942199707,0 112.7650878385699,60.4324914612531 116.8115589384234,67.4411849975585 4.0464710998536,7.0086935363054 4.0464710998536,127.8736764588117 1e-13,134.8823699951172 z"
         transform="matrix(0.1666391331978885,0,0,0.1666391331978885,87.31850392328334,53.5859328442005)"
         inkscape:transform-center-y="-4.860582359461713" />
      <rect
         ry="18.25653076171875"
         rx="18.25653076171875"
         transform="matrix(0.2645833333333333,0,0,0.2645833333333333,9.999999525686039,9.999998065404383)"
         y="215.4330749511719"
         x="188.9763793945312"
         height="188.9763793945312"
         width="188.9763793945312"
         id="rect4496"
         style="opacity:1;vector-effect:none;fill:#725847;fill-opacity:1;stroke:#ffffff;stroke-width:9.4488191605;stroke-linecap:butt;stroke-linejoin:round;stroke-miterlimit:4;stroke-dasharray:none;stroke-dashoffset:0;stroke-opacity:1;paint-order:stroke markers fill" />
      <path
         inkscape:transform-center-y="-4.860582359461713"
         transform="matrix(0.1666391331978885,0,0,0.1666391331978885,17.318503739613,53.58593284420246)"
         d="m 256.1312916044391,698.9438095092773 c -4.0464710998535,7.0086935363054 -108.7186167387164,67.4411849975586 -116.8115589384235,67.4411849975586 -8.092942199707,0 -112.76508783856985,-60.4324914612532 -116.81155893842336,-67.4411849975586 -4.04647109985351,-7.0086935363055 -4.04647109985355,-127.8736764588118 -4e-14,-134.8823699951172 4.04647109985351,-7.0086935363055 108.71861673871639,-67.4411849975585 116.8115589384234,-67.4411849975585 8.092942199707,0 112.7650878385699,60.4324914612531 116.8115589384234,67.4411849975585 4.0464710998536,7.0086935363054 4.0464710998536,127.8736764588117 1e-13,134.8823699951172 z"
         inkscape:randomized="0"
         inkscape:rounded="0.06"
         inkscape:flatsided="true"
         sodipodi:arg2="1.047197551196598"
         sodipodi:arg1="0.5235987755982988"
         sodipodi:r2="67.44118499755859"
         sodipodi:r1="134.8823699951172"
         sodipodi:cy="631.5026245117188"
         sodipodi:cx="139.3197326660156"
         sodipodi:sides="6"
         id="path4504"
         style="opacity:1;vector-effect:none;fill:#725847;fill-opacity:1;stroke:#ffffff;stroke-width:15.0024795532;stroke-linecap:butt;stroke-linejoin:round;stroke-miterlimit:4;stroke-dasharray:none;stroke-dashoffset:0;stroke-opacity:1;paint-order:stroke markers fill"
         sodipodi:type="star" />
    </g>
    <path
       style="opacity:1;vector-effect:none;fill:#725847;fill-opacity:1;stroke:none;stroke-width:9.4488191605;stroke-linecap:butt;stroke-linejoin:round;stroke-miterlimit:4;stroke-dasharray:none;stroke-dashoffset:0;stroke-opacity:1;paint-order:stroke markers fill"
       d="M 869.291015625 248.50390625 A 4.724882021188737 4.724882021188737 0 0 0 867.796875 248.74609375 L 754.412109375 286.541015625 A 4.724882021188737 4.724882021188737 0 0 0 752.56640625 287.68359375 L 676.974609375 363.2734375 A 4.724882021188737 4.724882021188737 0 0 0 675.58984375 366.61328125 L 675.58984375 668.9765625 L 675.58984375 744.56640625 A 4.724882021188737 4.724882021188737 0 0 0 680.314453125 749.291015625 L 831.49609375 749.291015625 L 1040.01171875 749.291015625 L 1171.654296875 749.291015625 A 4.724882021188737 4.724882021188737 0 0 0 1176.37890625 744.56640625 L 1176.37890625 668.9765625 A 4.724882021188737 4.724882021188737 0 0 0 1174.994140625 665.63671875 L 1139.865234375 630.509765625 C 1140.410384323197 619.264233463043 1140.606608030982 602.866363268056 1140.412109375 588.12109375 C 1140.30949020881 580.3413625454253 1140.106506435394 573.1395849360762 1139.794921875 567.580078125 C 1139.639129594803 564.8003247194619 1139.459368090977 562.4387144563659 1139.236328125 560.548828125 C 1139.124808142011 559.6038849593172 1139.004642611533 558.7822616764583 1138.84765625 558.015625 C 1138.77359941073 557.6539713596981 1138.526243751342 557.1623597784659 1138.423828125 556.79296875 A 4.724882021188737 4.724882021188737 0 0 0 1138.58203125 555.58984375 L 1138.58203125 404.41015625 A 4.724882021188737 4.724882021188737 0 0 0 1137.197265625 401.0703125 L 1062.9921875 326.861328125 L 1062.9921875 271.484375 C 1062.9921875 258.8348623347875 1052.661231415212 248.5039062500001 1040.01171875 248.50390625 L 907.0859375 248.50390625 L 869.291015625 248.50390625 z M 871.447265625 253.39453125 C 872.1257195857555 253.4039182778673 871.5446215349889 254.2638327731687 869.501953125 256.69140625 C 867.7441757488084 258.7804059700476 865.7469249693658 262.499685513496 865.064453125 264.95703125 C 864.3060151647607 267.6879047701054 863.8224545957348 288.2251134816002 863.818359375 317.78125 L 863.810546875 366.13671875 L 810.33203125 366.13671875 L 756.853515625 366.13671875 L 757.169921875 328.6953125 L 757.48828125 291.25390625 L 812.751953125 272.822265625 C 843.1471029453472 262.68500669105 869.0698248376797 254.054280113283 870.357421875 253.642578125 C 870.8561831380501 253.4831019863288 871.2211143047482 253.3914022407109 871.447265625 253.39453125 z M 963.314453125 253.80859375 L 1044.62109375 253.80859375 L 1048.82421875 256.427734375 C 1057.717092601878 261.969085569042 1057.234375 256.7184781286289 1057.234375 347.82421875 L 1057.234375 429.455078125 L 1054.5078125 433.537109375 C 1048.742574282076 442.1671454195463 1052.526240391678 441.8212404211352 964.126953125 441.822265625 C 887.020485685312 441.8231598612644 884.6997459451792 441.7557560863987 879.9375 439.3984375 C 876.8731705643127 437.8815900257732 874.05385953862 435.2201569528272 872.404296875 432.28515625 L 869.76953125 427.59375 L 870.09375 346.494140625 C 870.4135525432679 266.7157309075732 870.4598103226148 265.3411487192789 872.896484375 262.078125 C 874.2588403493736 260.2537530229068 876.86667850058 257.6475122243708 878.69140625 256.28515625 C 881.9657796893553 253.8404834932859 883.0698991594103 253.80859375 963.314453125 253.80859375 z M 749.970703125 298.859375 C 750.4706236866001 298.859375 750.8808593749997 314.7885189328314 750.880859375 334.2578125 C 750.880859375 368.0259160776791 750.9883243401144 369.7140200027624 753.205078125 370.900390625 C 754.5214380804182 371.604885093464 763.6352478481148 372.1445312500002 774.228515625 372.14453125 L 792.9296875 372.14453125 L 792.9296875 441.2109375 L 792.9296875 510.27734375 L 783.017578125 515.255859375 C 769.4505047776717 522.0700032144101 740.3167372690342 538.8596498236203 728.654296875 546.5859375 C 722.7751184253742 550.4808533553315 718.3839538831284 554.344182430689 717.34375 556.53515625 C 716.0469837141964 559.2665255786889 715.5195775736223 568.1097997622761 715.123046875 593.779296875 L 714.603515625 627.439453125 L 698.818359375 643.357421875 C 690.1373422907517 652.1125465515131 682.6219410129935 659.27734375 682.1171875 659.27734375 C 681.6124339870066 659.27734375 681.1992187499999 593.459384236593 681.19921875 513.015625 L 681.19921875 366.75390625 L 715.130859375 332.806640625 C 733.7930984827493 314.1357808822 749.4707825634003 298.859375 749.970703125 298.859375 z M 1064.150390625 336.103515625 C 1064.6503111866 336.103515625 1080.327995267251 351.3799215071999 1098.990234375 370.05078125 L 1132.921875 403.99609375 L 1132.921875 476.373046875 C 1132.921875 516.1798123300418 1132.517057469898 548.7349871343503 1132.021484375 548.71875 C 1131.525911280103 548.7025128656495 1122.727464851991 543.6261092105015 1112.470703125 537.4375 C 1087.414911052459 522.3196187696616 1064.360266807274 510.3046874999999 1060.408203125 510.3046875 C 1058.629609432982 510.3046875 1053.348446592183 512.2308538122708 1048.671875 514.5859375 C 1043.995303407818 516.9410211877293 1039.960976030119 518.660194780119 1039.70703125 518.40625 C 1039.453086469881 518.1523052198812 1033.386727818785 507.711298900447 1026.2265625 495.203125 C 1019.066397181215 482.6949510995533 1009.936211446516 467.0549068902929 1005.9375 460.447265625 L 998.66796875 448.43359375 L 1022.244140625 447.7734375 C 1035.211399564656 447.4112736026987 1046.903081121942 446.6572096682757 1048.224609375 446.095703125 C 1053.470959114459 443.8665720411963 1058.809671470316 438.8547764518191 1060.943359375 434.15625 C 1063.011282210167 429.6025427216197 1063.190546763852 425.5261248828478 1063.21484375 382.65625 C 1063.229355452071 357.0516400969901 1063.6504700634 336.103515625 1064.150390625 336.103515625 z M 798.935546875 372.14453125 L 831.373046875 372.14453125 L 863.810546875 372.14453125 L 863.810546875 399.853515625 C 863.8105468750001 425.0878994047651 864.0301792174638 428.0737312365798 866.263671875 433.265625 L 868.716796875 438.966796875 L 853.349609375 464.80078125 C 844.8974800956393 479.0103117689587 834.197614510705 497.4765686657377 829.572265625 505.8359375 C 824.9469167392953 514.1953063342622 820.6217016265297 520.9693538085252 819.9609375 520.890625 C 819.3001733734708 520.8118961914752 814.3319048286166 518.5331239569483 808.919921875 515.826171875 L 799.080078125 510.904296875 L 799.0078125 441.525390625 L 798.935546875 372.14453125 z M 874.15625 443.896484375 C 874.7438019418133 444.0442022063577 877.5299688877714 444.9894274849317 880.34765625 445.998046875 C 884.6424747689226 447.5354201453919 894.0627928334028 447.8366821331593 938.615234375 447.86328125 L 991.759765625 447.89453125 L 1000.1171875 461.98046875 C 1010.911223376137 480.1699523353831 1029.207379273444 512.0509042568733 1032.109375 517.7265625 L 1034.369140625 522.146484375 L 1019.935546875 530.341796875 C 996.2782972721584 543.7740903357596 982.4081103443865 553.5835677134543 981.1640625 557.759765625 C 980.573557305083 559.7420580045879 980.0251786449568 579.0689592311659 979.947265625 600.708984375 L 979.806640625 640.0546875 L 927.904296875 640.0546875 L 876.00390625 640.0546875 L 876.021484375 601.837890625 C 876.0329259473541 577.2613238731012 875.558092780556 561.8293970298815 874.689453125 558.603515625 C 873.1279997548399 552.8047205099359 868.8255431201873 549.5202419142699 842.8671875 534.30859375 C 834.3214509642247 529.3007750965846 827.1481406104921 524.6573124564771 826.92578125 523.990234375 C 826.0980070479769 521.5069117689305 872.1600358762895 443.3946114335707 874.15625 443.896484375 z M 1060.232421875 516.310546875 C 1064.823317251312 516.310546875 1121.34667031857 548.1480247724242 1130.91796875 556.125 L 1134.724609375 559.296875 L 1134.724609375 598.173828125 C 1134.724609375 619.556046094453 1134.321622537381 638.4834833616673 1133.830078125 640.234375 C 1133.20531153471 642.4598068659631 1130.053195527485 645.268040540077 1123.35546875 649.564453125 C 1101.439796700733 663.6227705702615 1063.740107957804 684.5058593749999 1060.27734375 684.505859375 C 1059.328681808405 684.505859375 1053.339510190224 681.7621073370229 1046.966796875 678.408203125 C 1020.234717665218 664.3393397346399 989.1986707140544 645.3725671392135 987.15234375 641.85546875 C 986.1671969704303 640.1622602782224 985.754566888839 627.9073393239158 985.75390625 600.35546875 C 985.7530913121137 566.368573296528 986.0068236076611 560.869928521495 987.6953125 558.29296875 C 990.9930087221138 553.2600481654738 1054.833985813237 516.3105468749999 1060.232421875 516.310546875 z M 795.662109375 516.33984375 C 802.1504977255163 516.2538813549685 867.7742733346502 554.7005983683089 869.07421875 559.349609375 C 870.4056958071664 564.1113873856998 871.2043482115835 600.9599501936638 870.396484375 620.3515625 C 869.5535759615731 640.5843695929135 869.3999443398667 641.5458188977334 866.6015625 644.140625 C 859.6238348376341 650.6107392854484 799.9169315791854 684.397310125593 795.32421875 684.474609375 C 794.328342041454 684.4913708240474 786.7587273128644 680.8235306496388 778.50390625 676.32421875 C 758.1872327452185 665.2505624993071 747.6146020342152 659.0576731108913 733.880859375 650.1796875 L 722.2890625 642.685546875 L 721.421875 631.125 C 720.9451918741914 624.7669380615483 720.7782202641215 605.9849143350383 721.05078125 589.388671875 L 721.546875 559.21484375 L 725.478515625 555.931640625 C 734.8663470438154 548.0943320895673 791.0486201795782 516.4009662598229 795.662109375 516.33984375 z M 715.001953125 636.44921875 C 715.4045225839545 636.44921875 716.081724774073 638.630315619654 716.5078125 641.294921875 C 717.1439078617188 645.2728437363849 718.2545279779102 646.8321079162534 722.71484375 650.005859375 C 730.9776254076094 655.8852671746087 753.183690008287 669.1747213635459 771.60546875 679.267578125 L 788.123046875 688.318359375 L 788.130859375 708.337890625 C 788.1381600863765 730.1513818302503 789.0338195153519 735.4076510418801 793.68359375 740.93359375 L 796.74609375 744.576171875 L 738.97265625 744.576171875 L 681.19921875 744.576171875 L 681.19921875 707.015625 L 681.19921875 669.45703125 L 697.734375 652.953125 C 706.8284342877317 643.8764705944732 714.5993836660456 636.4492187500001 715.001953125 636.44921875 z M 1140.13671875 640.970703125 C 1142.076936069561 640.8196094303503 1146.708716922489 644.8532722276583 1156.48046875 654.6015625 L 1171.3671875 669.453125 L 1171.3671875 707.013671875 L 1171.3671875 744.576171875 L 1114.30078125 744.576171875 C 1082.914485239859 744.5761718749999 1057.234375 744.3344804956736 1057.234375 744.0390625 C 1057.234375 743.7436445043263 1058.586370933677 740.9583788940356 1060.23828125 737.8515625 C 1063.117635023648 732.4362421767352 1063.2421875 731.320085025195 1063.2421875 710.837890625 C 1063.2421875 689.7187333126598 1063.273305208991 689.464219019833 1065.9453125 688.67578125 C 1069.594143958656 687.5991088369269 1096.683731894291 672.7594129995828 1113.69921875 662.517578125 C 1132.134427744843 651.4211946947344 1138.9296875 646.3347378167599 1138.9296875 643.626953125 C 1138.9296875 641.9732657750507 1139.254801786563 641.0393820771135 1140.13671875 640.970703125 z M 906.505859375 645.748046875 C 912.9707902657229 645.7523371762728 920.0709934757762 645.7774869696393 927.5078125 645.828125 L 981.59375 646.197265625 L 992.08203125 653.1875 C 1004.857629083843 661.7009766633763 1038.024986446664 680.8254918991025 1049.119140625 686.076171875 L 1057.22265625 689.912109375 L 1057.228515625 710.75 C 1057.235207610157 734.121080241901 1056.574872776547 736.5239074848223 1048.82421875 741.353515625 L 1044.62109375 743.974609375 L 928.0859375 744.236328125 C 831.7965569975098 744.4533507335041 810.7550356114238 744.2130901526227 806.966796875 742.849609375 C 795.7890551292098 738.8264637740957 794.1308593749997 734.5547296037539 794.130859375 709.7734375 C 794.1308593750001 693.3411009952141 794.3991049926091 690.5117187500001 795.95703125 690.51171875 C 801.6757045395915 690.5117187499999 873.4244322207194 649.5088353714217 873.421875 646.2421875 C 873.4216223566586 645.9194555482545 887.1110667028321 645.7351759711814 906.505859375 645.748046875 z "
       transform="scale(0.2645833333333333)"
       id="path4607" />
    <path
       style="opacity:1;vector-effect:none;fill:#d35f5f;fill-opacity:1;stroke:none;stroke-width:9.4488191605;stroke-linecap:butt;stroke-linejoin:round;stroke-miterlimit:4;stroke-dasharray:none;stroke-dashoffset:0;stroke-opacity:1;paint-order:stroke markers fill"
       d="M 871.447265625 253.39453125 C 871.2211143047482 253.3914022407109 870.8561831380501 253.4831019863288 870.357421875 253.642578125 C 869.0698248376797 254.054280113283 843.147102945347 262.68500669105 812.751953125 272.822265625 L 757.48828125 291.25390625 L 757.169921875 328.6953125 L 756.853515625 366.13671875 L 810.33203125 366.13671875 L 863.810546875 366.13671875 L 863.818359375 317.78125 C 863.8224545957348 288.2251134816002 864.3060151647607 267.6879047701054 865.064453125 264.95703125 C 865.7469249693658 262.499685513496 867.7441757488084 258.7804059700476 869.501953125 256.69140625 C 871.5446215349889 254.2638327731687 872.1257195857555 253.4039182778673 871.447265625 253.39453125 z M 963.314453125 253.80859375 C 883.0698991594103 253.80859375 881.9657796893551 253.8404834932859 878.69140625 256.28515625 C 876.86667850058 257.6475122243708 874.2588403493734 260.2537530229068 872.896484375 262.078125 C 870.4598103226148 265.3411487192789 870.4135525432677 266.7157309075732 870.09375 346.494140625 L 869.76953125 427.59375 L 872.404296875 432.28515625 C 874.05385953862 435.2201569528272 876.8731705643128 437.8815900257732 879.9375 439.3984375 C 884.6997459451792 441.7557560863987 887.0204856853119 441.8231598612644 964.126953125 441.822265625 C 1052.526240391678 441.8212404211352 1048.742574282076 442.1671454195463 1054.5078125 433.537109375 L 1057.234375 429.455078125 L 1057.234375 347.82421875 C 1057.234375 256.7184781286289 1057.717092601878 261.969085569042 1048.82421875 256.427734375 L 1044.62109375 253.80859375 L 963.314453125 253.80859375 z M 749.970703125 298.859375 C 749.4707825634003 298.859375 733.7930984827491 314.1357808822 715.130859375 332.806640625 L 681.19921875 366.75390625 L 681.19921875 513.015625 C 681.1992187499999 593.459384236593 681.6124339870066 659.27734375 682.1171875 659.27734375 C 682.6219410129935 659.27734375 690.1373422907515 652.1125465515131 698.818359375 643.357421875 L 714.603515625 627.439453125 L 715.123046875 593.779296875 C 715.5195775736223 568.1097997622761 716.0469837141962 559.2665255786889 717.34375 556.53515625 C 718.3839538831284 554.344182430689 722.775118425374 550.4808533553315 728.654296875 546.5859375 C 740.3167372690342 538.8596498236203 769.4505047776719 522.0700032144101 783.017578125 515.255859375 L 792.9296875 510.27734375 L 792.9296875 441.2109375 L 792.9296875 372.14453125 L 774.228515625 372.14453125 C 763.6352478481148 372.1445312500002 754.5214380804181 371.604885093464 753.205078125 370.900390625 C 750.9883243401144 369.7140200027624 750.8808593749999 368.025916077679 750.880859375 334.2578125 C 750.8808593749997 314.7885189328314 750.4706236866003 298.859375 749.970703125 298.859375 z M 1064.150390625 336.103515625 C 1063.6504700634 336.103515625 1063.229355452071 357.0516400969901 1063.21484375 382.65625 C 1063.190546763852 425.5261248828478 1063.011282210167 429.6025427216196 1060.943359375 434.15625 C 1058.809671470316 438.8547764518191 1053.470959114459 443.8665720411964 1048.224609375 446.095703125 C 1046.903081121942 446.6572096682757 1035.211399564656 447.4112736026988 1022.244140625 447.7734375 L 998.66796875 448.43359375 L 1005.9375 460.447265625 C 1009.936211446516 467.0549068902929 1019.066397181215 482.6949510995531 1026.2265625 495.203125 C 1033.386727818785 507.711298900447 1039.453086469881 518.1523052198812 1039.70703125 518.40625 C 1039.960976030119 518.660194780119 1043.995303407818 516.9410211877293 1048.671875 514.5859375 C 1053.348446592183 512.2308538122708 1058.629609432982 510.3046875 1060.408203125 510.3046875 C 1064.360266807274 510.3046874999999 1087.414911052459 522.3196187696616 1112.470703125 537.4375 C 1122.727464851991 543.6261092105015 1131.525911280103 548.7025128656495 1132.021484375 548.71875 C 1132.517057469898 548.7349871343503 1132.921875 516.1798123300418 1132.921875 476.373046875 L 1132.921875 403.99609375 L 1098.990234375 370.05078125 C 1080.327995267251 351.3799215071999 1064.6503111866 336.103515625 1064.150390625 336.103515625 z M 798.935546875 372.14453125 L 799.0078125 441.525390625 L 799.080078125 510.904296875 L 808.919921875 515.826171875 C 814.3319048286166 518.5331239569483 819.3001733734708 520.8118961914752 819.9609375 520.890625 C 820.6217016265297 520.9693538085252 824.946916739295 514.1953063342622 829.572265625 505.8359375 C 834.197614510705 497.4765686657377 844.8974800956394 479.0103117689587 853.349609375 464.80078125 L 868.716796875 438.966796875 L 866.263671875 433.265625 C 864.0301792174638 428.0737312365798 863.810546875 425.0878994047652 863.810546875 399.853515625 L 863.810546875 372.14453125 L 831.373046875 372.14453125 L 798.935546875 372.14453125 z M 874.15625 443.896484375 C 872.1600358762895 443.3946114335707 826.0980070479771 521.5069117689306 826.92578125 523.990234375 C 827.1481406104921 524.6573124564771 834.3214509642248 529.3007750965846 842.8671875 534.30859375 C 868.8255431201873 549.5202419142699 873.1279997548398 552.8047205099359 874.689453125 558.603515625 C 875.558092780556 561.8293970298815 876.0329259473542 577.2613238731012 876.021484375 601.837890625 L 876.00390625 640.0546875 L 927.904296875 640.0546875 L 979.806640625 640.0546875 L 979.947265625 600.708984375 C 980.0251786449568 579.0689592311659 980.5735573050832 559.7420580045879 981.1640625 557.759765625 C 982.4081103443865 553.5835677134543 996.2782972721583 543.7740903357596 1019.935546875 530.341796875 L 1034.369140625 522.146484375 L 1032.109375 517.7265625 C 1029.207379273444 512.0509042568733 1010.911223376137 480.1699523353831 1000.1171875 461.98046875 L 991.759765625 447.89453125 L 938.615234375 447.86328125 C 894.0627928334028 447.8366821331593 884.6424747689229 447.5354201453918 880.34765625 445.998046875 C 877.5299688877714 444.9894274849317 874.7438019418132 444.0442022063577 874.15625 443.896484375 z M 1060.232421875 516.310546875 C 1054.833985813237 516.3105468749999 990.9930087221138 553.2600481654738 987.6953125 558.29296875 C 986.0068236076611 560.869928521495 985.7530913121137 566.368573296528 985.75390625 600.35546875 C 985.754566888839 627.9073393239158 986.1671969704303 640.1622602782224 987.15234375 641.85546875 C 989.1986707140544 645.3725671392135 1020.234717665218 664.3393397346399 1046.966796875 678.408203125 C 1053.339510190224 681.7621073370229 1059.328681808405 684.505859375 1060.27734375 684.505859375 C 1063.740107957804 684.5058593749999 1101.439796700733 663.6227705702615 1123.35546875 649.564453125 C 1130.053195527485 645.268040540077 1133.20531153471 642.4598068659631 1133.830078125 640.234375 C 1134.321622537381 638.4834833616673 1134.724609375 619.556046094453 1134.724609375 598.173828125 L 1134.724609375 559.296875 L 1130.91796875 556.125 C 1121.34667031857 548.1480247724242 1064.823317251312 516.310546875 1060.232421875 516.310546875 z M 795.662109375 516.33984375 C 791.0486201795782 516.4009662598229 734.8663470438154 548.0943320895673 725.478515625 555.931640625 L 721.546875 559.21484375 L 721.05078125 589.388671875 C 720.7782202641215 605.9849143350383 720.9451918741914 624.7669380615483 721.421875 631.125 L 722.2890625 642.685546875 L 733.880859375 650.1796875 C 747.6146020342152 659.0576731108913 758.1872327452187 665.2505624993071 778.50390625 676.32421875 C 786.7587273128644 680.8235306496388 794.3283420414541 684.4913708240474 795.32421875 684.474609375 C 799.9169315791854 684.397310125593 859.6238348376343 650.6107392854484 866.6015625 644.140625 C 869.3999443398667 641.5458188977334 869.5535759615728 640.5843695929135 870.396484375 620.3515625 C 871.2043482115835 600.9599501936638 870.4056958071664 564.1113873856998 869.07421875 559.349609375 C 867.7742733346502 554.7005983683089 802.1504977255163 516.2538813549685 795.662109375 516.33984375 z M 715.001953125 636.44921875 C 714.5993836660456 636.4492187500001 706.8284342877319 643.8764705944732 697.734375 652.953125 L 681.19921875 669.45703125 L 681.19921875 707.015625 L 681.19921875 744.576171875 L 738.97265625 744.576171875 L 796.74609375 744.576171875 L 793.68359375 740.93359375 C 789.0338195153519 735.4076510418801 788.1381600863764 730.1513818302503 788.130859375 708.337890625 L 788.123046875 688.318359375 L 771.60546875 679.267578125 C 753.183690008287 669.1747213635459 730.9776254076094 655.8852671746087 722.71484375 650.005859375 C 718.2545279779102 646.8321079162534 717.1439078617188 645.2728437363849 716.5078125 641.294921875 C 716.081724774073 638.630315619654 715.4045225839546 636.44921875 715.001953125 636.44921875 z M 1140.13671875 640.970703125 C 1139.254801786563 641.0393820771135 1138.9296875 641.9732657750507 1138.9296875 643.626953125 C 1138.9296875 646.3347378167599 1132.134427744843 651.4211946947344 1113.69921875 662.517578125 C 1096.683731894291 672.7594129995828 1069.594143958656 687.5991088369269 1065.9453125 688.67578125 C 1063.273305208991 689.464219019833 1063.2421875 689.7187333126599 1063.2421875 710.837890625 C 1063.2421875 731.320085025195 1063.117635023648 732.436242176735 1060.23828125 737.8515625 C 1058.586370933677 740.9583788940356 1057.234375 743.7436445043263 1057.234375 744.0390625 C 1057.234375 744.3344804956736 1082.914485239859 744.576171875 1114.30078125 744.576171875 L 1171.3671875 744.576171875 L 1171.3671875 707.013671875 L 1171.3671875 669.453125 L 1156.48046875 654.6015625 C 1146.708716922489 644.8532722276583 1142.076936069561 640.8196094303503 1140.13671875 640.970703125 z M 906.505859375 645.748046875 C 887.1110667028321 645.7351759711814 873.4216223566585 645.9194555482545 873.421875 646.2421875 C 873.4244322207194 649.5088353714217 801.6757045395915 690.51171875 795.95703125 690.51171875 C 794.3991049926091 690.5117187500001 794.130859375 693.3411009952139 794.130859375 709.7734375 C 794.1308593749997 734.5547296037539 795.7890551292097 738.8264637740957 806.966796875 742.849609375 C 810.7550356114238 744.2130901526227 831.7965569975096 744.4533507335041 928.0859375 744.236328125 L 1044.62109375 743.974609375 L 1048.82421875 741.353515625 C 1056.574872776547 736.5239074848223 1057.235207610157 734.121080241901 1057.228515625 710.75 L 1057.22265625 689.912109375 L 1049.119140625 686.076171875 C 1038.024986446664 680.8254918991025 1004.857629083843 661.7009766633763 992.08203125 653.1875 L 981.59375 646.197265625 L 927.5078125 645.828125 C 920.0709934757762 645.7774869696393 912.9707902657228 645.7523371762728 906.505859375 645.748046875 z "
       transform="scale(0.2645833333333333)"
       id="path4631" />
  </g>
</svg>
