<?xml version="1.0" encoding="UTF-8" standalone="no"?>
<!-- Created with Inkscape (http://www.inkscape.org/) -->

<svg
   xmlns:dc="http://purl.org/dc/elements/1.1/"
   xmlns:cc="http://creativecommons.org/ns#"
   xmlns:rdf="http://www.w3.org/1999/02/22-rdf-syntax-ns#"
   xmlns:svg="http://www.w3.org/2000/svg"
   xmlns="http://www.w3.org/2000/svg"
   xmlns:sodipodi="http://sodipodi.sourceforge.net/DTD/sodipodi-0.dtd"
   xmlns:inkscape="http://www.inkscape.org/namespaces/inkscape"
   width="210mm"
   height="297mm"
   viewBox="0 0 210 297"
   version="1.1"
   id="svg5756"
   inkscape:version="0.92.1 r15371"
   sodipodi:docname="room.svg">
  <defs
     id="defs5750" />
  <sodipodi:namedview
     id="base"
     pagecolor="#ffffff"
     bordercolor="#666666"
     borderopacity="1.0"
     inkscape:pageopacity="0.0"
     inkscape:pageshadow="2"
     inkscape:zoom="0.2080924109293422"
     inkscape:cx="85.68573224558554"
     inkscape:cy="-69.81934348457696"
     inkscape:document-units="mm"
     inkscape:current-layer="layer1"
     showgrid="false"
     inkscape:window-width="1920"
     inkscape:window-height="1013"
     inkscape:window-x="-9"
     inkscape:window-y="-9"
     inkscape:window-maximized="1" />
  <metadata
     id="metadata5753">
    <rdf:RDF>
      <cc:Work
         rdf:about="">
        <dc:format>image/svg+xml</dc:format>
        <dc:type
           rdf:resource="http://purl.org/dc/dcmitype/StillImage" />
        <dc:title></dc:title>
      </cc:Work>
    </rdf:RDF>
  </metadata>
  <g
     inkscape:label="Layer 1"
     inkscape:groupmode="layer"
     id="layer1">
    <path
       transform="matrix(0.2645833333333333,0,0,0.2645833333333333,611.7052679490641,-22.25112495492021)"
       inkscape:connector-curvature="0"
       style="opacity:1;vector-effect:none;fill:#000000;fill-opacity:1;stroke:none;stroke-width:7.4154577255;stroke-linecap:butt;stroke-linejoin:round;stroke-miterlimit:4;stroke-dasharray:none;stroke-dashoffset:0;stroke-opacity:1;paint-order:stroke markers fill"
       d="m -2534.271484375,-606.265625 c -21.346574225902,0 -313.599051984764,121.0560832347634 -328.693359375,136.150390625 -15.094307390236,15.0943073902365 -136.150390625,307.346785149099 -136.150390625,328.693359375 -2e-12,21.346574225901 121.056083234763,313.6010051097634 136.150390625,328.6953125 4.85190084993,4.8519008499296 38.39888724412,20.6702436986947 82.322265625,39.87890625 -28.123998905552,138.9321408147234 -65.619285117099,383.9545459440664 -70.513671875,471.576171875 -75.073114056154,10.2259137630989 -144.426334664634,21.3799949876911 -152.82421875,26.228515625 -18.4866755634,10.6732871129504 -211.059084417642,261.6366520274057 -216.583984375,282.255859375 -5.524899957358,20.619207347594 35.766166012049,334.245746311599 46.439453125,352.732421875 10.67328711295,18.486675563401 261.636652027406,211.057131292642 282.255859375,216.58203125 20.619207347595,5.524899957357 334.2457463116,-35.76421288705 352.732421875,-46.4375 18.486675563401,-10.673287112951 211.057131292642,-261.636652027406 216.58203125,-282.255859375 2.399568728541,-8.955312411166 -4.034815297995,-73.193907151158 -12.953125,-144.505859375 85.891047512138,-25.105292996902 276.703768178058,-96.547144948456 403.3515625,-149.5625 56.804070805928,75.106246716259 123.97079523502,159.35725219663 134.515625,165.4453125 18.4866755634,10.67328711295 332.113214527406,51.962399957358 352.732421875,46.4375 20.619207347595,-5.524899957358 271.582572262049,-198.0953556865998 282.255859375,-216.58203125 10.67328711295,-18.4866755634004 51.962399957358,-332.1132145274055 46.4375,-352.732421875 -5.524899957358,-20.6192073475941 -198.0953556866,-271.5825722620496 -216.58203125,-282.255859375 -18.486675563401,-10.6732871129504 -332.113214527405,-51.9643530823575 -352.732421875,-46.439453125 -3.894984138068,1.0436578543273 -16.027849900463,8.7760323729735 -33.189453125,20.734375 -33.939673233288,-42.9795917392054 -262.448672284608,-231.59799426046851 -388.125,-324.62890625 21.239875686337,-53.37857688586655 37.41796875,-97.3686015288477 37.41796875,-105.166015625 0,-21.3465742259011 -121.056083234764,-313.5990519847634 -136.150390625,-328.693359375 -15.094307390238,-15.0943073902365 -307.348738274099,-136.150390625 -328.6953125,-136.150390625 z"
       id="path5570" />
    <g
       id="g5582"
       transform="translate(467.2478507329501,-18.35369045009332)">
      <g
         id="g5576" />
    </g>
    <g
       id="g5592"
       transform="rotate(-120,-232.213705280839,0.6197027762385877)">
      <g
         id="g5588" />
    </g>
    <g
       transform="rotate(120,-224.4866745667634,271.9205651838775)"
       id="g5602">
      <g
         id="g5598" />
    </g>
    <path
       transform="matrix(0.2645833333333333,0,0,0.2645833333333333,611.7052679490641,-22.25112495492021)"
       inkscape:connector-curvature="0"
       style="opacity:1;vector-effect:none;fill:#b3b3b3;fill-opacity:1;stroke:#b3b3b3;stroke-width:5.6692914963;stroke-linecap:butt;stroke-linejoin:round;stroke-miterlimit:4;stroke-dasharray:none;stroke-dashoffset:0;stroke-opacity:1;paint-order:stroke markers fill"
       d="m -2534.271484375,-606.265625 c -21.346574225901,0 -313.599051984766,121.0560832347633 -328.693359375,136.150390625 -15.094307390237,15.0943073902365 -136.150390625,307.346785149099 -136.150390625,328.693359375 0,21.346574225901 121.056083234764,313.6010051097632 136.150390625,328.6953125 4.85185811196,4.8518581119598 38.39960158635,20.6706459874669 82.322265625,39.87890625 -28.123607733168,138.9300771927863 -65.614447357244,383.9471786347951 -70.509765625,471.572265625 1.27830248868,-0.1741280061641 2.570659964791,-0.3421177064073 3.8515625,-0.515625 -76.538459169377,10.365990474355 -148.138474100122,21.8167750193747 -156.6796875,26.748046875 -18.486675563401,10.6732871129504 -211.059084417642,261.6366520274048 -216.583984375,282.255859375 -5.524899957358,20.619207347595 35.766166012049,334.2457463116 46.439453125,352.732421875 10.67328711295,18.4866755634 261.636652027406,211.057131292642 282.255859375,216.58203125 20.619207347594,5.524899957358 334.245746311599,-35.76421288705 352.732421875,-46.4375 18.4866755634,-10.673287112951 211.057131292642,-261.636652027405 216.58203125,-282.255859375 2.399568728541,-8.955312411167 -4.034696509343,-73.194228132891 -12.953125,-144.505859375 85.890972129643,-25.105212555362 276.703512122551,-96.547211425191 403.3515625,-149.5625 56.804468174784,75.1060777897289 123.97079523502,159.35725219663 134.515625,165.4453125 18.4866755634,10.67328711295 332.111261402406,51.962399957358 352.73046875,46.4375 20.619207347595,-5.524899957358 271.584525387049,-198.0953556865998 282.2578125,-216.58203125 10.67328711295,-18.4866755634004 51.962399957358,-332.1132145274053 46.4375,-352.732421875 -5.524899957358,-20.619207347595 -198.0953556866,-271.5825722620496 -216.58203125,-282.255859375 -18.4866755634,-10.6732871129504 -332.115167652406,-51.9623999573582 -352.734375,-46.4375 -3.894885048328,1.0436313033117 -16.024728548498,8.7746148407426 -33.185546875,20.732421875 -33.939122117773,-42.9791831407076 -262.450168538121,-231.59776710334682 -388.126953125,-324.62890625 21.239666661617,-53.37873422028446 37.416015625,-97.3686015288477 37.416015625,-105.166015625 0,-21.3465742259011 -121.054130109764,-313.5990519847633 -136.1484375,-328.693359375 -15.094307390237,-15.0943073902365 -307.348738274098,-136.150390625 -328.6953125,-136.150390625 z m 0,39.59765625 c 19.52815532989,0 286.886821442171,110.7442433171711 300.6953125,124.552734375 13.808491057829,13.8084910578291 124.55078125,281.1652040451105 124.55078125,300.693359375 0,19.5281553298895 -110.742290192171,286.8868214421709 -124.55078125,300.6953125 -5.659515450991,5.659515450991 -54.052731803867,27.6387146063543 -110.376953125,51.56640625 l 14.125,34.34765625 c 63.151327823028,-26.7634245250118 117.941206464715,-51.6033158397146 124.251953125,-57.9140625 6.936063881418,-6.9360638814179 36.245391893199,-72.4548948497021 65.90234375,-143.259765625 -0.350282251096,0.83621589154316 -0.698630287408,1.68276985298962 -1.048828125,2.517578125 110.431730408181,81.07295891240829 327.179694568408,260.31008032460147 335.705078125,282.576171875 1.147205538809,2.9962034417209 1.37491770272,10.6794013900349 0.861328125,21.970703125 -74.639477509315,56.5066375031709 -157.59010833966,122.6850264526512 -163.62890625,133.14453125 -3.761025588665,6.5142874081337 -11.326185124946,49.7257217442336 -19.302734375,103.80078125 l 36.830078125,4.9453125 c 6.964691519295,-46.629629802864 13.465451612941,-83.2311976448277 16.765625,-88.947265625 9.764077664945,-16.9118786047334 239.348187927076,-193.0785539849044 258.2109375,-198.1328125 1.178921848308,-0.3158911571935 3.405181619745,-0.4642861480435 6.546875,-0.462890625 47.125400703827,0.020932845652 300.283785683063,33.7914896891143 316.138671875,42.9453125 16.911878604733,9.7640776649448 193.076600859904,239.348187927075 198.130859375,258.2109375 5.054258515096,18.8627495729241 -32.716391085055,305.7736682702666 -42.48046875,322.685546875 -9.764077664945,16.9118786047331 -239.350141052075,193.0785539849039 -258.212890625,198.1328125 -18.862749572925,5.054258515096 -305.771715145267,-32.718344210056 -322.68359375,-42.482421875 -16.911878604733,-9.764077664945 -193.080507109904,-239.3481879270753 -198.134765625,-258.2109375 -2.071529120474,-7.7310519269683 3.090942077001,-60.6308201316482 10.53125,-121.373046875 l -36.80859375,-4.94140625 c -8.397853137036,68.0725276549054 -14.280602722913,127.9418373402062 -11.970703125,136.5625 1.273955414885,4.7544663349299 12.563975553267,21.8394704243289 29.30078125,45.318359375 -117.993744281656,49.5388859180485 -305.179367880714,119.103331210938 -362.466796875,132.455078125 -8.793905951839,-61.292737454525 -17.479975777268,-112.4881555134274 -21.6015625,-119.626953125 -3.761065904286,-6.5143572368377 -37.401326636678,-34.6712705367833 -80.244140625,-68.6171875 l -22.6953125,29.421875 c 36.900078719388,29.3464014270457 65.346305177756,53.2780625812912 68.646484375,58.994140625 9.764077664945,16.9118786047331 47.536680390096,303.8208441770751 42.482421875,322.68359375 -5.054258515095,18.862749572925 -181.220933895267,248.450766085057 -198.1328125,258.21484375 -16.911878604733,9.764077664945 -303.822797302076,47.534727265096 -322.685546875,42.48046875 -18.862749572925,-5.054258515096 -248.448812960054,-181.220933895267 -258.212890625,-198.1328125 -9.764077664945,-16.911878604733 -47.534727265097,-303.822797302075 -42.48046875,-322.685546875 5.054258515096,-18.8627495729251 181.220933895268,-248.4468598350551 198.1328125,-258.2109375 15.854886191937,-9.1538228108858 269.013378459533,-42.9261469504568 316.138671875,-42.947265625 3.141686227698,-0.00140791164 5.367953151692,0.1469994678062 6.546875,0.462890625 7.731052098993,2.0715291665682 50.961694196931,32.9921406967455 99.845703125,69.806640625 l 22.68359375,-29.40625 c -54.753560493288,-41.3089246466812 -103.660603151298,-76.3385421386562 -112.28125,-78.6484375 -7.469013284105,-2.0013160777333 -53.441823964079,2.153685127956 -109.849609375,8.7578125 -2.128769045763,-50.1227728004633 35.653066414309,-299.6922391718159 61.869140625,-425.5546875 77.045883115575,31.880451646796 154.363519693993,61.701171875 164.95703125,61.701171875 7.522000473811,-1e-13 48.726688815721,-15.0541670910849 99.544921875,-35.18359375 l -14.130859375,-34.3671875 c -43.865083404954,17.283474547907 -78.813672127579,29.9531250000001 -85.4140625,29.953125 -19.52815532989,0 -286.884868317171,-110.742290192171 -300.693359375,-124.55078125 -13.808491057829,-13.8084910578291 -124.552734375,-281.1671571701106 -124.552734375,-300.6953125 0,-19.5281553298895 110.744243317171,-286.884868317171 124.552734375,-300.693359375 13.808491057829,-13.808491057829 281.16520404511,-124.552734375 300.693359375,-124.552734375 z"
       id="path5563" />
  </g>
</svg>
